<?xml version="1.0" encoding="UTF-8"?>
<svg width="221px" height="62px" viewBox="0 0 221 62" version="1.1" xmlns="http://www.w3.org/2000/svg" xmlns:xlink="http://www.w3.org/1999/xlink">
    <title>logo / main / white</title>
    <defs>
        <polygon id="path-1" points="7.10542736e-15 0 9.895 0 9.895 61.8179 7.10542736e-15 61.8179"></polygon>
        <polygon id="path-3" points="0 0 9.895 0 9.895 61.8179 0 61.8179"></polygon>
    </defs>
    <g id="logo-/-main-/-white" stroke="none" stroke-width="1" fill="none" fill-rule="evenodd">
        <path d="M6.449,48.3619 L3.87,48.3619 C1.732,48.3619 4.4408921e-15,46.6299 4.4408921e-15,44.4919 L4.4408921e-15,17.3259 C4.4408921e-15,15.1889 1.732,13.4559 3.87,13.4559 L6.025,13.4559 C8.162,13.4559 9.895,15.1889 9.895,17.3259 L9.895,44.9159 C9.895,46.8199 8.352,48.3619 6.449,48.3619" id="Fill-1" fill="#FFFFFE"></path>
        <g id="Group-5" transform="translate(54.355000, 0.000000)">
            <mask id="mask-2" fill="white">
                <use xlink:href="#path-1"></use>
            </mask>
            <g id="Clip-4"></g>
            <path d="M6.449,61.8179 L3.87,61.8179 C1.732,61.8179 7.10542736e-15,60.0859 7.10542736e-15,57.9479 L7.10542736e-15,3.8699 C7.10542736e-15,1.7329 1.732,-0.0001 3.87,-0.0001 L6.025,-0.0001 C8.162,-0.0001 9.895,1.7329 9.895,3.8699 L9.895,58.3719 C9.895,60.2749 8.352,61.8179 6.449,61.8179" id="Fill-3" fill="#FFFFFE" mask="url(#mask-2)"></path>
        </g>
        <g id="Group-8" transform="translate(18.118200, 0.000000)">
            <mask id="mask-4" fill="white">
                <use xlink:href="#path-3"></use>
            </mask>
            <g id="Clip-7"></g>
            <path d="M6.449,61.8179 L3.87,61.8179 C1.733,61.8179 0,60.0859 0,57.9479 L0,3.8699 C0,1.7329 1.733,-0.0001 3.87,-0.0001 L6.025,-0.0001 C8.162,-0.0001 9.895,1.7329 9.895,3.8699 L9.895,58.3719 C9.895,60.2749 8.352,61.8179 6.449,61.8179" id="Fill-6" fill="#FFFFFE" mask="url(#mask-4)"></path>
        </g>
        <path d="M78.9222,48.3619 L76.3432,48.3619 C74.2062,48.3619 72.4732,46.6299 72.4732,44.4919 L72.4732,17.3259 C72.4732,15.1889 74.2062,13.4559 76.3432,13.4559 L78.4982,13.4559 C80.6352,13.4559 82.3682,15.1889 82.3682,17.3259 L82.3682,44.9159 C82.3682,46.8199 80.8252,48.3619 78.9222,48.3619" id="Fill-9" fill="#FFFFFE"></path>
        <path d="M42.6854,49.4566 L40.1064,49.4566 C37.9694,49.4566 36.2364,47.7246 36.2364,45.5866 L36.2364,19.1916 C36.2364,17.0546 37.9694,15.3216 40.1064,15.3216 L42.2614,15.3216 C44.3984,15.3216 46.1314,17.0546 46.1314,19.1916 L46.1314,46.0106 C46.1314,47.9146 44.5884,49.4566 42.6854,49.4566" id="Fill-11" fill="#FFFFFE"></path>
        <path d="M125.9803,33.8609 L123.9413,29.4329 L123.9143,29.4329 L121.9013,33.8609 L125.9803,33.8609 Z M114.9513,39.6039 L123.3503,21.5429 C123.4313,21.3819 123.6193,21.2479 123.8063,21.2479 L124.0753,21.2479 C124.2633,21.2479 124.4513,21.3819 124.5313,21.5429 L132.9313,39.6039 C133.0923,39.9529 132.8773,40.3019 132.4753,40.3019 L129.4963,40.3019 C129.0133,40.3019 128.7983,40.1409 128.5563,39.6309 L127.5903,37.5109 L120.2923,37.5109 L119.3253,39.6579 C119.1913,39.9799 118.8963,40.3019 118.3593,40.3019 L115.4073,40.3019 C115.0043,40.3019 114.7903,39.9529 114.9513,39.6039 L114.9513,39.6039 Z" id="Fill-13" fill="#FFFFFE"></path>
        <path d="M154.0242,21.2476 C156.7082,21.2476 158.6942,22.0796 160.5192,23.7436 C160.7602,23.9586 160.7602,24.2806 160.5452,24.4956 L158.4522,26.6686 C158.2642,26.8566 157.9692,26.8566 157.7822,26.6686 C156.7892,25.7836 155.4732,25.2996 154.1592,25.2996 C151.1262,25.2996 148.8982,27.8226 148.8982,30.8286 C148.8982,33.8076 151.1532,36.2766 154.1852,36.2766 C155.4472,36.2766 156.8152,35.8196 157.7822,34.9876 C157.9692,34.8276 158.3182,34.8276 158.4792,35.0146 L160.5722,37.2426 C160.7602,37.4306 160.7332,37.7786 160.5452,37.9666 C158.7202,39.7376 156.4132,40.5696 154.0242,40.5696 C148.6572,40.5696 144.3362,36.3026 144.3362,30.9356 C144.3362,25.5686 148.6572,21.2476 154.0242,21.2476" id="Fill-15" fill="#FFFFFE"></path>
        <path d="M176.3523,21.6773 C176.3783,21.4353 176.6203,21.2473 176.8343,21.2473 L177.2643,21.2473 C177.3983,21.2473 177.6403,21.3553 177.7203,21.5163 L183.9473,33.1093 L184.0003,33.1093 L190.2263,21.5163 C190.3073,21.3553 190.5483,21.2473 190.6823,21.2473 L191.1123,21.2473 C191.3273,21.2473 191.5683,21.4353 191.5953,21.6773 L194.6273,39.7113 C194.6813,40.0603 194.4393,40.3023 194.1183,40.3023 L190.9513,40.3023 C190.7093,40.3023 190.4673,40.0873 190.4413,39.8723 L189.2333,31.5793 L189.1793,31.5793 L184.6713,40.2753 C184.5903,40.4353 184.3493,40.5703 184.2143,40.5703 L183.7323,40.5703 C183.5713,40.5703 183.3563,40.4353 183.2753,40.2753 L178.7403,31.5793 L178.6863,31.5793 L177.5053,39.8723 C177.4793,40.0873 177.2643,40.3023 176.9963,40.3023 L173.8293,40.3023 C173.5073,40.3023 173.2653,40.0603 173.3193,39.7113 L176.3523,21.6773 Z" id="Fill-17" fill="#FFFFFE"></path>
        <path d="M208.7967,22.0259 C208.7967,21.7579 209.0117,21.5159 209.3067,21.5159 L220.4167,21.5159 C220.7117,21.5159 220.9267,21.7579 220.9267,22.0259 L220.9267,24.9509 C220.9267,25.2199 220.7117,25.4609 220.4167,25.4609 L212.9837,25.4609 L212.9837,28.7889 L219.1027,28.7889 C219.3697,28.7889 219.6117,29.0299 219.6117,29.2989 L219.6117,32.2239 C219.6117,32.5189 219.3697,32.7339 219.1027,32.7339 L212.9837,32.7339 L212.9837,36.3569 L220.4167,36.3569 C220.7117,36.3569 220.9267,36.5979 220.9267,36.8669 L220.9267,39.7919 C220.9267,40.0599 220.7117,40.3019 220.4167,40.3019 L209.3067,40.3019 C209.0117,40.3019 208.7967,40.0599 208.7967,39.7919 L208.7967,22.0259 Z" id="Fill-19" fill="#FFFFFE"></path>
    </g>
</svg>