<?xml version="1.0" encoding="UTF-8"?>
<svg width="176px" height="55px" viewBox="0 0 176 55" version="1.1" xmlns="http://www.w3.org/2000/svg" xmlns:xlink="http://www.w3.org/1999/xlink">
    <title>logo / portfolio / azuqua</title>
    <g id="logo-/-portfolio-/-azuqua" stroke="none" stroke-width="1" fill="none" fill-rule="evenodd">
        <path d="M80.2520723,32 L80.2520723,43.4317524 C80.2520723,48.0139903 83.9447954,51.7286282 88.5,51.7286282 C93.0552046,51.7286282 96.7479277,48.0139903 96.7479277,43.4317524 L96.7479277,43.4317524 L96.7479277,32 L100,32 L100,43.4317524 C100,49.8207191 94.8512745,55 88.5,55 C82.1487255,55 77,49.8207191 77,43.4317524 L77,43.4317524 L77,32 L80.2520723,32 Z M130.252072,32 L130.252072,43.4317524 C130.252072,48.0139903 133.944795,51.7286282 138.5,51.7286282 C143.055205,51.7286282 146.747928,48.0139903 146.747928,43.4317524 L146.747928,43.4317524 L146.747928,32 L150,32 L150,43.4317524 C150,49.8207191 144.851274,55 138.5,55 C132.148726,55 127,49.8207191 127,43.4317524 L127,43.4317524 L127,32 L130.252072,32 Z M41,31 C47.627417,31 53,36.372583 53,43 L53,54.311522 L49.6998578,54.311522 L49.6998578,51.2651717 C47.5135479,53.5657315 44.4242696,55 41,55 C34.372583,55 29,49.627417 29,43 C29,36.372583 34.372583,31 41,31 Z M114,31 C120.627417,31 126,36.3026263 126,42.8437473 C126,46.0380778 124.718736,48.9370498 122.635769,51.0673477 L124.121322,53.0855987 L121.451366,55 L120.038726,53.0808069 C118.264962,54.1022609 116.201727,54.6874946 114,54.6874946 C107.372583,54.6874946 102,49.3848683 102,42.8437473 C102,36.3026263 107.372583,31 114,31 Z M164,31 C170.627417,31 176,36.372583 176,43 L176,54.311522 L172.699858,54.311522 L172.699858,51.2651718 C170.513548,53.5657316 167.42427,55 164,55 C157.372583,55 152,49.627417 152,43 C152,36.372583 157.372583,31 164,31 Z M75.9459968,32 L75.9459968,34.488227 L58.6144043,51.1287986 L76,51.1287986 L76,54 L54,54 L54,51.5051318 L71.3246983,34.8712014 L54.0654933,34.8712014 L54.0654933,32 L75.9459968,32 Z M41,34.3001422 C36.1952012,34.3001422 32.3001422,38.1952012 32.3001422,43 C32.3001422,47.8047987 36.1952012,51.6998577 41,51.6998577 C45.8047988,51.6998577 49.6998578,47.8047987 49.6998578,43 C49.6998578,38.1952012 45.8047988,34.3001422 41,34.3001422 Z M164,34.3001422 C159.195201,34.3001422 155.300142,38.1952012 155.300142,43 C155.300142,47.8047987 159.195201,51.6998577 164,51.6998577 C168.804799,51.6998577 172.699858,47.8047987 172.699858,43 C172.699858,38.1952012 168.804799,34.3001422 164,34.3001422 Z M114,34.2571709 C109.195201,34.2571709 105.300142,38.1015121 105.300142,42.8437473 C105.300142,47.5859824 109.195201,51.4303237 114,51.4303237 C115.476509,51.4303237 116.867109,51.0672926 118.085169,50.4267335 L115.890057,47.4444867 L118.560014,45.5300854 L120.654294,48.3753443 C121.930678,46.8811675 122.699858,44.9511136 122.699858,42.8437473 C122.699858,38.1015121 118.804799,34.2571709 114,34.2571709 Z M51.7928588,5 C54.6686836,5 57,7.3122917 57,10.1646481 C57,13.0170045 54.6686836,15.3292962 51.7928588,15.3292962 C49.329089,15.3292962 47.264969,13.6321542 46.724046,11.3522487 L37.5899935,11.9819779 C37.4772099,12.7639886 37.1342884,13.4723648 36.6314593,14.0374494 L41.7573859,20.9272863 C42.0978234,20.7998501 42.4668069,20.7301189 42.8522109,20.7301189 C44.5649272,20.7301189 45.9533579,22.1072192 45.9533579,23.8059587 C45.9533579,25.5046981 44.5649272,26.8817985 42.8522109,26.8817985 C41.1394949,26.8817985 39.7510642,25.5046981 39.7510642,23.8059587 C39.7510642,23.0952768 39.9940727,22.4408895 40.4021696,21.9200802 L35.2763406,15.0303743 C34.7753795,15.2546206 34.2194513,15.3794276 33.6341335,15.3794276 C33.108165,15.3794276 32.6059286,15.2786475 32.145983,15.0954944 L27.3471992,22.1400496 C28.0755405,22.8762297 28.5247104,23.8850742 28.5247104,24.9979719 C28.5247104,27.251678 26.6826887,29.0786678 24.4104399,29.0786678 C23.8513389,29.0786678 23.3182854,28.9680551 22.8323112,28.7676899 L18.9366503,34.4864391 C20.0270365,35.4887473 20.7095059,36.921466 20.7095059,38.5122828 C20.7095059,41.5430656 18.2323563,44 15.1766376,44 C12.1209187,44 9.64376925,41.5430656 9.64376925,38.5122828 C9.64376925,37.5654475 9.88553322,36.6746186 10.3111733,35.8972111 L4.68132361,31.658858 C4.19435063,32.0125303 3.59371175,32.2213494 2.94389928,32.2213494 C1.3180286,32.2213494 0,30.9140766 0,29.301474 C0,27.6888713 1.3180286,26.3815985 2.94389928,26.3815985 C4.56976994,26.3815985 5.88779855,27.6888713 5.88779855,29.301474 C5.88779855,29.6628445 5.82161112,30.0088822 5.70060409,30.3283122 L11.3308596,34.5669708 C12.3264164,33.6121035 13.682349,33.0245659 15.1766376,33.0245659 C16.0227081,33.0245659 16.8244237,33.2129221 17.5414841,33.5496632 L21.442107,27.8236294 C20.7323802,27.0903729 20.2961694,26.0946979 20.2961694,24.9979719 C20.2961694,22.7442659 22.1381911,20.9172761 24.4104399,20.9172761 C24.9534965,20.9172761 25.4719792,21.0216314 25.9466152,21.2112268 L30.7501879,14.1596416 C30.0612187,13.4474724 29.6377986,12.4806327 29.6377986,11.415705 C29.6377986,9.22660147 31.4270187,7.45198242 33.6341335,7.45198242 C35.4561336,7.45198242 36.9933511,8.66133282 37.4743296,10.3148734 L46.6078595,9.68518017 C46.8517343,7.05760875 49.0800295,5 51.7928588,5 Z M15.1766376,34.6956126 C13.0524319,34.6980679 11.3310405,36.4054119 11.3285647,38.5122828 C11.3285647,40.6201718 13.0514056,42.3289534 15.1766376,42.3289534 C17.3018695,42.3289534 19.0247104,40.6201718 19.0247104,38.5122828 C19.0247104,36.4043942 17.3018695,34.6956126 15.1766376,34.6956126 Z M14.9243609,36.2654427 L15.0919293,36.2757382 C16.5510823,36.4110113 17.6242273,37.7027759 17.4888658,39.1609753 C17.3535043,40.6191746 16.0608948,41.6916183 14.6017418,41.5563452 C13.1425888,41.4210722 12.0694437,40.1293075 12.2048053,38.6711082 C12.3401668,37.2129088 13.6327763,36.1404652 15.0919293,36.2757382 Z M2.5,37 C3.32842713,37 4,37.6715727 4,38.5 C4,39.328427 3.32842713,40 2.5,40 C1.67157287,40 1,39.328427 1,38.5 C1,37.6715727 1.67157287,37 2.5,37 Z M2.5,37.6711407 C2.04248925,37.6717571 1.67175712,38.0424891 1.67114094,38.4999998 C1.67114094,38.9577663 2.04223378,39.328859 2.5,39.328859 C2.95776622,39.328859 3.32885906,38.9577663 3.32885906,38.4999998 C3.32885906,38.0422337 2.95776622,37.6711407 2.5,37.6711407 Z M2.94389928,27.4956296 C1.9388663,27.4968573 1.12443471,28.3046427 1.12319698,29.301474 C1.12319698,30.2988143 1.93835316,31.1073184 2.94389928,31.1073184 C3.94944539,31.1073184 4.76460157,30.2988143 4.76460157,29.301474 C4.76460157,28.3041336 3.94944539,27.4956296 2.94389928,27.4956296 Z M24.4104399,22.2541134 C22.8833502,22.2559549 21.6458624,23.4833441 21.6440057,24.9979719 C21.6440057,26.5133631 22.8825805,27.7418305 24.4104399,27.7418305 C25.9382993,27.7418305 27.176874,26.5133631 27.176874,24.9979719 C27.176874,23.4825807 25.9382993,22.2541134 24.4104399,22.2541134 Z M10.5000366,22 C11.8807283,22 13,23.1192717 13,24.4999635 C13,25.5111043 12.3909035,26.4226817 11.4567311,26.8096285 C10.5225588,27.1965754 9.44727997,26.9826891 8.73229542,26.2677045 C8.01731089,25.55272 7.80342461,24.4774412 8.19037147,23.5432689 C8.57731829,22.6090965 9.48889572,22 10.5000366,22 Z M10.5000366,22.8729685 C9.60172145,22.8735704 8.87364345,23.6016484 8.87304153,24.4999635 C8.87304153,25.398528 9.60147202,26.1269584 10.5000366,26.1269584 C11.3986011,26.1269584 12.1270315,25.398528 12.1270315,24.4999635 C12.1270315,23.6013989 11.3986011,22.8729685 10.5000366,22.8729685 Z M42.8522109,21.8441499 C41.7603327,21.8453778 40.875499,22.7229907 40.8742611,23.8059587 C40.8742611,24.8894357 41.7598195,25.7677674 42.8522109,25.7677674 C43.9446026,25.7677674 44.830161,24.8894357 44.830161,23.8059587 C44.830161,22.7224817 43.9446026,21.8441499 42.8522109,21.8441499 Z M34.5,19 C34.8978246,19.0011186 35.2793554,19.1591538 35.56066,19.4404584 C35.8419649,19.7217629 36,20.1032938 36,20.5011185 C35.9993822,21.3293996 35.3275363,22.0004114 34.4992546,22 C33.6709732,21.999588 32.9997944,21.3279087 33,20.4996273 C33.0002058,19.6713459 33.6717183,19 34.5,19 L34.5,19 Z M34.4999998,19.6711409 C34.042489,19.6717571 33.6717569,20.0424892 33.6711407,20.4999999 C33.6711407,20.9577661 34.0422336,21.3288589 34.4999998,21.3288589 C34.9577661,21.3288589 35.3288589,20.9577661 35.3288589,20.4999999 C35.3288589,20.0422337 34.9577661,19.6711409 34.4999998,19.6711409 Z M33.6341335,8.78881972 C32.1721778,8.79066103 30.9874914,9.96567971 30.985635,11.415705 C30.985635,12.478181 31.630921,13.4360386 32.620597,13.8426305 C33.610273,14.2492224 34.7494394,14.0244774 35.5069048,13.2731934 C36.2643698,12.5219095 36.4909642,11.3920393 36.081027,10.4104395 C35.6710898,9.42883978 34.705351,8.78881972 33.6341335,8.78881972 Z M51.7928588,6.67104664 C49.8485475,6.67350169 48.2729886,8.23620312 48.2705134,10.1646481 C48.2705134,11.577678 49.1287053,12.8515719 50.4449156,13.392315 C51.7611259,13.9330581 53.2761499,13.6341604 54.2835336,12.6349974 C55.2909173,11.6358344 55.5922742,10.1331741 55.0470821,8.82770468 C54.50189,7.52223531 53.2175147,6.67104664 51.7928588,6.67104664 Z M51.5775226,7.94164316 L51.741138,7.95130036 C53.0568276,8.07350487 54.0242735,9.23845122 53.9019891,10.5532809 C53.7797047,11.8681105 52.6139964,12.8349242 51.2983069,12.7127197 C49.9826174,12.5905151 49.0151714,11.4255688 49.1374558,10.1107392 C49.2597402,8.79590952 50.4254485,7.82909584 51.741138,7.95130036 Z M38,0 C38.5304329,0 39.0391407,0.210713682 39.4142135,0.58578644 C39.7892862,0.960859198 40,1.46956703 40,2 C40,3.10456951 39.1045695,4 38,4 C36.8954305,4 36,3.10456951 36,2 C36,0.895430502 36.8954305,0 38,0 Z M38,0.678733034 C37.270543,0.679356769 36.6793568,1.27054292 36.678733,2.00000001 C36.678733,2.72971561 37.2702844,3.32126698 38,3.32126698 C38.7297156,3.32126698 39.321267,2.72971561 39.321267,2.00000001 C39.321267,1.2702844 38.7297156,0.678733034 38,0.678733034 Z" id="Azuqua-LOGO" fill="#506271" fill-rule="nonzero"></path>
    </g>
</svg>