<?xml version="1.0" encoding="UTF-8"?>
<svg width="176px" height="49px" viewBox="0 0 176 49" version="1.1" xmlns="http://www.w3.org/2000/svg" xmlns:xlink="http://www.w3.org/1999/xlink">
    <title>logo / portfolio / balena</title>
    <g id="logo-/-portfolio-/-balena" stroke="none" stroke-width="1" fill="none" fill-rule="evenodd">
        <g id="balena_logo" fill="#506271" fill-rule="nonzero">
            <path d="M43.5906977,13.6111111 C43.8635659,14.3597222 44,15.1083333 44,15.8569444 L44,15.8569444 L44,33.1430556 C44,35.5930556 42.703876,37.8388889 40.5891473,39.0638889 L40.5891473,39.0638889 L25.4449612,47.7069444 C24.7627907,48.1152778 23.944186,48.3875 23.1255814,48.5236111 L23.1255814,48.5236111 L23.1255814,43.2152778 C23.7395349,43.0791667 24.2852713,42.875 24.8310078,42.6027778 L24.8310078,42.6027778 L36.496124,35.9333333 C38.1333333,34.9805556 39.2248062,33.1430556 39.2248062,31.1694444 L39.2248062,31.1694444 L39.2248062,17.8305556 C39.2248062,17.2861111 39.0883721,16.7416667 38.951938,16.2652778 L38.951938,16.2652778 Z M0.545736434,13.6791667 L5.18449612,16.3333333 C5.04806202,16.8097222 4.97984496,17.2861111 4.97984496,17.8305556 L4.97984496,17.8305556 L4.97984496,31.1694444 C4.97984496,33.1430556 6.00310078,34.9805556 7.70852713,35.9333333 L7.70852713,35.9333333 L19.3054264,42.6027778 C19.8511628,42.9430556 20.3968992,43.1472222 20.9426357,43.2152778 L20.9426357,43.2152778 L20.9426357,48.5236111 C20.124031,48.3875 19.3054264,48.1152778 18.6232558,47.7069444 L18.6232558,47.7069444 L3.54728682,39.0638889 C1.43255814,37.9069444 0.136434109,35.6611111 0.136434109,33.2111111 L0.136434109,33.2111111 L0.136434109,15.8569444 C0.136434109,15.1083333 0.272868217,14.4277778 0.545736434,13.6791667 L0.545736434,13.6791667 Z M38.3946029,16.6147609 C38.568325,17.1788267 38.6526384,17.7205684 38.679592,18.2953236 L38.679592,18.2953236 L38.5066795,30.9380457 C38.5048699,32.7836757 37.436893,34.5051044 35.7734631,35.4624997 L35.7734631,35.4624997 L24.5309516,41.9331362 C24.1294334,42.1642305 23.6385064,42.3730007 23.1728901,42.4934197 L23.1728901,42.4934197 L23.3559936,28.8118626 C23.7121525,25.7293167 24.8897534,24.4612786 26.5784966,23.4155367 L26.5784966,23.4155367 Z M5.96493218,16.3333333 L17.7589901,23.33219 C20.2588176,25.1809446 20.7716027,26.8316183 20.8357008,28.8124268 L20.8357008,28.8124268 L20.8357008,42.4139785 C20.2588176,42.2819246 19.7460324,42.0838437 19.2332473,41.8197359 L19.2332473,41.8197359 L8.33656338,35.3490949 C6.73410986,34.4247176 5.77263775,32.6419899 5.77263775,30.7272084 L5.77263775,30.7272084 L5.77263775,17.7859262 C5.77263775,17.3237376 5.83673589,16.795522 5.96493218,16.3333333 L5.96493218,16.3333333 Z M122.790698,18.0347222 C125.51938,18.0347222 127.83876,18.9194444 129.748837,20.7569444 C131.658915,22.5944444 132.613953,24.7041667 132.613953,27.0861111 C132.613953,27.3583333 132.613953,27.6305556 132.545736,27.9027778 C132.477519,28.175 132.477519,28.4472222 132.409302,28.6513889 C132.409302,28.7194444 132.341085,28.7875 132.341085,28.8555556 L132.341085,29.0597222 L132.341085,29.0597222 L117.562434,29.0593056 L117.621571,29.2236193 C117.975542,30.1369329 118.566488,30.8762821 119.448062,31.4416667 C120.403101,32.0541667 121.426357,32.3263889 122.586047,32.3263889 C123.472868,32.3263889 124.291473,32.1902778 125.04186,31.9180556 C125.792248,31.6458333 126.406202,31.3055556 126.815504,30.8291667 L131.863566,30.8291667 C131.317829,32.3944444 130.15814,33.6875 128.384496,34.7763889 C126.610853,35.8652778 124.768992,36.4097222 122.722481,36.4097222 C119.925581,36.4097222 117.606202,35.525 115.627907,33.7555556 C113.649612,31.9861111 112.694574,29.8763889 112.694574,27.3583333 C112.694574,24.7722222 113.649612,22.5944444 115.627907,20.7569444 C117.606202,18.9194444 119.993798,18.0347222 122.790698,18.0347222 Z M91.2744186,18.0347222 C92.5705426,18.0347222 93.7984496,18.3069444 94.8899225,18.7833333 C95.9813953,19.2597222 96.9364341,20.0083333 97.6868217,21.0291667 L97.6868217,18.5791667 L101.916279,18.5791667 L101.916279,35.7972222 L97.6186047,35.7972222 L97.6186047,33.4833333 L97.5503876,33.4833333 C97.0046512,34.2319444 96.2542636,34.8444444 95.2992248,35.3208333 C94.344186,35.7972222 93.3891473,36.1375 92.3658915,36.2736111 C92.1612403,36.2736111 91.9565891,36.3416667 91.751938,36.3416667 L91.1379845,36.3416667 L91.1379845,36.3416667 C89.6372093,36.3416667 88.3410853,36.0694444 87.1813953,35.5930556 C86.0217054,35.1166667 84.9984496,34.3680556 84.179845,33.4833333 C83.4294574,32.6666667 82.8155039,31.7138889 82.4062016,30.625 C81.9968992,29.5361111 81.7922481,28.3791667 81.7922481,27.2222222 C81.7922481,25.9972222 81.9968992,24.9083333 82.3379845,23.8875 C82.7472868,22.8666667 83.3612403,21.9138889 84.179845,21.0291667 C85.1348837,20.0083333 86.2263566,19.2597222 87.3860465,18.7833333 C88.5457364,18.3069444 89.8418605,18.0347222 91.2744186,18.0347222 Z M164.88062,18.0347222 C166.176744,18.0347222 167.404651,18.3069444 168.496124,18.7833333 C169.587597,19.2597222 170.542636,20.0083333 171.293023,21.0291667 L171.293023,18.5791667 L175.522481,18.5791667 L175.522481,35.7972222 L171.224806,35.7972222 L171.224806,33.4833333 L171.156589,33.4833333 C170.610853,34.2319444 169.860465,34.8444444 168.905426,35.3208333 C167.950388,35.7972222 166.995349,36.1375 165.972093,36.2736111 C165.767442,36.2736111 165.562791,36.3416667 165.35814,36.3416667 L164.744186,36.3416667 L164.744186,36.3416667 C163.243411,36.3416667 161.947287,36.0694444 160.787597,35.5930556 C159.627907,35.1166667 158.604651,34.3680556 157.786047,33.4833333 C157.035659,32.6666667 156.421705,31.7138889 156.012403,30.625 C155.603101,29.5361111 155.39845,28.3791667 155.39845,27.2222222 C155.39845,25.9972222 155.603101,24.9083333 155.944186,23.8875 C156.353488,22.8666667 156.967442,21.9138889 157.786047,21.0291667 C158.741085,20.0083333 159.832558,19.2597222 160.992248,18.7833333 C162.151938,18.3069444 163.448062,18.0347222 164.88062,18.0347222 Z M64.4651163,12.7263889 L64.4651163,20.2805556 L64.5333333,20.2805556 C65.0108527,19.6 65.6930233,19.1236111 66.5116279,18.7152778 C67.3302326,18.375 68.2170543,18.1027778 69.103876,17.9666667 C69.3085271,17.9666667 69.5813953,17.8986111 69.7860465,17.8986111 L70.4,17.8986111 L70.4,17.8986111 C73.1968992,17.8986111 75.5162791,18.8513889 77.2899225,20.6888889 C79.0635659,22.5263889 79.9503876,24.7041667 79.9503876,27.0861111 C79.9503876,27.4263889 79.9503876,27.8347222 79.8821705,28.175 C79.8139535,28.5833333 79.7457364,28.9236111 79.6093023,29.3319444 C79.4046512,30.0805556 79.1317829,30.8291667 78.7906977,31.5097222 C78.4496124,32.1902778 77.972093,32.8708333 77.4945736,33.3472222 C76.675969,34.3 75.5844961,34.9805556 74.3565891,35.4569444 C73.1286822,35.9333333 71.8325581,36.2055556 70.5364341,36.2055556 C69.2403101,36.2055556 68.0124031,36.0013889 66.9209302,35.525 C65.8294574,35.0486111 64.8744186,34.3680556 64.124031,33.3472222 L64.055814,33.3472222 L64.055814,35.6611111 L59.8263566,35.6611111 L59.8263566,12.7263889 L64.4651163,12.7263889 Z M109.829457,12.7263889 L109.829457,35.7972222 L105.258915,35.7972222 L105.258915,12.7263889 L109.829457,12.7263889 Z M145.575194,17.9666667 C146.462016,18.0347222 147.348837,18.2388889 148.235659,18.6472222 C149.122481,18.9875 149.804651,19.5319444 150.486822,20.1444444 C150.555039,20.2125 150.691473,20.2805556 150.75969,20.3486111 C150.827907,20.4166667 150.896124,20.4847222 150.964341,20.6208333 C151.714729,21.5736111 152.124031,22.5263889 152.260465,23.6152778 C152.396899,24.7041667 152.465116,25.725 152.465116,26.8819444 L152.465116,35.7972222 L147.894574,35.7972222 L147.894574,26.8138889 L147.894574,26.8138889 C147.894574,26.5416667 147.894574,26.2013889 147.826357,25.9291667 C147.75814,25.4527778 147.689922,25.0444444 147.553488,24.6361111 C147.417054,24.2277778 147.28062,23.8194444 147.007752,23.4791667 C146.734884,23.0708333 146.325581,22.7305556 145.779845,22.4583333 C145.234109,22.1861111 144.756589,22.05 144.210853,22.05 L143.528682,22.05 L143.528682,22.05 C142.982946,22.1180556 142.505426,22.2541667 141.95969,22.5263889 C141.482171,22.7986111 141.072868,23.1388889 140.8,23.5472222 C140.595349,23.8875 140.390698,24.2958333 140.254264,24.7041667 C140.117829,25.1805556 140.049612,25.5888889 140.049612,26.0652778 L140.049612,35.7972222 L135.47907,35.7972222 L135.47907,18.5111111 L139.776744,18.5111111 L139.776744,20.0763889 L139.844961,20.0763889 C140.390698,19.4638889 141.072868,18.9194444 141.891473,18.5791667 C142.778295,18.2388889 143.665116,18.0347222 144.620155,17.9666667 L145.575194,17.9666667 L145.575194,17.9666667 Z M69.9224806,21.9819444 C68.3534884,21.9819444 67.0573643,22.4583333 65.8976744,23.4111111 C64.7379845,24.3638889 64.1922481,25.5208333 64.1922481,26.95 C64.1922481,28.4472222 64.7379845,29.7402778 65.7612403,30.7611111 C66.7844961,31.7819444 68.2170543,32.3263889 69.9224806,32.3263889 C71.5596899,32.3263889 72.855814,31.85 73.8790698,30.8291667 C74.9023256,29.8763889 75.379845,28.6513889 75.379845,27.1541667 C75.379845,25.725 74.9023256,24.5 73.8790698,23.4791667 C72.855814,22.4583333 71.5596899,21.9819444 69.9224806,21.9819444 Z M92.0930233,22.05 C90.3875969,22.05 89.0232558,22.5263889 88,23.5472222 C86.9085271,24.5680556 86.4310078,25.8611111 86.4310078,27.3583333 C86.4310078,28.7875 86.9767442,29.9444444 88.0682171,30.8972222 C89.1596899,31.85 90.524031,32.3263889 92.0248062,32.3263889 C93.6620155,32.3263889 95.0263566,31.85 96.0496124,30.8291667 C97.0046512,29.8763889 97.5503876,28.5833333 97.5503876,27.0861111 C97.5503876,25.6569444 97.0728682,24.4319444 96.0496124,23.4791667 C95.0263566,22.4583333 93.7302326,21.9819444 92.0930233,22.05 Z M165.631008,22.05 C163.925581,22.05 162.56124,22.5263889 161.537984,23.5472222 C160.446512,24.5680556 159.968992,25.8611111 159.968992,27.3583333 C159.968992,28.7875 160.514729,29.9444444 161.606202,30.8972222 C162.697674,31.85 164.062016,32.3263889 165.562791,32.3263889 C167.2,32.3263889 168.564341,31.85 169.587597,30.8291667 C170.610853,29.8763889 171.088372,28.5833333 171.088372,27.0861111 C171.088372,25.6569444 170.610853,24.4319444 169.587597,23.4791667 C168.564341,22.4583333 167.268217,21.9819444 165.631008,22.05 Z M122.790698,22.05 L122.517829,22.05 L122.517829,22.05 C121.426357,22.1180556 120.403101,22.4583333 119.448062,23.0027778 C118.493023,23.6152778 117.810853,24.3638889 117.537984,25.3166667 L127.975194,25.3166667 C127.634109,24.2958333 126.951938,23.4791667 125.996899,22.9347222 C125.04186,22.3222222 123.950388,22.05 122.790698,22.05 Z M18.6232558,1.29305556 C20.7379845,0.0680555556 23.3302326,0.0680555556 25.4449612,1.29305556 L25.4449612,1.29305556 L40.5891473,10.0722222 C41.4077519,10.4805556 42.0899225,11.0930556 42.6356589,11.8416667 L42.6356589,11.8416667 L37.9968992,14.4958333 C37.5875969,13.9513889 37.1100775,13.475 36.496124,13.1347222 L36.496124,13.1347222 L24.8310078,6.46527778 C23.1255814,5.5125 21.0108527,5.5125 19.3054264,6.46527778 L19.3054264,6.46527778 L7.70852713,13.1347222 C7.09457364,13.475 6.54883721,13.9513889 6.20775194,14.4958333 L6.20775194,14.4958333 L1.56899225,11.8416667 C2.11472868,11.0930556 2.79689922,10.4805556 3.61550388,10.0041667 L3.61550388,10.0041667 Z" id="Combined-Shape"></path>
        </g>
        <path d="M26.623171,8.71478758 L14.847202,1.68361181 C14.7199309,2.14671095 14.6566974,2.6760783 14.6573183,3.13935041 L14.6748378,16.1109693 C14.6774293,18.0302394 15.6390674,19.8184433 17.2390272,20.7471495 L28.1190044,27.2476607 C28.6309486,27.5130795 29.1428035,27.7123165 29.7185174,27.8454583 L29.7001089,14.2120222 C29.6334797,12.2264838 29.1196588,10.5712487 26.623171,8.71478758 Z" id="Path" fill="#506271" fill-rule="nonzero" transform="translate(22.187918, 14.764535) rotate(120.000000) translate(-22.187918, -14.764535) "></path>
    </g>
</svg>