<?xml version="1.0" encoding="UTF-8"?>
<svg width="129px" height="76px" viewBox="0 0 129 76" version="1.1" xmlns="http://www.w3.org/2000/svg" xmlns:xlink="http://www.w3.org/1999/xlink">
    <title>logo / portfolio / betterup</title>
    <g id="logo-/-portfolio-/-betterup" stroke="none" stroke-width="1" fill="none" fill-rule="evenodd">
        <path d="M94.0818849,58.7554512 C97.6101557,61.9215842 96.8463033,68.096752 92.6390526,70.1148597 C90.3838692,71.2024626 88.189309,71.0574489 86.1887431,69.41396 C86.1038706,69.3414531 86.0432474,69.2085239 85.8128792,69.2931152 L85.8128792,76 L85.8128792,76 C84.9156557,75.9879155 84.0184322,75.9879155 83.1333333,75.9879155 C83.2424551,75.7583105 83.1818319,75.5166209 83.1818319,75.2749314 C83.1818319,69.5589737 83.1939565,63.8430161 83.1697073,58.1270584 C83.1697073,57.5953414 83.3030783,57.4140743 83.8365626,57.4744966 C84.3215482,57.5228345 84.8065339,57.5107501 85.2915196,57.4744966 C85.7037574,57.4382432 85.8250038,57.6074259 85.7886299,57.9820447 C85.7643806,58.2358187 85.7886299,58.4895927 85.7886299,58.8400426 C85.922001,58.7433667 85.9947488,58.7071133 86.0432474,58.6587754 C88.492425,56.3506403 92.0449451,56.9186107 94.0818849,58.7554512 Z M21.1642546,57.1438023 C24.0740304,57.1923972 26.6928286,59.5006531 27.32328,62.5621295 C27.4445207,63.1331191 27.4808929,63.7162575 27.5172651,64.3115445 C27.5415132,64.7367496 27.4081485,64.8582367 26.9716821,64.8582367 C24.9267563,64.8501376 22.8818306,64.8474379 20.8333125,64.846538 L17.7573921,64.846088 C17.017824,64.846088 17.0057,64.8703854 17.2481813,65.5871597 C17.9756252,67.7253336 20.2185774,68.8551641 22.352413,68.1748361 C23.1162292,67.9318618 23.6981843,67.4580619 24.1225266,66.7777338 C24.2316432,66.6076518 24.3165117,66.4497185 24.5711171,66.4618672 C25.4319257,66.4983133 26.2806103,66.4861646 27.1899153,66.4861646 C26.4139751,68.7822719 24.934839,70.1793741 22.6191425,70.6896202 C18.8970542,71.5035841 15.3931992,69.2803692 14.5202665,65.5628622 C13.5018449,61.2257708 16.7753427,57.07091 21.1642546,57.1438023 Z M56.3980757,62.0429149 C56.6162428,62.7715419 56.6647244,63.5123128 56.7495671,64.2530837 C56.7980487,64.7024037 56.6889652,64.8845605 56.1799086,64.8845605 C53.1134485,64.8602729 50.0469884,64.8724167 46.9684079,64.8724167 C46.2411842,64.8724167 46.2290638,64.8845605 46.4593513,65.5646124 C47.1380935,67.616912 49.1985607,68.7827153 51.2953891,68.2848201 C52.1559372,68.0783758 52.8467998,67.6047682 53.3073748,66.8518536 C53.4770603,66.5725465 53.6709867,66.48754 53.986117,66.4996838 C54.7860631,66.5118276 55.5738888,66.4996838 56.4101961,66.4996838 C55.6344908,68.7341402 54.2042841,70.1671068 51.9135293,70.6771457 C48.1440863,71.5272106 44.58069,69.2927543 43.7443827,65.528181 C42.8717142,61.6178824 45.4291177,57.8168778 49.3440055,57.2096886 C52.4104655,56.736081 55.4648052,58.824812 56.3980757,62.0429149 Z M70.1080456,53.3499599 C70.4282254,53.7127687 70.2147722,54.5714162 70.2147722,55.2123785 C70.2266307,58.3325343 70.1673381,61.4647837 70.2740647,64.5728459 C70.3452158,66.9431968 72.0172662,68.3581512 74.3533933,68.2734958 C76.8436811,68.1888405 78.2311271,66.7134179 78.2311271,64.1616626 C78.2311271,60.6907916 78.2429856,57.2320142 78.2192686,53.7611432 C78.2192686,53.313679 78.3259952,53.1564618 78.7766187,53.1927427 C79.3102518,53.2411172 79.8438849,53.2290236 80.377518,53.1927427 C80.7451319,53.1685555 80.84,53.2773981 80.84,53.6523005 C80.816283,55.5630936 80.8281415,57.4255122 80.8281415,59.3000244 C80.8281415,60.9568514 80.8044245,62.6015847 80.8281415,64.2584116 C80.8874341,67.9348743 78.2667026,71.1396855 73.7367506,70.8373448 C70.5942446,70.6196595 68.5071463,68.8418963 67.8549281,65.9878003 C67.7244844,65.4193998 67.6651918,64.8389057 67.6651918,64.246318 C67.6651918,60.7633533 67.6770504,57.2803887 67.6533333,53.7853304 C67.6533333,53.2773981 67.8193525,53.1685555 68.246259,53.21693 C68.8866187,53.2773981 69.7522902,52.9387765 70.1080456,53.3499599 Z M65.919865,57.8806868 C65.8697443,58.3087637 65.8822745,58.7487317 65.919865,59.1886997 C65.9574555,59.6167766 65.8697443,59.8308151 65.3309472,59.7713599 C64.7420293,59.7000138 64.1656416,59.8308151 63.6268444,60.0686356 C62.3111768,60.6394048 61.7849098,61.6739241 61.7849098,62.981937 C61.7723796,65.2412319 61.7723796,67.5005269 61.79744,69.7598219 C61.79744,70.1760078 61.6846685,70.3068091 61.2461126,70.283027 C60.6697249,70.2473539 60.0808071,70.259245 59.4918892,70.283027 C59.178635,70.294918 59.0533333,70.2235719 59.0533333,69.8906231 C59.0658635,65.8833474 59.0658635,61.8879626 59.0533333,57.8806868 C59.0533333,57.5477381 59.1911652,57.4763919 59.4918892,57.500174 C59.9555054,57.523956 60.4065914,57.512065 60.8702076,57.500174 C61.3964746,57.4763919 62.0104528,57.3455906 61.6721383,58.3563278 C62.8123835,57.523956 63.9150382,57.1553342 65.168055,57.1434432 C65.7569728,57.1315521 65.995046,57.2980265 65.919865,57.8806868 Z M7.8733593,53.1481798 C10.4001583,53.1601557 12.2555856,54.669121 12.6462019,57.0044244 C12.8537168,58.2738714 12.7316492,59.8067886 11.0104963,61.2319225 C11.9870369,61.7468868 12.6217884,62.5372972 12.9391641,63.5672259 C13.2809534,64.6929619 13.2687466,65.806722 12.9025438,66.9204821 C12.2067586,68.9803395 10.2414705,70.2857143 7.8733593,70.2857143 C5.2489062,70.2857143 2.6244531,70.2737384 0.0122067586,70.2617625 C0,64.5612269 0,58.8606913 0,53.1481798 L5.2489062,53.1428571 C6.1237239,53.1428571 6.9985416,53.1441878 7.8733593,53.1481798 Z M37.9249127,54.286917 C38.4946354,54.3107839 39.0522363,54.3107839 39.621959,54.286917 C39.9856118,54.2749835 40.1189511,54.3704512 40.1068294,54.752322 C40.0825858,55.4683297 40.1310729,56.1843373 40.0825858,56.900345 C40.0583423,57.3776834 40.228047,57.4850846 40.6644303,57.4492842 C41.0644483,57.4134838 41.4765882,57.4492842 41.8766062,57.4373507 C42.1311632,57.4254173 42.288746,57.4850846 42.2766243,57.7953546 C42.2523808,58.3323603 42.2523808,58.8693661 42.2766243,59.4063718 C42.288746,59.7166418 42.1432849,59.7763091 41.8766062,59.7643757 C41.4523446,59.7524422 41.0280831,59.7882426 40.6038215,59.7524422 C40.1553164,59.7047083 40.0825858,59.8837103 40.0825858,60.2894479 C40.1068294,62.0436667 40.0825858,63.785952 40.0947076,65.5401708 C40.0947076,67.0676539 40.8705002,67.8313954 42.4220854,67.7717281 C42.9069558,67.7478611 43.0160516,67.8910627 42.9796863,68.3326007 C42.943321,68.702538 42.9190775,69.0963422 42.9796863,69.4662795 C43.0887822,70.1226199 42.7493729,70.253888 42.1796502,70.2777549 C39.5613502,70.4209564 37.5976252,68.6190038 37.4764076,65.9101081 C37.4279205,64.9554312 37.4642858,64.0007543 37.4642858,63.0460775 C37.4279205,62.9864102 37.4157988,62.9864102 37.4157988,62.9864102 C37.4157988,62.0556002 37.403677,61.1128568 37.4279205,60.1820468 C37.4400423,59.8359764 37.3794335,59.6927749 36.9794154,59.7047083 C35.7672395,59.7285753 34.5550636,59.7285753 33.3428876,59.7047083 C32.9792349,59.6927749 32.9186261,59.824043 32.9186261,60.1462464 C32.9307478,61.9123987 32.9065043,63.6904844 32.9307478,65.4566366 C32.9540216,66.9688448 33.6475802,67.6892058 35.1079446,67.7232992 L35.2944909,67.7239942 C35.694509,67.7120608 35.8278483,67.8075284 35.8036048,68.2132661 C35.7672395,68.6428707 35.7672395,69.0963422 35.8036048,69.5259468 C35.8520918,70.0032853 35.694509,70.1703537 35.1975168,70.2180876 C32.7367997,70.4448233 30.6761006,68.857673 30.3973001,66.4471139 C30.1548649,64.406492 30.3245696,62.3539367 30.3124478,60.3133149 C30.3124478,59.8479099 30.203352,59.6927749 29.7184816,59.7285753 C29.6356496,59.7325531 29.548777,59.7415032 29.4600524,59.7522212 L29.1905116,59.7864747 C28.8295526,59.8306727 28.473981,59.8518877 28.2638705,59.645041 C28.0800238,59.4640502 28.0776668,59.1734207 28.1076204,58.8655333 L28.1377284,58.599558 C28.1532594,58.4666118 28.1668964,58.3353437 28.1668964,58.2130257 C28.1547746,57.3180161 28.0578006,57.4373507 28.9790543,57.4373507 C30.300326,57.4373507 30.300326,57.4373507 30.300326,56.1485369 C30.300326,55.6711985 30.3124478,55.19386 30.300326,54.7165216 C30.2882043,54.4301185 30.3488131,54.2749835 30.6882223,54.286917 C31.3185538,54.3107839 31.9367636,54.3107839 32.567095,54.286917 C32.870139,54.2749835 32.9428696,54.4062516 32.9428696,54.6807212 C32.9307478,55.4563962 32.9549913,56.2320712 32.9307478,57.0077461 C32.9186261,57.341883 33.0277219,57.4492842 33.3792529,57.4492842 C34.5914289,57.4254173 35.8036048,57.4254173 37.0157807,57.4492842 C37.3673117,57.4492842 37.4642858,57.341883 37.4521641,57.0077461 C37.4279205,56.2559381 37.4642858,55.4921966 37.4400423,54.7403885 C37.4279205,54.3465843 37.5733817,54.2749835 37.9249127,54.286917 Z M87.2314623,60.6527141 C85.1460239,62.5378925 85.4733892,66.2357425 87.849819,67.7221332 C89.2926514,68.628469 91.0749738,68.4351173 92.2995626,67.2508386 C93.2210354,66.3565873 93.6211485,65.2206464 93.6938964,63.8430161 C93.6575225,63.589242 93.6453978,63.2267077 93.5484007,62.8762579 C93.1725368,61.4140362 92.3723104,60.2660108 90.8688548,59.7826318 C89.4987703,59.3355061 88.2863061,59.7101249 87.2314623,60.6527141 Z M3.08830993,62.5971768 C2.68548689,62.5852009 2.6244531,62.7289119 2.6244531,63.0762134 C2.63665986,64.4893714 2.64886662,65.9145053 2.6244531,67.3276633 C2.61224634,67.7228685 2.75872744,67.7947239 3.11272344,67.782748 C3.93057627,67.7587962 4.73622234,67.782748 5.55407516,67.7707721 L7.8733593,67.7707721 L7.8733593,67.7707721 C7.93439309,67.7707721 7.99542688,67.7707721 8.05646067,67.7587962 C9.21610274,67.6869407 10.0949894,67.0402413 10.4001583,66.0701922 C10.9860827,64.118118 9.9363015,62.6570564 7.84894578,62.6091527 C6.26206716,62.573225 4.67518854,62.6211286 3.08830993,62.5971768 Z M50.2045535,59.614158 C48.5561797,59.6020142 47.428983,60.512798 46.6775184,61.9457646 C46.4835921,62.3222219 46.5563145,62.431516 46.9805283,62.431516 C48.0107619,62.4193722 49.0652364,62.431516 50.1075904,62.431516 C51.1741852,62.431516 52.24078,62.4193722 53.3073748,62.431516 C53.6346255,62.431516 53.8164314,62.4072284 53.6225051,62.0064835 C52.9074018,60.5856607 51.8286865,59.6263017 50.2045535,59.614158 Z M17.4300423,61.9546937 C17.2481813,62.3556013 17.3694219,62.4284936 17.7573921,62.4284936 C18.8243098,62.4041962 19.8912276,62.4163449 20.9581454,62.4163449 C22.0008151,62.4163449 23.0556088,62.4041962 24.0982785,62.4284936 C24.4862486,62.4406423 24.558993,62.3191552 24.3892561,61.9911398 C23.6739362,60.5697401 22.5827703,59.6707352 20.9581454,59.5978429 C19.5517538,59.5370993 18.0362456,60.6061863 17.4300423,61.9546937 Z M117.611581,46.8571429 C118.942559,49.5124098 119.886342,52.2629329 118.736862,55.1920614 C117.490583,58.3474234 115.131123,60.4787812 111.876279,61.6337628 C110.303306,62.193393 108.681933,62.3958125 107.012162,62.2291141 C104.422806,61.9671595 102.825633,60.4906882 101.881849,58.1926321 C101.301059,56.7756959 101.046963,55.2992247 100.962265,53.7870323 C100.853367,51.5127902 100.889666,49.2266411 101.204261,46.9643061 L102.474739,48.2264509 L102.474739,48.2264509 C105.463388,51.1198583 108.936029,51.7509308 112.771664,50.083947 C114.598733,49.2861763 116.135406,48.1073806 117.611581,46.8571429 Z M5.49304137,55.6391701 C4.67518854,55.6391701 3.86954248,55.651146 3.05168965,55.6391701 C2.75872744,55.6391701 2.61224634,55.6750979 2.61224634,56.0223994 C2.63665986,57.2559187 2.6244531,58.4894379 2.61224634,59.7349331 C2.61224634,60.022355 2.69769365,60.1061864 2.99065586,60.1061864 C4.61415475,60.0942105 6.23765364,60.1301383 7.86115254,60.0942105 C9.20389598,60.0582828 10.0461623,59.1600892 10.0339556,57.8547144 C10.0217488,56.4894601 9.27713653,55.7230015 7.84894578,55.6750979 C7.07991999,55.6391701 6.28648068,55.6631219 5.49304137,55.6631219 L5.49304137,55.6391701 L5.49304137,55.6391701 Z M111.356896,0 C112.17213,0.276871633 113.048201,0.276871633 113.875602,0.481515883 C121.492555,2.33535203 126.408289,6.94586662 128.403785,14.4936281 C128.647138,15.4325841 128.805317,16.3956158 129,17.3345718 L129,22.2701096 L129,22.2701096 C128.720144,23.1248003 128.707976,24.0276426 128.513294,24.8943712 C126.919331,31.8763515 124.437128,38.4490433 119.837754,44.1068549 C119.217203,44.8652424 118.572317,45.611592 117.793587,46.2375627 C117.027025,44.913394 116.236127,43.6133011 115.214044,42.457663 C114.058116,41.1455322 112.804848,39.9297046 111.064873,39.4241129 C108.363653,38.6296117 106.088301,39.5204161 104.080637,41.289987 C102.571848,42.6261936 101.695776,44.335575 101.269908,46.2857143 C99.9071306,44.8291287 98.933718,43.1197474 98.0941496,41.3381386 C95.9404742,36.7757756 94.8575527,31.9606168 94.6750379,26.9287758 C94.5168583,22.6192086 94.5898642,18.3096415 95.0765706,14.0241501 C95.3685943,11.3878506 95.9283066,8.81174067 97.120737,6.39212335 C98.8850474,2.84094371 101.805285,0.878766487 105.698936,0.228720045 C106.03963,0.168530559 106.428995,0.228720045 106.733187,0 L111.356896,0 L111.356896,0 Z" id="BetterUp-LOGO" fill="#506271" fill-rule="nonzero"></path>
    </g>
</svg>