<?xml version="1.0" encoding="UTF-8"?>
<svg width="152px" height="32px" viewBox="0 0 152 32" version="1.1" xmlns="http://www.w3.org/2000/svg" xmlns:xlink="http://www.w3.org/1999/xlink">
    <title>logo / portfolio / circleci</title>
    <g id="logo-/-portfolio-/-circleci" stroke="none" stroke-width="1" fill="none" fill-rule="evenodd">
        <path d="M15.2649141,0 C23.9474216,0 31,7.17131474 31,16 C31,24.8286853 23.9474216,32 15.2649141,32 C7.91456016,32 1.75530839,26.8844622 0.0156723964,19.9681275 C0.0156723964,19.9043825 0,19.8565737 0,19.8087649 C0,19.3784861 0.34479272,19.0438247 0.752275025,19.0438247 L0.752275025,19.0438247 L7.09959555,19.0438247 C7.39737108,19.0438247 7.64812942,19.2350598 7.77350859,19.4900398 L7.77350859,19.4900398 L7.89232477,19.7422478 C9.2434194,22.4908808 12.040088,24.3824701 15.2649141,24.3824701 C19.809909,24.3824701 23.5085945,20.6215139 23.5085945,16 C23.5085945,11.3784861 19.809909,7.61752988 15.2649141,7.61752988 C11.942366,7.61752988 9.07431749,9.62549801 7.77350859,12.5099602 L7.77350859,12.5099602 L7.725267,12.6023406 C7.59670437,12.809761 7.36014914,12.9561753 7.09959555,12.9561753 L7.09959555,12.9561753 L0.752275025,12.9561753 C0.329120324,12.9561753 0,12.6055777 0,12.1912351 C0,12.12749 0,12.0796813 0.0156723964,12.0318725 C1.75530839,5.11553785 7.91456016,0 15.2649141,0 Z M49.0102302,6 C52.913896,6 56.2992327,8.23300971 57.9514066,11.5016181 C57.9838022,11.566343 58,11.631068 58,11.7119741 C58,11.9708738 57.773231,12.1812298 57.5140665,12.1812298 L57.5140665,12.1812298 L55.2949702,12.1812298 C55.1491901,12.1812298 55.0034101,12.1003236 54.9224211,11.987055 C53.6265985,10.0938511 51.4560955,8.84789644 48.9940324,8.84789644 C45.057971,8.84789644 41.8508099,12.0517799 41.8508099,15.9838188 C41.8508099,19.9158576 45.0417732,23.1197411 48.9940324,23.1197411 C51.4722933,23.1197411 53.6427962,21.8737864 54.9224211,19.9805825 C55.0034101,19.8673139 55.1329923,19.7864078 55.2949702,19.7864078 L55.2949702,19.7864078 L57.5140665,19.7864078 C57.7894288,19.7864078 58,20.012945 58,20.2880259 C58,20.368932 57.9838022,20.433657 57.9514066,20.4983819 C56.2992327,23.7669903 52.913896,26 49.0102302,26 C43.486786,26 39,21.5177994 39,16 C39,10.4822006 43.486786,6 49.0102302,6 Z M63,7 L63,25.5314626 C63,25.789966 62.779661,26 62.4915254,26 L62.4915254,26 L60.4915254,26 C60.220339,26 60,25.789966 60,25.5314626 L60,25.5314626 L60,7 L63,7 Z M85.0102302,6 C88.913896,6 92.2992327,8.23300971 93.9514066,11.5016181 C93.9838022,11.566343 94,11.631068 94,11.7119741 C94,11.9708738 93.7894288,12.1812298 93.5302643,12.1812298 L93.5302643,12.1812298 L91.3111679,12.1812298 C91.1653879,12.1812298 91.0196078,12.1003236 90.9386189,11.987055 C89.6427962,10.0938511 87.4722933,8.84789644 85.0102302,8.84789644 C81.0741688,8.84789644 77.8670077,12.0517799 77.8670077,15.9838188 C77.8670077,19.9158576 81.057971,23.1197411 85.0102302,23.1197411 C87.488491,23.1197411 89.658994,21.8737864 90.9386189,19.9805825 C91.0196078,19.8673139 91.1491901,19.7864078 91.3111679,19.7864078 L91.3111679,19.7864078 L93.5302643,19.7864078 C93.7894288,19.7864078 94,20.012945 94,20.2880259 C94,20.368932 93.9838022,20.433657 93.9514066,20.4983819 C92.2992327,23.7669903 88.913896,26 85.0102302,26 C79.486786,26 75,21.5177994 75,16 C75,10.4822006 79.486786,6 85.0102302,6 Z M112,6 C117.517799,6 121.983819,10.4822006 122,16 C122,16.1618123 122,16.3398058 121.983819,16.5016181 C121.983819,16.7605178 121.773463,16.9546926 121.514563,16.9546926 L121.514563,16.9546926 L104.928803,16.9546926 C105.381877,20.4498382 108.375405,23.1521036 112,23.1521036 C114.459547,23.1521036 116.627832,21.9061489 117.906149,20.012945 C118.003236,19.8996764 118.132686,19.8187702 118.294498,19.8187702 L118.294498,19.8187702 L120.511327,19.8187702 C120.770227,19.8187702 120.980583,20.0291262 120.980583,20.2880259 C120.980583,20.368932 120.964401,20.433657 120.932039,20.4983819 C119.281553,23.7669903 115.899676,26 112,26 C106.482201,26 102,21.5177994 102,16 C102,10.4822006 106.482201,6 112,6 Z M152,7 L152,25.5314626 C152,25.789966 151.778157,26 151.505119,26 L147.494881,26 C147.221843,26 147,25.789966 147,25.5314626 L147,7 L152,7 Z M134.632486,6 C139.136998,6 142.908942,9.2038835 143.968827,13.5242718 C143.984413,13.5566343 143.984413,13.5889968 143.984413,13.6213592 C143.984413,13.8802589 143.781788,14.0906149 143.532404,14.0906149 L143.532404,14.0906149 L139.651354,14.0906149 C139.464315,14.0906149 139.30845,13.9773463 139.230517,13.815534 L139.230517,13.815534 L139.134614,13.6089747 C138.300881,11.9092367 136.611378,10.7572816 134.648072,10.7572816 C131.85808,10.7572816 129.598031,13.1035599 129.598031,16 C129.598031,18.8964401 131.85808,21.2427184 134.648072,21.2427184 C136.674323,21.2427184 138.435603,19.9805825 139.230517,18.184466 L139.230517,18.184466 L139.275761,18.1079048 C139.361271,17.9880439 139.495488,17.9093851 139.651354,17.9093851 L139.651354,17.9093851 L143.54799,17.9093851 C143.797375,17.9093851 144,18.1197411 144,18.3786408 C144,18.4110032 143.984413,18.4433657 143.984413,18.4757282 C142.908942,22.7961165 139.136998,26 134.648072,26 C129.33306,26 125.015587,21.5177994 125,16 C125,10.4822006 129.317473,6 134.632486,6 Z M75.5145631,6 C75.7734628,6 75.9838188,6.20497925 76,6.45726141 L76,6.45726141 L76,8.33360996 C76,8.58589212 75.7734628,8.79087137 75.5145631,8.79087137 C71.7928803,9.02738589 68.8478964,12.0390041 68.8478964,15.7286307 L68.8478964,15.7286307 L68.8478964,24.5427386 C68.8478964,24.7950207 68.6375405,25 68.3786408,25 L68.3786408,25 L66.4692557,25 C66.210356,25 66,24.7950207 66,24.5427386 L66,24.5427386 L66,6.91452282 L66.007569,6.83239702 C66.0473451,6.61922033 66.2391226,6.45726141 66.4692557,6.45726141 L66.4692557,6.45726141 L68.3786408,6.45726141 C68.6375405,6.45726141 68.8478964,6.66224066 68.8478964,6.91452282 L68.8478964,6.91452282 L68.8478964,9.51618257 C70.3365696,7.46639004 72.6343042,6.12614108 75.5145631,6 Z M99.5056818,0 C99.7784091,0 100,0.208466966 100,0.465041693 L100,0.465041693 L100,24.5349583 C100,24.791533 99.7784091,25 99.5056818,25 L99.5056818,25 L97.4943182,25 C97.2215909,25 97,24.791533 97,24.5349583 L97,24.5349583 L97,0.465041693 C97,0.208466966 97.2215909,0 97.4943182,0 L97.4943182,0 Z M15,12 C17.209205,12 19,13.790795 19,16 C19,18.209205 17.209205,20 15,20 C12.790795,20 11,18.209205 11,16 C11,13.790795 12.790795,12 15,12 Z M111.983819,8.84789644 C108.699029,8.84789644 105.94822,11.0647249 105.106796,14.0906149 L105.106796,14.0906149 L118.860841,14.0906149 C118.035599,11.0647249 115.268608,8.84789644 111.983819,8.84789644 Z M149,0 C150.661017,0 152,1.33898305 152,3 C152,4.66101695 150.661017,6 149,6 C147.338983,6 146,4.66101695 146,3 C146,1.33898305 147.355932,0 149,0 Z M62,1 C63.1186441,1 64,1.89830508 64,3 C64,4.10169492 63.1016949,5 62,5 C60.8983051,5 60,4.10169492 60,3 C60,1.89830508 60.8983051,1 62,1 Z" id="CircleCI-LOGO" fill="#506271" fill-rule="nonzero"></path>
    </g>
</svg>