<?xml version="1.0" encoding="UTF-8"?>
<svg width="176px" height="38px" viewBox="0 0 176 38" version="1.1" xmlns="http://www.w3.org/2000/svg" xmlns:xlink="http://www.w3.org/1999/xlink">
    <title>logo / portfolio / diamanti</title>
    <g id="logo-/-portfolio-/-diamanti" stroke="none" stroke-width="1" fill="none" fill-rule="evenodd">
        <path d="M38.5175879,1.63849751 C40.5904523,4.42379623 42.8140704,7.09463062 45,9.84177456 C37.5,19.1896949 30.0376884,28.5376153 22.5,38 C14.9623116,28.5757701 7.53768844,19.2278497 0,9.80361979 C1.58291457,7.7814166 3.20351759,5.7973682 4.78643216,3.77516502 C5.61557789,2.70683126 6.44472362,1.63849751 7.31155779,0.646473303 C7.57537688,0.341235087 8.10301508,0.0741516477 8.4798995,0.0741516477 C14.4346734,0.0359968707 20.3894472,0.0359968707 26.3442211,0.0741516477 C26.7211055,0.0741516477 27.2110553,0.226770756 27.3994975,0.493854195 C29.8115578,3.43177203 32.2236181,6.40784463 34.6356784,9.42207202 C30.6030151,14.4966574 26.5326633,19.5712427 22.3869347,24.7602924 C21.2562814,23.3485656 20.201005,22.0131484 19.1080402,20.6777312 C22.0854271,16.9767179 24.9874372,13.2757045 27.9648241,9.57469112 C26.9472362,8.27742871 26.0050251,7.01832106 25.0251256,5.7973682 C24.8366834,5.56843954 24.3844221,5.37766565 24.0829146,5.37766565 C19.6356784,5.33951088 15.1884422,5.33951088 10.741206,5.37766565 C10.4396985,5.37766565 10.0251256,5.56843954 9.79899497,5.83552298 C8.70603015,7.1327854 7.68844221,8.46820259 6.59547739,9.84177456 C11.8718593,16.4807058 17.1482412,23.0814822 22.5376884,29.8348777 L26.5338411,24.8330249 L26.5338411,24.8330249 L34.4837469,14.8436274 C35.8110867,13.1779329 37.1419598,11.5110461 38.4798995,9.84177456 C35.9547739,6.63677329 33.4296482,3.4699268 30.8291457,0.188615979 C31.1306533,0.150461202 31.3567839,0.0741516477 31.620603,0.0741516477 C32.8266332,0.0741516477 34.0326633,0.188615979 35.201005,0.0359968707 C36.7085427,-0.154777014 37.6507538,0.417544641 38.5175879,1.63849751 Z M121.010125,10.5077151 C123.668017,11.4523666 124.807113,13.606172 124.921023,16.2511963 C125.072902,19.4630115 124.958993,22.6748266 124.958993,25.9622139 C123.668017,26 122.377041,26 121.010125,26 L121.010125,16.7424151 L121.010125,16.7424151 C120.934186,14.853112 119.833059,13.7573163 118.048475,13.7573163 C116.301861,13.7573163 114.972915,15.0420424 114.972915,16.8179872 C114.934945,19.5007975 114.972915,22.1458218 114.972915,24.8286321 L114.972915,26 L114.972915,26 L110.986078,26 L110.986078,26 L110.986078,22.4858963 L110.986078,22.4858963 C110.948108,20.4454491 111.062017,18.3672157 110.872168,16.3267684 C110.682319,14.0596048 108.214277,13.0015951 106.315783,14.2485351 C105.214656,14.9664702 104.872927,16.0244799 104.872927,17.2714199 L104.872927,26 L104.872927,26 L101,26 L101,26 L101,10.5455011 L101,10.5455011 L104.683078,10.5455011 L104.683078,10.5455011 C104.721048,10.9233617 104.721048,11.3012223 104.759018,11.8680132 C106.049994,10.5455011 107.492849,9.94092414 109.201493,10.0542823 C110.910138,10.1676405 112.315023,10.8477896 113.41615,12.1325157 C113.530059,12.0947296 113.643969,12.0947296 113.681939,12.0191575 C115.770282,9.86535202 118.314264,9.56306353 121.010125,10.5077151 Z M156.150068,10.4103604 C158.486499,11.2428169 159.788772,13.0969245 159.903678,15.4050993 C160.095189,18.886281 159.94198,22.4053015 159.94198,25.9621611 L156.035162,25.9621611 L156.035162,25.9621611 C156.035162,22.8215298 156.073464,19.7944153 156.035162,16.7294619 C155.996859,14.3834481 154.005148,13.0969245 151.860228,13.9672199 C150.557955,14.4969649 149.945121,15.5186161 149.945121,16.8808176 L149.945121,26 L149.945121,26 L146,26 L146,26 L146,10.5238772 L146,10.5238772 L149.715308,10.5238772 L149.715308,10.5238772 C149.75361,10.9401054 149.75361,11.2806558 149.791912,11.696884 C149.906819,11.6590451 150.021725,11.6590451 150.098329,11.6212062 C151.860228,9.88061535 153.928544,9.65358176 156.150068,10.4103604 Z M176,10 L176,26 L176,26 L172,26 L172,26 L172,10 L172,10 L176,10 L176,10 Z M81,10 L81,26 L81,26 L77,26 L77,26 L77,10 L77,10 L81,10 L81,10 Z M64.5446783,5 C70.9544592,5 74.4088321,8.07881486 74.946179,14.3490841 C75.1380886,16.6769685 74.8310333,18.9297599 73.7947214,20.9948187 C72.2594445,24.036087 69.6494738,25.688134 66.2718647,25.8758666 C62.8942556,26.1011457 59.5550285,25.9509596 56.1006555,25.9509596 L56.1006555,10.1438736 L56.1006555,10.1438736 L60.0539934,10.1438736 L60.0539934,10.1438736 L60.0539934,21.3702839 L60.0539934,21.3702839 C60.0539934,22.0836678 60.245903,22.3464935 60.9751596,22.3089469 C62.2801449,22.2714004 63.5467483,22.3089469 64.8517336,22.3089469 C68.3061066,22.3089469 70.2252027,20.8821791 70.7241677,17.502992 C70.9544592,15.9260381 70.9160773,14.2364446 70.6090219,12.6594906 C70.071675,9.99368751 68.1525789,8.6420127 65.3506986,8.6420127 C61.2054511,8.60446618 57.0602035,8.60446618 52.914956,8.6420127 C52.2240814,8.6420127 51.7634984,8.49182661 51.3412972,7.92862877 C50.6504226,6.9899657 49.8444023,6.08884916 49,5 L64.5446783,5 L64.5446783,5 Z M139.424443,9.58811492 C141.5926,10.332637 142.809811,12.1351642 142.847849,14.5254721 C142.885886,16.0145163 142.847849,17.5035605 142.847849,18.9926047 C142.885886,21.1869856 142.961962,23.3813666 143,25.6541183 C142.12513,25.6541183 141.098108,25.7716744 140.109124,25.6149329 C139.728745,25.5365622 139.424443,24.8312254 139.082102,24.4001863 C136.799831,26.2810843 134.099144,26.359455 131.322382,25.3798207 C129.76283,24.8312254 128.659732,23.734035 128.203278,22.0882492 C127.518597,19.5020146 128.583657,17.346819 131.094155,16.5631115 C132.577631,16.092887 134.213258,16.0145163 135.772809,15.7010333 C136.609642,15.5442918 137.484512,15.3875503 138.245269,15.0348819 C139.310329,14.5646574 139.310329,13.467467 138.321345,12.8013156 C136.723756,11.7824959 134.023069,12.2919057 132.881933,13.8201353 C132.691744,14.0552476 132.387441,14.3295452 132.121176,14.3295452 C130.903965,14.4079159 129.800868,14.3687306 128.583657,14.3687306 C129.040111,11.9392374 130.409473,10.5285639 132.425479,9.70567104 C134.70775,8.76522207 137.066096,8.80440744 139.424443,9.58811492 Z M166.909871,6 L166.909871,10.0079597 L166.909871,10.0079597 L169.76824,10.0079597 L169.76824,10.0079597 L169.76824,13.5534626 L169.76824,13.5534626 L167.025751,13.5534626 L167.025751,13.5534626 C167.025751,15.8657471 166.948498,18.0624173 167.064378,20.2590875 C167.141631,21.5693821 167.875536,21.9933009 170,22.3786816 L170,25.7700322 L170,25.7700322 C166.832618,26.7720221 163.433476,24.3826615 163.04721,20.8756967 C162.854077,19.1029453 162.93133,17.3301939 162.854077,15.5574425 L162.854077,13.5920007 L162.854077,13.5920007 C162.158798,13.5534626 161.618026,13.5149245 161,13.5149245 L161,10.0850359 L161,10.0850359 C161.579399,10.0464978 162.120172,10.0079597 162.815451,9.96942167 L162.815451,6 L162.815451,6 L166.909871,6 L166.909871,6 Z M94.7287447,9.7617645 C96.8208266,10.5862979 97.733735,12.3531553 97.8098107,14.6304381 C97.8478486,16.1617145 97.8098107,17.6929909 97.8098107,19.2242673 C97.8858864,21.2659692 97.9239243,23.386198 98,25.6242173 C97.1251294,25.6242173 96.0600695,25.7420078 95.0710854,25.5849538 C94.8491979,25.5391464 94.6531973,25.2795711 94.4679829,24.9854811 L94.311517,24.7291323 C94.2342526,24.6009124 94.1581769,24.4757601 94.0821012,24.3677854 C91.6476787,26.2916968 88.9089533,26.4094873 86.0561144,25.2708459 C83.7358054,24.3285219 82.6707455,22.2082931 83.0891619,19.6954293 C83.3554269,18.0463624 84.4204868,16.986248 85.8659251,16.593613 C87.4254771,16.1617145 89.0230669,16.0046605 90.6206567,15.6905526 C91.4194516,15.5334986 92.2562843,15.4157081 93.0170414,15.1016001 C93.4354577,14.9445461 93.891912,14.3555937 93.891912,13.9629587 C93.891912,13.5703237 93.4734956,12.9813713 93.0931171,12.7457903 C91.4194516,11.7249394 88.9089533,12.3531553 87.691742,13.9629587 C87.5395906,14.1592762 87.19725,14.3555937 86.9690229,14.3555937 C85.903963,14.3948572 84.8389031,14.3555937 83.6216919,14.3555937 C83.6597297,14.0022222 83.6977676,13.6881142 83.7738433,13.4132697 C84.2683353,11.8819933 85.2573195,10.7433519 86.6266822,10.0758725 C89.2893318,8.74091357 92.0280572,8.66238658 94.7287447,9.7617645 Z M139.044064,18.0913411 C137.864891,18.3656387 136.723756,18.600751 135.544582,18.8750486 C134.821863,19.0317901 134.099144,19.1101608 133.414463,19.2669023 C132.653706,19.4628292 131.969025,19.8938683 132.045101,20.8343173 C132.083139,21.7355809 132.805858,22.0882492 133.528577,22.2058054 C134.327371,22.3233615 135.164204,22.3625469 136.001037,22.2841761 C138.473496,21.9706931 139.386405,20.6775758 139.044064,18.0913411 Z M94.0821012,18.0463624 C92.6366628,18.3212069 91.2673002,18.5567879 89.8979375,18.8316323 C89.3273697,18.9494228 88.6807262,18.9494228 88.224272,19.2635308 C87.7297799,19.5776388 87.1211743,20.2058547 87.1211743,20.6770167 C87.1211743,21.1481787 87.8058556,21.8941851 88.3003477,22.0119756 C89.2893318,22.2475566 90.3543917,22.2868201 91.3433759,22.1297661 C93.625647,21.6978676 94.4244419,20.4414357 94.0821012,18.0463624 Z M176,4 L176,8 L176,8 L172,8 L172,8 L172,4 L172,4 L176,4 L176,4 Z M81,4 L81,8 L81,8 L77,8 L77,8 L77,4 L77,4 L81,4 L81,4 Z" id="Diamanti-LOGO" fill="#506271" fill-rule="nonzero"></path>
    </g>
</svg>