<?xml version="1.0" encoding="UTF-8"?>
<svg width="186px" height="46px" viewBox="0 0 186 46" version="1.1" xmlns="http://www.w3.org/2000/svg" xmlns:xlink="http://www.w3.org/1999/xlink">
    <title>logo / portfolio / doximity</title>
    <g id="logo-/-portfolio-/-doximity" stroke="none" stroke-width="1" fill="none" fill-rule="evenodd">
        <path d="M184.843896,16 C185.838807,16 186.231535,16.5899095 185.864989,17.555216 L181.256979,29.7019896 L181.256979,29.7019896 C179.895522,33.321889 178.534064,36.9149744 177.120243,40.5080597 C176.51806,42.0632758 175.706422,43.5380496 174.397329,44.6374265 C173.507145,45.3882204 172.512234,45.8172455 171.386413,45.9245018 C169.553682,46.1122003 167.720951,45.97813 165.992948,45.2005219 C165.233674,44.8787531 165.050401,44.3960998 165.364583,43.6184918 C165.60022,43.0822104 165.835857,42.5727431 166.071494,42.0632758 C166.411858,41.3392959 166.778404,41.1784115 167.537678,41.4465522 C168.427862,41.7415069 169.344227,41.9560195 170.286775,41.768321 C171.674414,41.4733662 172.302779,40.3739894 172.852598,39.1941703 C172.957326,38.9796578 172.826416,38.7919593 172.747871,38.5774467 C169.920229,31.6594167 167.092587,24.7682008 164.264944,17.8501708 C164.186399,17.6356583 164.081671,17.4211457 164.029308,17.2066331 C163.898398,16.5899095 164.212581,16.0536281 164.840946,16.0268141 C165.992948,16 167.118768,16 168.270771,16.0268141 C168.736002,16.0268141 168.938796,16.3723824 169.101214,16.7386257 L169.187136,16.9384924 L169.187136,16.9384924 C170.417684,20.236623 171.648232,23.5347536 172.87878,26.8328842 C173.664236,28.9780097 174.475874,31.1231353 175.339876,33.4023313 C175.601695,32.7051654 175.81115,32.1152559 175.994423,31.5521604 C177.643881,26.7256279 179.319521,21.8722813 180.968979,17.0457487 C181.291429,16.1312478 181.402394,16.0109187 182.259124,16.0007858 L184.843896,16 L184.843896,16 Z M50.4883691,15.1401203 C56.1305254,14.3582711 61.3365731,16.8925408 63.735171,21.6375565 C67.3875814,28.8898815 62.7539264,37.6789445 54.6586586,38.8112778 C53.8954683,38.9191191 53.1595349,38.9460794 52.5326286,39 C46.781445,38.9730397 42.0387629,35.5760399 40.5123824,30.4805401 C38.3863525,23.4169373 43.1017778,16.1646123 50.4883691,15.1401203 Z M142.903743,16.0119917 C143.73262,16.0119917 144,16.3087852 144,17.1452033 L144,37.7318822 L144,37.7318822 C144,38.7301877 143.759358,39 142.770053,39 L140.229947,39 L140.229947,39 C139.294118,39 139,38.7301877 139,37.7858446 L139,17.1182221 L139,17.1182221 C139,16.3357664 139.320856,16.0389729 140.096257,16.0119917 C141.032086,15.9850104 141.967914,16.0119917 142.903743,16.0119917 Z M153.795492,9 C154.505426,9 154.820952,9.35243762 154.820952,10.0844234 C154.820952,11.6568374 154.847245,13.2292514 154.820952,14.8016654 C154.820952,15.3167666 154.978715,15.4523195 155.478297,15.4523195 C156.950751,15.4252089 158.396912,15.4252089 159.869366,15.4523195 C160.710768,15.4523195 161,15.750536 161,16.6180747 L161,18.6784793 L161,18.6784793 C161,19.3833545 160.65818,19.7357921 159.948247,19.7357921 C158.449499,19.7357921 156.950751,19.7629027 155.42571,19.7357921 C154.952421,19.7357921 154.820952,19.8713451 154.820952,20.3593356 C154.847245,23.9921542 154.820952,27.5978621 154.820952,31.2306807 C154.820952,33.7790758 156.18823,34.6737251 158.449499,34.4568404 C158.8702,34.4297299 159.264608,34.2941769 159.685309,34.2399557 C160.421536,34.1315134 160.868531,34.4568404 160.921119,35.2430474 C160.973706,35.8937015 160.947412,36.5443556 160.921119,37.1678991 C160.894825,37.628779 160.684474,37.9812166 160.237479,38.1709907 C157.792154,39.201193 155.320534,39.3096354 152.875209,38.2794331 C151.113523,37.5474473 150.351002,36.0021439 150.035476,34.158624 C149.904007,33.4808593 149.904007,32.8030947 149.904007,32.0982194 C149.877713,30.3360313 149.877713,28.5467326 149.877713,26.7845445 L149.877713,20.332225 L149.877713,20.332225 C149.877713,19.8984557 149.772538,19.7086815 149.325543,19.7357921 C148.878548,19.7629027 148.405259,19.7629027 147.958264,19.7357921 C147.3798,19.7086815 147.011686,19.3562439 147.011686,18.7869216 C146.985392,18.0007146 147.011686,17.187397 147.011686,16.40119 C147.011686,15.8047571 147.327212,15.4794301 147.905676,15.4523195 C148.352671,15.4252089 148.773372,15.4252089 149.220367,15.4523195 C149.71995,15.5065407 149.904007,15.3438772 149.904007,14.7745549 C149.877713,13.256362 149.877713,11.7110586 149.904007,10.1928658 C149.904007,9.35243762 150.219533,9.02711059 151.034641,9 L153.795492,9 L153.795492,9 Z M36.8115363,7 C37.648863,7.02661806 38,7.37265283 38,8.1711946 L38,8.1711946 L38,37.3445874 C38,38.1697472 37.6758735,38.4891639 36.8385468,38.4891639 L36.8385468,38.4891639 L34.0564612,38.4891639 C33.2191345,38.4625459 32.895008,38.1431292 32.895008,37.3179693 L32.895008,37.3179693 L32.895008,34.4166009 C32.0846919,35.5345594 31.2743757,36.4661915 30.3019963,37.1848791 C27.1957842,39.5272683 22.7120347,39.6071224 19.2546856,37.3978235 C16.067442,35.374851 14.4738201,32.3936284 14.0956726,28.7469543 C13.7715461,25.5794053 14.2307253,22.5449465 16.0944525,19.8299045 C19.0656118,15.4911609 25.1159727,13.9739315 29.5186906,16.476029 C30.1939541,16.8486819 30.788186,17.3011889 31.3283968,17.806932 C31.8686075,18.3126751 32.3547973,18.8716544 32.8139764,19.4838697 C32.9760397,19.2443072 32.895008,19.0313627 32.895008,18.8450363 L32.895008,18.8450363 L32.895008,8.38413907 C32.895008,7.29279865 33.192124,7 34.2995561,7 L34.2995561,7 Z M82.141863,16.0022364 C82.8990157,16.0291288 83.6822771,16.0291288 84.4394298,16.0022364 C84.883278,16.0022364 85.3271261,16.0291288 85.5359958,16.5131909 C85.7448655,16.9703608 85.5882132,17.3737459 85.3271261,17.7502387 C83.238429,20.7083963 81.1758406,23.6665539 79.0610348,26.5978192 C78.7216216,27.054989 78.7477303,27.3508048 79.0871436,27.7810822 C81.2802755,30.8737016 83.4472987,33.9663209 85.6143219,37.0589402 C85.9015178,37.4623254 86.1626049,37.8657105 85.8754091,38.4035573 C85.6143219,38.9145118 85.1704738,38.9145118 84.700517,38.8876195 L83.4995161,38.8876195 L83.4995161,38.8876195 C81.959102,39.317897 81.1497319,38.457342 80.3925792,37.2471866 C79.7398614,36.1849391 79.0479805,35.149584 78.3463088,34.1209519 L76.938614,32.0666758 C76.7047235,31.7237984 76.4719208,31.380174 76.2412938,31.0350556 C76.0063154,30.6585628 75.8757718,30.5509935 75.588576,31.0081633 C74.0220532,33.4015817 72.4033129,35.7412155 70.8367901,38.1346339 C70.4712681,38.6993731 70.0796374,38.9682965 69.4008109,38.9145118 C68.6436582,38.8607272 67.8603968,38.8876195 67.1032441,38.9145118 C66.6855047,38.9145118 66.3199827,38.8338348 66.111113,38.4304497 C65.9022433,38.0001722 66.0066781,37.6236794 66.2677653,37.2471866 C67.7037445,35.230261 69.113615,33.186443 70.5234855,31.1695173 C71.3328557,30.040039 72.1161171,28.8836683 72.9254872,27.7541899 C73.1865743,27.4045895 73.212683,27.1625584 72.9515959,26.7860656 C70.8367901,23.827908 68.7742017,20.842858 66.6855047,17.857808 C66.3983088,17.4544229 66.1372217,17.0510378 66.3983088,16.5131909 C66.659396,16.0022364 67.1032441,16.0022364 67.5732009,16.0022364 C68.3564623,16.0022364 69.1397237,16.0291288 69.9490939,16.0022364 C70.4973768,15.9753441 70.8628988,16.1904828 71.1762034,16.674545 L75.6669021,23.3707382 L75.6669021,23.3707382 C75.9802067,23.827908 76.1107502,23.8010156 76.3979461,23.3707382 C77.8861427,21.1386738 79.4004481,18.9066094 80.8886448,16.674545 C81.2019494,16.1904828 81.5674713,15.9753441 82.141863,16.0022364 Z M92.8502674,15 C93.7593583,15 94,15.2432432 94,16.1891892 L94,36.7567568 L94,36.7567568 C94,37.7837838 93.7593583,38 92.7433155,38 L90.2032086,38 L90.2032086,38 C89.2941176,38 89,37.6756757 89,36.7567568 L89,16.1891892 L89,16.1891892 C89,15.2972973 89.2941176,15 90.1764706,15 L92.8502674,15 L92.8502674,15 Z M130.836527,16.3343203 C132.545871,17.5482317 133.400543,19.2371519 133.774462,21.2427447 C133.961421,22.1663729 133.98813,23.0900012 133.98813,23.98724 C134.014838,28.1567618 133.98813,32.3262836 133.98813,36.5221948 C133.98813,37.7361062 133.747753,38 132.492454,38 L130.195523,38 L130.195523,38 C129.207309,38 128.913515,37.7097168 128.913515,36.7333098 L128.913515,25.4650452 L128.913515,25.4650452 C128.913515,24.6469745 128.860098,23.8289038 128.673139,23.0372224 C128.138969,20.8996828 126.69671,19.659382 124.586739,19.5010457 C122.2631,19.3427094 120.31338,20.4510633 119.512125,22.4038773 C119.164914,23.2747268 118.977955,24.1719657 118.977955,25.0955939 L118.977955,36.4958054 L118.977955,36.4958054 C118.977955,37.788885 118.764287,38 117.482279,38 L115.265474,38 L115.265474,38 C114.170426,38 113.983466,37.788885 113.983466,36.7069205 L113.983466,25.7025496 L113.983466,25.7025496 C113.983466,24.752532 113.930049,23.8289038 113.662964,22.9052755 C113.02196,20.7941252 111.579702,19.6066032 109.523147,19.5010457 C107.226217,19.3954882 105.410039,20.4510633 104.555367,22.4038773 C104.181448,23.3011162 103.994489,24.2511338 103.994489,25.2275408 L103.994489,36.7333098 L103.994489,36.7333098 C103.994489,37.7361062 103.727404,38 102.712481,38 L100.041631,38 L100.041631,38 C99.320502,38 99,37.6833275 99,36.9708142 L99,16.5718247 L99,16.5718247 C99,15.8329221 99.2937935,15.5426389 100.041631,15.5426389 L102.979566,15.5426389 L102.979566,15.5426389 C103.673987,15.5426389 103.994489,15.8329221 103.994489,16.5454353 C104.021197,17.3371167 103.994489,18.1551874 103.994489,18.9468688 C105.864083,16.6246035 108.027472,14.988462 111.179074,15.0148514 C114.303968,15.0148514 116.654316,16.2815415 118.149992,19.105205 C118.630744,18.4454706 119.164914,17.917683 119.699084,17.3898954 C122.663727,14.4078957 128.11226,14.4078957 130.836527,16.3343203 Z M25.9532994,19.6701961 C23.3602876,19.6968142 21.3615077,20.8413907 20.1460334,23.1039258 C18.7144748,25.7657317 18.7144748,28.5340098 20.1190229,31.1958157 C22.0907923,34.922344 26.9256788,35.9072122 30.2209646,33.2454063 C32.1387129,31.6749408 32.9220186,29.5987322 32.9760397,27.6822319 C32.9760397,25.7657317 32.6519132,24.3549746 31.9496392,23.1571619 C30.6261227,20.8680088 28.6273428,19.6435781 25.9532994,19.6701961 Z M55.4491056,20.0199375 C52.9142237,18.9145645 50.3793419,19.1032868 48.117028,20.7209057 C45.854714,22.3385247 45.0915238,24.6840722 45.1460374,27.3531435 C45.2550646,31.4241512 48.4986231,34.6054685 53.2685621,34.6054685 C55.530876,34.5245875 57.7659331,33.2304924 59.101516,30.5614211 C59.7829359,29.1594846 59.9737334,27.6227466 59.7556791,26.0590483 C59.4285975,23.2821357 58.0657578,21.1522708 55.4491056,20.0199375 Z M21.1630268,8.03324104 C21.2976552,8.03324104 21.4322835,8.05984439 21.5399863,8.08644774 C21.809243,8.1662578 22.0246485,8.3258779 21.9977228,8.61851475 C21.9707971,8.88454826 21.728466,8.91115161 21.5130606,8.93775496 C19.3590064,9.09737506 17.4203576,9.89547557 15.6432628,11.0926263 C12.4121815,13.2474977 9.82731644,15.9610395 8.40025552,19.6323018 C8.15792442,20.2175755 7.99637036,20.8294526 7.91559332,21.467933 C7.88866765,21.7073631 7.86174197,22 7.48478248,22 C7.13474867,21.9733966 7,21.7339665 7,21.4413296 L7,20.0047487 L7,20.0047487 C6.9731946,13.9125815 11.4697828,8.91115161 17.5819116,8.11305109 C18.7935671,7.98003434 19.978297,7.98003434 21.1630268,8.03324104 Z M17.0478098,0.012072254 C17.7992764,0.012072254 18.5775811,-0.0422528889 19.3558858,0.0935599682 C19.7584572,0.175047682 20,0.338023111 20,0.745461682 C20,1.2072254 19.6511048,1.18006282 19.3558858,1.2072254 C14.9812767,1.64182654 11.4386485,3.84199482 8.24491552,6.72122739 C5.77581102,8.94855825 3.76295409,11.5290025 2.39421137,14.5712105 C1.85744953,15.7663637 1.45487814,17.015842 1.26701149,18.3196454 C1.21333531,18.6184337 1.18649721,19.0258722 0.730249644,18.9987097 C0.327678257,18.9715471 0.13981161,18.727084 0.0861354257,18.3196454 C-0.235921683,14.8156737 0.327678257,11.4746774 2.07215426,8.40530682 C4.83647778,3.48888139 9.07689639,0.772624253 14.6055434,0.12072254 C14.8739243,0.0935599682 15.1423053,0.0392348254 15.4375243,0.012072254 C15.9742861,-0.0150903175 16.511048,0.012072254 17.0478098,0.012072254 Z M141.486631,9 C142.877005,9 144,10.0962567 144,11.486631 C144,12.9037433 142.903743,14 141.513369,14 C140.096257,14 139,12.9037433 139,11.513369 C139,10.1229947 140.096257,9 141.486631,9 Z M91.5403371,9.00047878 C92.9573168,9.02721156 94,10.096523 94,11.5400934 C94,12.956931 92.9038459,14.0262424 91.4868661,13.9995096 C90.0966219,13.9727768 88.9737322,12.8767326 89.0004677,11.459895 C89.0272032,10.0697902 90.1500928,8.97374599 91.5403371,9.00047878 Z" id="Combined-Shape" fill="#506271" fill-rule="nonzero"></path>
    </g>
</svg>