<?xml version="1.0" encoding="UTF-8"?>
<svg width="210px" height="34px" viewBox="0 0 210 34" version="1.1" xmlns="http://www.w3.org/2000/svg" xmlns:xlink="http://www.w3.org/1999/xlink">
    <title>logo / portfolio / elation</title>
    <g id="logo-/-portfolio-/-elation" stroke="none" stroke-width="1" fill="none" fill-rule="evenodd">
        <path d="M45.6870229,17.2 C47.7910305,17.2 49.7948473,18.2 50.6965649,19.8 L50.7967557,17.6 L54.6040076,17.6 L54.6040076,33.5 L50.8969466,33.5 L50.6965649,31.2 C49.7948473,33.1 47.2900763,34 45.5868321,34 C40.8778626,34 37.3711832,31.1 37.3711832,25.5 C37.3711832,20 40.9780534,17.1 45.6870229,17.2 Z M146.078244,17.4 C150.586832,17.4 154.494275,20.1 153.89313,26.4 L139.56584,26.4 C139.866412,30.1 142.771947,32.3 146.078244,32.3 C148.182252,32.3 150.586832,31.5 151.789122,29.9 L152.891221,30.8 C151.388359,32.8 148.583015,33.9 146.078244,33.9 C141.569656,33.8 137.962786,30.6 137.962786,25.6 C137.962786,20.8 141.569656,17.4 146.078244,17.4 Z M165.114504,17.5 C167.719466,17.5 170.324427,18.7 171.626908,21.2 L171.626908,17.7 L173.229962,17.6 L173.229962,33.6 L173.229962,33.6 L171.626908,33.6 L171.626908,30.2 C170.124046,32.7 167.719466,33.9 165.114504,33.9 C160.706107,33.9 156.999046,30.5 156.999046,25.7 C156.999046,20.9 160.605916,17.5 165.114504,17.5 Z M85.5629771,17.3 C90.6727099,17.3 93.8788168,21 93.8788168,25.6 C93.8788168,30.2 90.7729008,33.9 85.5629771,33.9 C80.3530534,33.9 77.3473282,30.2 77.3473282,25.6 C77.3473282,21 80.4532443,17.3 85.5629771,17.3 Z M63.4208015,13.1 L63.4208015,17.6 L67.8291985,17.6 L67.8291985,21 L63.4208015,21 L63.4208015,27.9 C63.4208015,29.4 64.2223282,30.2 65.5248092,30.2 C66.1259542,30.2 66.8272901,30 67.4284351,29.7 L68.5305344,33.1 C67.4284351,33.6 66.4265267,33.7 65.3244275,33.8 C61.9179389,33.9 59.6135496,32 59.6135496,28 L59.6135496,21 L56.6078244,21 L56.6078244,17.6 L59.6135496,17.6 L59.6135496,13.5 L63.4208015,13.1 Z M187.156489,12.8 L187.156489,17.6 L192.566794,17.6 L192.566794,18.9 L187.156489,18.9 L187.156489,28.6 C187.156489,30.8 187.557252,32.3 190.062023,32.3 C190.86355,32.3 191.665076,32 192.466603,31.7 L192.967557,33 C191.965649,33.5 190.96374,33.8 189.961832,33.8 C186.555344,33.8 185.453244,31.8 185.453244,28.7 L185.453244,19 L182.046756,19 L182.046756,17.7 L185.453244,17.7 L185.453244,13 L187.156489,12.8 Z M118.125,10.9 L118.125,21.7 L132.45229,21.7 L132.45229,10.9 L134.155534,10.9 L134.155534,33.5 L132.45229,33.5 L132.45229,23.3 L118.125,23.3 L118.125,33.6 L116.421756,33.6 L116.421756,10.9 L118.125,10.9 Z M34.7662214,11 L34.7662214,33.6 L30.8587786,33.6 L30.8587786,11 L34.7662214,11 Z M74.5419847,17.6 L74.5419847,33.6 L70.634542,33.6 L70.634542,17.6 L74.5419847,17.6 Z M105.601145,17.3 C109.308206,17.3 112.313931,20.1 112.313931,25.1 L112.313931,33.5 L108.306298,33.5 L108.306298,25.2 C108.306298,22.8 107.003817,20.9 104.499046,20.9 C102.094466,20.9 100.491412,22.9 100.491412,25.4 L100.491412,33.5 L96.5839695,33.5 L96.5839695,17.5 L100.090649,17.5 L100.391221,19.7 C101.994275,18.1 103.597328,17.3 105.601145,17.3 Z M197.676527,10.9 L197.676527,20.5 C198.979008,18.2 201.183206,17.3 203.387405,17.3 C207.795802,17.3 210,20.2 210,24.3 L210,33.4 L208.497137,33.4 L208.497137,24.3 C208.497137,21 206.994275,18.8 203.387405,18.8 C200.081107,18.8 197.676527,21.4 197.676527,24.7 L197.676527,33.5 L196.173664,33.5 L196.173664,10.9 L197.676527,10.9 Z M27.8530534,10.9 L27.8530534,15 L15.2290076,15 L15.2290076,20.2 L27.4522901,20.2 L27.4522901,24.2 L15.2290076,24.2 L15.2290076,29.3 L27.8530534,29.3 L27.8530534,33.5 L11.0209924,33.5 L11.0209924,10.9 L11.0209924,10.9 L27.8530534,10.9 Z M179.141221,10.9 L179.141221,33.5 L177.538168,33.5 L177.538168,10.9 L179.141221,10.9 Z M158.70229,25.6 C158.70229,29.6 161.607824,32.3 165.214695,32.3 C174.031489,32.3 174.031489,19 165.214695,19 C161.607824,18.9 158.70229,21.6 158.70229,25.6 Z M45.9875954,20.7 C43.2824427,20.7 41.278626,22.5 41.278626,25.6 C41.278626,28.6 43.3826336,30.4 45.9875954,30.4 C52.1994275,30.4 52.1994275,20.7 45.9875954,20.7 Z M85.6631679,20.9 C82.7576336,20.9 81.3549618,23.2 81.3549618,25.6 C81.3549618,28 82.7576336,30.3 85.6631679,30.3 C88.5687023,30.3 89.971374,28 89.971374,25.6 C89.971374,23.2 88.2681298,20.9 85.6631679,20.9 Z M146.078244,18.8 C142.771947,18.8 139.966603,21 139.56584,24.9 L152.490458,24.9 C152.490458,21 149.885496,18.8 146.078244,18.8 Z M8.61641221,15 L9.51812977,15.9 C9.81870229,16.2 9.81870229,16.6 9.51812977,16.9 L5.00954198,21.2 C4.70896947,21.5 4.30820611,21.5 4.00763359,21.2 L3.10591603,20.3 C2.80534351,20 2.80534351,19.6 3.10591603,19.4 L7.61450382,15 C7.91507634,14.7 8.31583969,14.7 8.61641221,15 Z M74.9427481,13.1 C74.9427481,16.2 70.3339695,16.2 70.3339695,13.1 C70.3339695,10 74.9427481,10.1 74.9427481,13.1 Z M6.91316794,10.9 C7.3139313,10.9 7.61450382,11.2 7.61450382,11.6 L7.61450382,12.8 C7.61450382,13.2 7.3139313,13.5 6.91316794,13.5 L0.701335878,13.5 C0.300572519,13.5 -4.57411886e-14,13.2 -4.57411886e-14,12.8 L-4.57411886e-14,11.6 C-4.57411886e-14,11.2 0.300572519,10.9 0.701335878,10.9 L6.91316794,10.9 Z M20.3387405,3.2 L21.240458,4.1 C21.5410305,4.4 21.5410305,4.8 21.240458,5.1 L16.8320611,9.4 C16.5314885,9.7 16.1307252,9.7 15.8301527,9.4 L14.9284351,8.5 C14.6278626,8.2 14.6278626,7.8 14.9284351,7.6 L19.3368321,3.2 C19.6374046,2.9 20.0381679,2.9 20.3387405,3.2 Z M5.00954198,3.1 L9.41793893,7.5 C9.71851145,7.8 9.71851145,8.2 9.41793893,8.5 L8.51622137,9.4 C8.21564885,9.7 7.8148855,9.7 7.51431298,9.4 L3.20610687,5 C2.90553435,4.7 2.90553435,4.3 3.20610687,4 L4.10782443,3.1 C4.40839695,2.8 4.80916031,2.8 5.00954198,3.1 Z M12.8244275,-3.10862447e-15 C13.2251908,-3.10862447e-15 13.5257634,0.3 13.5257634,0.7 L13.5257634,6.9 C13.5257634,7.3 13.2251908,7.6 12.8244275,7.6 L11.6221374,7.6 C11.221374,7.6 10.9208015,7.3 10.9208015,6.9 L10.9208015,0.7 C10.9208015,0.3 11.221374,-3.10862447e-15 11.6221374,-3.10862447e-15 L12.8244275,-3.10862447e-15 Z" id="Elation-LOGO" fill="#506271" fill-rule="nonzero"></path>
    </g>
</svg>