<?xml version="1.0" encoding="UTF-8"?>
<svg width="184px" height="42px" viewBox="0 0 184 42" version="1.1" xmlns="http://www.w3.org/2000/svg" xmlns:xlink="http://www.w3.org/1999/xlink">
    <title>logo / portfolio / forward</title>
    <g id="logo-/-portfolio-/-forward" stroke="none" stroke-width="1" fill="none" fill-rule="evenodd">
        <path d="M44.8487397,22.2180922 L50.584,25.198 L51,25 L51,29.5834073 L50.999,29.584 L51,30 L50.581,29.783 L25.999,41.523 L25.999457,41.7546342 L25.8130213,42 L25.408,41.805 L25,42 L25,41.609 L13.3001072,35.9814522 C13.2952201,35.9849495 13.2906497,35.988861 13.2859662,35.9927725 L13.2711463,36.0040929 C11.3818103,37.315594 8.80429122,36.8215492 7.51390262,34.900223 C6.22441904,32.9788969 6.71005695,30.3575512 8.59939294,29.0454979 C9.31382186,28.5494283 10.1267178,28.3114254 10.9312875,28.3114254 C12.2540761,28.3114254 13.554239,28.9545671 14.3566366,30.1495517 C14.7754835,30.773182 15.0039125,31.4715449 15.0612913,32.1745095 L15.0612913,32.1745095 L25.425,37.183 L45.979,27.392 L40.2548203,24.4176912 L44.8487397,22.2180922 Z M10.9785313,30.0989835 L10.815806,30.0987483 C9.50460172,30.1412686 8.47540413,31.2565507 8.51721641,32.5903244 C8.55776166,33.8975919 9.61302405,34.9291221 10.8898372,34.9291221 C10.91554,34.9291221 10.9412428,34.928754 10.9669456,34.9278336 C12.2788739,34.8851293 13.3075284,33.769663 13.2662592,32.4360735 C13.2242659,31.1026679 12.1270102,30.0556759 10.815806,30.0987483 Z M151.114853,26 C151.652279,26 152.112931,26.1732002 152.49735,26.5199483 C152.88195,26.8666965 153.073888,27.2835246 153.073888,27.7695633 L153.073888,27.7695633 L153.073888,28.949446 C153.073888,29.2285487 152.988241,29.469916 152.816402,29.6737219 C152.645106,29.8777016 152.413513,30.0827247 152.122165,30.2903562 C152.548051,30.340786 152.812961,30.5755453 152.91726,30.9946341 C153.021558,31.4137229 153.073888,32.082526 153.073888,33 L153.073888,33 L151.114853,33 C151.114853,32.3906693 151.058539,31.942366 150.946816,31.6561336 C150.835094,31.3692055 150.684984,31.2257415 150.498659,31.2257415 L150.498659,31.2257415 L146.691767,31.2257415 L146.691767,33 L144.732369,33 L144.732369,26 Z M109.395846,26 L111.713227,31.7742088 L113.336733,26 L115.968276,26 L117.591783,31.7420381 L119.886891,26 L121.869105,26 L119.080751,32.9787847 L116.024409,32.9787847 L114.647344,28.1074427 L113.281144,32.9787847 L110.213394,32.9787847 L107.413995,26 L109.395846,26 Z M100.673529,26 L100.673529,27.881726 L97.6506852,27.881726 L97.6506852,32.9787847 L95.4222118,32.9787847 L95.4222118,27.881726 L92.3881418,27.881726 L92.3881418,26 L100.673529,26 Z M135.887283,26 C136.425072,26 136.885361,26.1737219 137.269962,26.52047 C137.654562,26.8679137 137.846319,27.284568 137.846319,27.7713022 L137.846319,27.7713022 L137.846319,31.174964 C137.846319,31.668654 137.654562,32.0931336 137.269962,32.4470115 C136.885361,32.8015849 136.425072,32.9787847 135.887283,32.9787847 L135.887283,32.9787847 L130.512836,32.9787847 C129.982653,32.9787847 129.52345,32.8033239 129.135409,32.4522283 C128.747549,32.1018284 128.553257,31.6863914 128.553257,31.2067869 L128.553257,31.2067869 L128.553257,27.7713022 C128.553257,27.2776122 128.743747,26.8590451 129.124182,26.5152531 C129.505161,26.1719829 129.967986,26 130.512836,26 L130.512836,26 Z M85.6480374,26 L85.6480374,27.6130571 L80.1613247,27.6130571 L80.1613247,28.752596 L85.3342367,28.752596 L85.3342367,30.1503701 L80.1613247,30.1503701 L80.1613247,31.3659015 L85.6480374,31.3659015 L85.6480374,32.9787847 L78.2013836,32.9787847 L78.2013836,26 L85.6480374,26 Z M182.241775,26 C182.667298,26 183.029445,26.1363343 183.328217,26.4084811 C183.625178,26.6813236 183.775469,27.0108561 183.775469,27.397948 L183.775469,27.397948 L183.775469,28.0643166 L181.816252,28.0643166 C181.816252,27.8638148 181.752876,27.7026134 181.626124,27.5803647 C181.499373,27.4591593 181.302003,27.397948 181.032203,27.397948 L181.032203,27.397948 L178.34507,27.397948 C178.202927,27.397948 178.079978,27.4555075 177.97568,27.569757 C177.870838,27.684876 177.819051,27.8241665 177.819051,27.9890197 C177.819051,28.1969991 177.839331,28.3458538 177.880616,28.4354101 C177.921358,28.5254882 178.038693,28.5700055 178.233166,28.5700055 L178.233166,28.5700055 L182.038972,28.6879068 C182.636515,28.6879068 183.112739,28.8332836 183.467643,29.1235157 C183.822548,29.4142694 184,29.9352611 184,30.6880558 C184,31.5844885 183.797198,32.1905152 183.395214,32.5057882 C182.99142,32.8212352 182.383012,32.9787847 181.569992,32.9787847 L181.569992,32.9787847 L177.819051,32.9787847 C177.281262,32.9787847 176.820068,32.8405376 176.436192,32.5643911 C176.051591,32.2887663 175.859653,31.9607989 175.859653,31.5808367 L175.859653,31.5808367 L175.859653,30.7419635 L177.819051,30.7960451 C177.819051,31.0106325 177.872468,31.1954837 177.981474,31.3497292 C178.089394,31.5038009 178.22194,31.5808367 178.378931,31.5808367 L178.378931,31.5808367 L181.066607,31.5808367 C181.334596,31.5808367 181.564559,31.5145824 181.754687,31.381726 C181.944814,31.2488697 182.038972,31.089929 182.038972,30.9033388 C182.038972,30.7313559 181.971975,30.584414 181.837981,30.4621653 C181.703986,30.340786 181.539209,30.2795747 181.34546,30.2795747 L181.34546,30.2795747 L177.819051,30.1609778 C177.147268,30.1609778 176.652212,30.0056889 176.334971,29.6945894 C176.01773,29.3838376 175.859653,28.9776171 175.859653,28.4774929 L175.859653,28.4774929 L175.859653,27.3942962 C175.859653,27.0084215 176.04978,26.6794107 176.430578,26.4074378 C176.811014,26.1358126 177.273838,26 177.819051,26 L177.819051,26 Z M65.3592783,26 L69.3338449,31.6342227 L69.3338449,26 L71.2934239,26 L71.2934239,32.9787847 L67.900647,32.9787847 L63.9592169,27.3654295 L63.9592169,32.9787847 L62,32.9787847 L62,26 L65.3592783,26 Z M161.919155,26 L161.919155,28.5159239 L163.128546,28.5159239 L165.961262,26 L168.839066,26 L165.009901,29.3980971 L169.365628,32.9787847 L166.342241,32.9787847 L163.206951,30.3976499 L161.919155,30.3976499 L161.919155,32.9787847 L159.959938,32.9787847 L159.959938,26 L161.919155,26 Z M25.9969037,12 L25.996,12.422 L37.4051445,18.3506127 L32.8068658,20.5472659 L25.588,16.797 L5.026,27.407 L7.36149594,28.5253151 C7.36149594,28.5253151 6.74660316,29.0218082 6.24825659,29.9742808 L6.15636095,30.158203 C5.65226048,31.2162393 5.63488395,32.309249 5.63488395,32.309249 L5.63488395,32.309249 L0.417,29.785 L0,30 L0,25.4145194 L0.149,25.337 L0,25 L0.416,25.199 L25.002,12.513 L25.0023613,12.1599943 L25.1845414,12 L25.589,12.21 L25.9969037,12 Z M135.024829,27.7744324 L131.352475,27.7744324 C131.113639,27.7744324 130.913733,27.8472947 130.753121,27.993541 C130.592871,28.140309 130.512836,28.3173349 130.512836,28.5242709 L130.512836,28.5242709 L130.512836,30.4004323 C130.512836,30.6146718 130.592871,30.8024793 130.753121,30.9631589 C130.913733,31.1236647 131.113639,31.2045263 131.352475,31.2045263 L131.352475,31.2045263 L135.024829,31.2045263 C135.256423,31.2045263 135.457414,31.1255776 135.629977,30.9685497 C135.801454,30.8115218 135.887283,30.6218016 135.887283,30.4004323 L135.887283,30.4004323 L135.887283,28.5242709 C135.887283,28.3103791 135.805076,28.1310926 135.640842,27.988498 C135.476789,27.8455557 135.271271,27.7744324 135.024829,27.7744324 L135.024829,27.7744324 Z M45.5336966,10.5782383 L50.583,13.198 L51,13 L51,17.5835417 L50.869,17.645 L51,18 L50.582,17.783 L25.999,29.523 L25.999457,29.7546342 L25.8130213,30 L25.408,29.805 L25,30 L25,29.609 L13.5352334,24.0944714 L18.1280684,21.6879358 L25.424,25.184 L45.978,15.393 L43.8363306,14.28157 C43.8363306,14.28157 44.4637109,13.8374756 44.9695506,12.7878154 L45.0574024,12.5962622 C45.4933697,11.595761 45.5306153,10.7794406 45.5335098,10.6103879 L45.5336966,10.5782383 Z M150.241172,27.7744324 L146.691767,27.7744324 L146.691767,29.451657 L150.241172,29.451657 C150.480008,29.451657 150.684984,29.3626223 150.857366,29.1845531 C151.028843,29.0063099 151.114853,28.7929398 151.114853,28.5433994 C151.114853,28.3298554 151.028843,28.1484821 150.857366,27.9984101 C150.684984,27.8492075 150.480008,27.7744324 150.241172,27.7744324 L150.241172,27.7744324 Z M105.822458,9 C106.741892,9 107.530779,9.32153743 108.188759,9.96536709 C108.846919,10.6093854 109.175728,11.3832264 109.175728,12.2863239 L109.175728,12.2863239 L109.175728,14.4772694 C109.175728,14.9952391 109.028887,15.44358 108.735023,15.8224809 C108.440616,16.2008157 108.044995,16.5823584 107.546713,16.9674863 C108.275125,17.0608906 108.728324,17.4964003 108.907394,18.275336 C109.086465,19.0542718 109.175728,20.2958893 109.175728,22 L109.175728,22 L105.822458,22 C105.822458,20.868392 105.726495,20.0360554 105.535113,19.5033675 C105.343187,18.9714344 105.087527,18.70443 104.768496,18.70443 L104.768496,18.70443 L98.2533385,18.70443 L98.2533385,22 L94.9004307,22 L94.9004307,9 Z M163.019068,9 C163.938863,9 164.727027,9.32153743 165.385006,9.96536709 C166.043167,10.6093854 166.371976,11.3832264 166.371976,12.2863239 L166.371976,12.2863239 L166.371976,14.4772694 C166.371976,14.9952391 166.225134,15.44358 165.931452,15.8224809 C165.637407,16.2008157 165.241786,16.5823584 164.743141,16.9674863 C165.471373,17.0608906 165.92439,17.4964003 166.103642,18.275336 C166.282531,19.0542718 166.371976,20.2958893 166.371976,22 L166.371976,22 L163.019068,22 C163.019068,20.868392 162.922743,20.0360554 162.731541,19.5033675 C162.539434,18.9714344 162.283956,18.70443 161.964743,18.70443 L161.964743,18.70443 L155.45031,18.70443 L155.45031,22 L152.096859,22 L152.096859,9 Z M74.7427879,9 L74.7427879,11.9949778 L65.3536321,11.9949778 L65.3536321,14.1119546 L74.206301,14.1119546 L74.206301,16.707841 L65.3536321,16.707841 L65.3536321,21.9594304 L62,21.9594304 L62,9 L74.7427879,9 Z M89.3439972,9 C90.2636116,9 91.0519559,9.32229222 91.7099356,9.96668796 C92.3677341,10.6114611 92.696905,11.3858681 92.696905,12.2895317 L92.696905,12.2895317 L92.696905,18.6098935 C92.696905,19.5273318 92.3677341,20.3151363 91.7099356,20.972552 C91.0519559,21.6307226 90.2636116,21.9594304 89.3439972,21.9594304 L89.3439972,21.9594304 L80.1460429,21.9594304 C79.2387408,21.9594304 78.4531123,21.6344965 77.7895198,20.9829303 C77.1246598,20.3311754 76.7925919,19.560731 76.7925919,18.66971 L76.7925919,18.66971 L76.7925919,12.2895317 C76.7925919,11.3722821 77.1185037,10.5952333 77.7703272,9.95706448 C78.4214265,9.31908439 79.2135731,9 80.1460429,9 L80.1460429,9 Z M113.793536,9 L117.760063,19.7233867 L120.53828,9 L125.041113,9 L127.819511,19.663004 L131.747653,9 L135.139489,9 L130.368141,21.9594304 L125.136895,21.9594304 L122.78001,12.913737 L120.442679,21.9594304 L115.192059,21.9594304 L110.401519,9 L113.793536,9 Z M144.202733,9 L150.257268,21.9594304 L146.540245,21.9594304 L145.390138,19.5033675 L137.72578,19.5033675 L136.576398,21.9594304 L132.839638,21.9594304 L138.933283,9 L144.202733,9 Z M180.647273,9 C181.566525,9 182.355956,9.46173832 183.013212,10.3855924 C183.672278,11.3092577 184,12.4093535 184,13.6849363 L184,13.6849363 L184,17.1746741 C184,18.4908265 183.675899,19.6173397 183.022265,20.5538363 C182.372252,21.4910878 181.5792,21.9594304 180.647273,21.9594304 L180.647273,21.9594304 L168.480082,21.9594304 L168.480082,9 Z M25.9969037,0 L25.996,0.422 L38.1106267,6.71526918 C39.9689373,5.6060569 42.3556485,6.12276962 43.601529,7.89811282 L43.7222525,8.07982897 C44.9558583,10.0427991 44.3854678,12.6476335 42.449228,13.898035 C40.5126249,15.1484365 37.9425976,14.5704641 36.7091735,12.6074939 C36.2619437,11.8962142 36.0555858,11.1004204 36.0613987,10.3151219 L36.0613987,10.3151219 L25.586,4.865 L5.038,15.414 L10.7435847,18.1488155 L6.14839671,20.5413617 L0.418,17.785 L0,18 L0,13.4147035 L0.149,13.337 L0,13 L0.416,13.199 L25.002,0.513 L25.0023615,0.160005728 L25.1845595,0 L25.589,0.21 L25.9969037,0 Z M179.018439,12.2946265 L171.832808,12.2946265 L171.832808,18.6646152 L178.960861,18.6646152 C179.42094,18.6646152 179.81656,18.5119604 180.149171,18.2072169 C180.481239,17.9017186 180.647273,17.5369698 180.647273,17.1124046 L180.647273,17.1124046 L180.647273,13.6881441 C180.647273,13.2898075 180.490473,12.9578918 180.177598,12.6929631 C179.864723,12.4270909 179.478336,12.2946265 179.018439,12.2946265 L179.018439,12.2946265 Z M87.8681601,12.2946265 L81.5831327,12.2946265 C81.1744756,12.2946265 80.8326304,12.4304874 80.5579592,12.7025866 C80.2831069,12.9746857 80.1460429,13.3033936 80.1460429,13.6881441 L80.1460429,13.6881441 L80.1460429,17.1714663 C80.1460429,17.5696142 80.2831069,17.9183238 80.5579592,18.2168404 C80.8326304,18.5153569 81.1744756,18.6646152 81.5831327,18.6646152 L81.5831327,18.6646152 L87.8681601,18.6646152 C88.2641429,18.6646152 88.608704,18.5191308 88.9032921,18.2270299 C89.1964316,17.9351177 89.3439972,17.5832003 89.3439972,17.1714663 L89.3439972,17.1714663 L89.3439972,13.6881441 C89.3439972,13.2898075 89.2031309,12.9578918 88.9223036,12.6929631 C88.640752,12.4270909 88.2896726,12.2946265 87.8681601,12.2946265 L87.8681601,12.2946265 Z M141.577514,11.3362412 L138.952295,16.9076698 L144.183541,16.9076698 L141.577514,11.3362412 Z M161.524038,12.2946265 L155.45031,12.2946265 L155.45031,15.4094261 L161.524038,15.4094261 C161.932876,15.4094261 162.283956,15.2443174 162.578544,14.9135338 C162.871683,14.582939 163.019068,14.1859233 163.019068,13.7234302 C163.019068,13.3266032 162.871683,12.9890266 162.578544,12.711644 C162.283956,12.4336952 161.932876,12.2946265 161.524038,12.2946265 L161.524038,12.2946265 Z M104.327972,12.2946265 L98.2533385,12.2946265 L98.2533385,15.4094261 L104.327972,15.4094261 C104.736448,15.4094261 105.087527,15.2443174 105.381391,14.9135338 C105.675436,14.582939 105.822458,14.1859233 105.822458,13.7234302 C105.822458,13.3266032 105.675436,12.9890266 105.381391,12.711644 C105.087527,12.4336952 104.736448,12.2946265 104.327972,12.2946265 L104.327972,12.2946265 Z M40.2594005,7.939893 C38.9427793,7.939893 37.8752044,9.02200309 37.8752044,10.3565503 C37.8752044,11.6916499 38.9427793,12.7730235 40.2594005,12.7730235 C41.5760218,12.7730235 42.6435967,11.6916499 42.6435967,10.3565503 C42.6435967,9.02200309 41.5760218,7.939893 40.2594005,7.939893 Z" id="Forward-Networks-LOGO" fill="#506271" fill-rule="nonzero"></path>
    </g>
</svg>