<?xml version="1.0" encoding="UTF-8"?>
<svg width="164px" height="41px" viewBox="0 0 164 41" version="1.1" xmlns="http://www.w3.org/2000/svg" xmlns:xlink="http://www.w3.org/1999/xlink">
    <title>logo / portfolio / front</title>
    <g id="logo-/-portfolio-/-front" stroke="none" stroke-width="1" fill="none" fill-rule="evenodd">
        <path d="M20.7371126,3.55271368e-15 C20.8708992,3.55271368e-15 21.0213973,0.0494321112 21.1217469,0.148311619 L21.1217469,0.148311619 L24.215539,2.30696178 C24.4329389,2.50470092 24.7674062,2.50470092 24.9848061,2.30696178 L24.9848061,2.30696178 L28.0618743,0.148317733 C28.1622147,0.0494382253 28.3127143,3.55271368e-15 28.4465086,3.55271368e-15 L28.4465086,3.55271368e-15 L42.1093621,3.55271368e-15 C42.2765949,3.55271368e-15 42.4270945,0.0659110101 42.5441665,0.181267888 C46.6747974,4.51502877 49.2,10.3483144 49.2,16.7583356 C49.2,30.270461 37.9954551,41.1790366 24.2489837,40.9977733 C10.8202541,40.8000341 -0.0498192892,29.8914631 0.00017174109,16.6594667 C0.0337920149,10.2824019 2.54227152,4.4985514 6.63945469,0.181261774 C6.75651893,0.0659094816 6.90702166,3.55271368e-15 7.07425916,3.55271368e-15 L7.07425916,3.55271368e-15 Z M41.708007,1.05461285 L25.3694404,12.589356 C24.9513598,12.9353976 24.3493241,12.9353976 23.9145212,12.589356 L23.9145212,12.589356 L7.55923225,1.05461285 L12.3755137,5.71794406 C12.5929167,5.93216058 12.6096375,6.2617248 12.4089584,6.49242021 C9.80013936,9.42554041 8.39538252,13.3473533 8.54589921,17.5822515 C8.83019474,25.8213524 15.2519044,32.6433307 23.5967794,33.0717638 C32.9617722,33.5661093 40.7380592,26.1179619 40.7380592,17.0055145 C40.7380592,12.9848313 39.2664192,9.31019423 36.7746613,6.49242021 C36.5739837,6.2617248 36.5907061,5.93216058 36.7913852,5.71794406 L36.7913852,5.71794406 L41.708007,1.05461285 Z M123.357726,8.39832403 L136.691495,20.6573731 L136.691495,8.83363963 L141.889872,8.83363963 L141.889872,32.0036637 L141.365897,32.0879183 L127.852875,19.7305722 L127.852875,31.6526027 L122.654498,31.6526027 L122.654498,8.51066354 L123.357726,8.39832403 Z M107.1421,8.45449457 C114.064077,8.45449457 118.517857,13.5238147 118.517857,20.2641844 C118.517857,26.9624276 113.829666,32.0317477 106.921479,32.0317477 C99.9857128,32.0317477 95.5457194,26.9624276 95.5457194,20.2641844 C95.5457194,13.5238147 100.206334,8.45449457 107.1421,8.45449457 Z M72.0082399,8.83363963 L72.0082399,13.6923235 L63.0179431,13.6923235 L63.0179431,18.733559 L70.7258816,18.733559 L70.7258816,23.3675638 L63.0179431,23.3675638 L63.0179431,31.6526027 L57.819566,31.6526027 L57.819566,8.83363963 L72.0082399,8.83363963 Z M82.7497149,8.66513112 C89.7130573,8.66513112 92.4708166,12.0633997 92.4708166,16.2340042 C92.4708166,18.9441957 91.0367821,21.3735384 88.6237427,22.8339515 L88.6237427,22.8339515 L93.8772747,31.652603 L87.9756685,31.652603 L84.156171,24.2101077 C83.8528186,24.2381895 83.5770427,24.2381895 83.2736884,24.2381895 C82.5015154,24.2381895 82.0740623,24.2101077 81.3432568,24.1820258 L81.3432568,24.1820258 L81.3432568,31.652603 L76.1448797,31.652603 L76.1448797,9.04427578 C78.0339456,8.8196002 80.1160543,8.66513112 82.7497149,8.66513112 Z M163.745118,8.83363963 L163.745118,13.6923235 L157.016184,13.6923235 L157.016184,31.6526027 L151.817807,31.6526027 L151.817807,13.6923235 L145.102662,13.6923235 L145.102662,8.83363963 L163.745118,8.83363963 Z M107.031783,13.2008375 C103.488061,13.2008375 101.1026,16.1497511 101.1026,20.2641844 C101.1026,24.336493 103.488061,27.3275313 107.031783,27.3275313 C110.575504,27.3275313 112.960967,24.336493 112.960967,20.2641844 C112.960967,16.1637921 110.575504,13.2008375 107.031783,13.2008375 Z M83.3426324,13.4114722 C82.5566702,13.4114722 82.060275,13.439554 81.3294677,13.5659412 L81.3294677,13.5659412 L81.3294677,19.8429037 C82.0051183,19.9131273 82.3774166,19.9412091 82.9841233,19.9412091 C85.4661067,19.9412091 87.0517812,18.7335573 87.038031,16.430598 C87.038031,14.5348671 85.5764182,13.4114722 83.3426324,13.4114722 Z" id="Front-LOGO" fill="#506271" fill-rule="nonzero"></path>
    </g>
</svg>