<?xml version="1.0" encoding="UTF-8"?>
<svg width="170px" height="41px" viewBox="0 0 170 41" version="1.1" xmlns="http://www.w3.org/2000/svg" xmlns:xlink="http://www.w3.org/1999/xlink">
    <title>logo / portfolio / helix 01</title>
    <g id="logo-/-portfolio-/-helix-01" stroke="none" stroke-width="1" fill="none" fill-rule="evenodd">
        <path d="M82,1.5154163 C81.9912953,8.03983156 81.9912953,14.5389257 81.9912953,21.0380198 C81.9912953,27.5202331 81.9912953,34.0108869 82,40.4931002 C82,40.9066789 81.8868387,41.0079635 81.4690125,40.9995231 C80.2329432,40.974202 79.0055787,40.974202 77.7695094,40.9995231 C77.3777973,41.0079635 77.2559313,40.9066789 77.2559313,40.509981 C77.2733407,35.0068519 77.264636,29.5121633 77.264636,24.0090342 L77.265017,23.8935472 L77.265017,23.8935472 L77.2651623,23.7081028 C77.2600277,23.3410758 77.1955104,23.4097671 76.629192,23.4097671 C69.1866622,23.4097671 61.7441325,23.4097671 54.3016027,23.4013267 C53.8924812,23.4013267 53.7706152,23.4857306 53.7706152,23.8993093 C53.7880246,29.4277595 53.7793199,34.9562096 53.7880246,40.4846598 C53.7880246,40.8982386 53.6748633,40.9995231 53.2570371,40.9910828 C52.0209678,40.9657616 50.7936033,40.9657616 49.557534,40.9910828 C49.1222984,40.9995231 49.0004324,40.8982386 49.0004324,40.4593387 C49.0178418,28.4149136 49.0091371,16.3789289 49.0091371,4.33450388 C49.0091371,3.36385996 49.0265465,2.39321603 49.0004324,1.4225721 C48.9917277,1.07651644 49.1135936,1.00899339 49.4443727,1.00899339 C50.7065562,1.02587415 51.9687396,1.03431453 53.230923,1.00899339 C53.6487492,1.000553 53.7880246,1.07651644 53.7880246,1.52385669 C53.7706152,7.1789126 53.7706152,12.8339685 53.7793199,18.4890244 C53.7793199,19.0768722 53.7022124,19.0516387 54.2519435,19.046636 L76.690125,19.0460896 L76.690125,19.0460896 C77.2263353,19.0460896 77.2620827,19.0460896 77.2644658,18.6068997 L77.264636,1.58293936 L77.264636,1.58293936 C77.264636,1.07304099 77.213733,1.01229361 77.5011852,1.00816189 L77.6592981,1.00884564 C77.7209558,1.00946067 77.7920392,1.00998637 77.873966,1.00899339 C79.0665117,1.000553 80.2503527,1.02587415 81.4428984,1.000553 C81.8607246,0.992112623 82,1.07651644 82,1.5154163 Z M99.4152562,11.1271389 C103.705012,10.6026154 107.536061,11.6849654 110.687545,14.6739167 C112.208072,16.1142748 113.22742,17.879338 113.923975,19.8358938 C114.781926,22.2586928 115.070741,24.7647494 114.985795,27.345738 C114.968806,27.7537007 114.79042,27.7703522 114.467627,27.7703522 C106.992409,27.7620264 99.517191,27.7620264 92.0419731,27.7620264 C91.4388589,27.7620264 91.455848,27.7620264 91.5407937,28.3531561 C91.8550926,30.5511592 92.6960546,32.5243666 94.2590547,34.1478917 C96.0938809,36.0544929 98.3959083,37.061911 101.054707,37.2367522 C103.212327,37.3782902 105.318979,37.1368429 107.281224,36.1460764 C108.665838,35.4467117 109.89755,34.5392028 110.984855,33.4568528 C111.188724,33.2487086 111.307648,33.2570343 111.520012,33.448527 C112.25904,34.1145886 113.015056,34.7639986 113.762578,35.4217344 C113.898491,35.5382952 113.991931,35.6215529 113.813545,35.8047198 C111.503023,38.2025414 108.869708,40.0675138 105.471882,40.6836208 C104.52049,40.8584619 103.569099,40.9583712 102.609213,41 L102.609213,41 L101.071696,41 C97.4020441,40.8168331 94.1741091,39.5596419 91.51531,37.0535852 C89.3152174,34.9721429 87.9475924,32.4078058 87.3699619,29.477135 C86.5544836,25.3475533 87.0471684,21.3761612 89.2472609,17.7128226 C91.5322991,13.9079459 94.9556091,11.6683139 99.4152562,11.1271389 Z M123.687109,1 C123.908926,1 124.031308,1.05068573 123.993064,1.3210096 C123.985415,1.38859057 123.993064,1.46461916 123.993064,1.53220013 L123.993064,40.4588381 C123.993064,41.0586192 124.061904,40.9910382 123.503536,40.9910382 C122.486237,40.9910382 121.461289,40.974143 120.44399,40.9994858 C120.10744,41.0079335 119.992707,40.9150096 120.000356,40.5179714 C120.015653,34.4779224 120.008004,28.4463209 120.008004,22.4062718 C120.000356,21.9332051 120.000356,21.4601383 120.000356,20.9786239 L120.000356,1.5997811 C120.000356,1.00844762 120.000356,1.00844762 120.551074,1.00844762 C121.598969,1.00844762 122.639214,1.01689524 123.687109,1 Z M136.609943,11.0004454 C136.938815,10.9920329 137,11.101396 137,11.4463104 C136.984704,16.3003493 136.992352,21.1628007 136.992352,26.0252522 C136.992352,30.862466 136.992352,35.6912673 137,40.5284811 C137,40.8902205 136.931166,41.0079962 136.586998,40.9995836 C135.516252,40.974346 134.445507,40.9827585 133.374761,40.9995836 C133.107075,40.9995836 133,40.9491084 133,40.6126065 C133.007648,30.862466 133.007648,21.1039129 133,11.3537724 C133,11.0761584 133.076482,11.0004454 133.321224,11.0004454 C134.414914,11.0172705 135.516252,11.0172705 136.609943,11.0004454 Z M143.190942,11.012822 C144.647491,11.0044111 146.104039,11.021233 147.560588,11.0044111 C147.903305,10.9960001 148.091799,11.1137536 148.288862,11.3829043 C150.790698,14.9070969 153.301102,18.4312895 155.811506,21.955482 C156.102815,22.3676191 156.102815,22.3592081 156.385557,21.972304 C158.955936,18.4228785 161.526316,14.873453 164.088127,11.3156166 C164.24235,11.0969317 164.405141,11.0044111 164.679315,11.012822 C166.093023,11.029644 167.506732,11.021233 168.920441,11.021233 L169.314565,11.021233 L169.314565,11.021233 C169.108935,11.3156166 168.946144,11.5595345 168.783354,11.7950414 C165.664627,16.2528506 162.5459,20.7022489 159.418605,25.1516471 C159.204406,25.4628527 159.170135,25.6563048 159.410037,25.9843322 C162.880049,30.8374566 166.324357,35.690581 169.768666,40.5521163 C169.854345,40.6698698 169.982864,40.7792123 170,40.9474315 C169.880049,41.0315411 169.75153,40.9894863 169.623011,40.9894863 C168.140759,40.9894863 166.649939,40.9810753 165.167687,40.9978973 C164.876377,40.9978973 164.705018,40.9053767 164.542228,40.6698698 C161.826193,36.8260607 159.093023,32.9906626 156.368421,29.1552645 C156.102815,28.7767712 156.102815,28.7767712 155.820073,29.1636754 C153.009792,32.9906626 150.190942,36.8176497 147.389229,40.6530479 C147.209302,40.8969657 147.029376,40.9978973 146.729498,40.9894863 C145.315789,40.9726644 143.902081,40.9810753 142.488372,40.9810753 L142,40.9810753 L142,40.9810753 C143.053856,39.5259791 144.039168,38.1549925 145.033048,36.7840059 C147.654835,33.1504708 150.276622,29.5169358 152.906977,25.8834007 C153.086903,25.6310719 153.069767,25.4712636 152.898409,25.2357567 C149.616891,20.6349612 146.335373,16.0341656 143.062424,11.4333701 C142.985312,11.3240276 142.908201,11.2062741 142.831089,11.0885207 C142.942472,10.9539453 143.079559,11.012822 143.190942,11.012822 Z M10.0016966,20 C10.0714229,20.0695187 10.1411493,20.1216578 10.2021598,20.1824867 C13.4270027,23.3977289 16.6518456,26.612971 19.8766885,29.8195233 C20.0684359,30.0106999 20.0161411,30.1062882 19.8592569,30.2627054 C16.6431298,33.4605678 13.4270027,36.6671202 10.2195914,39.8736725 C10.0365598,40.0561592 9.94068607,40.0300897 9.77508603,39.8649826 C6.56767472,36.6584303 3.35154763,33.451878 0.13542053,30.2540155 C-0.0301795098,30.0889085 -0.0563268845,29.9933202 0.126704739,29.8108335 C3.34283183,26.612971 6.55895893,23.4064187 9.77508603,20.2085562 C9.83609657,20.1390375 9.92325448,20.0695187 10.0016966,20 Z M29.7758362,20.0872477 C32.4153769,21.6643209 35.0549176,23.2239679 37.7029456,24.7836149 C37.9321018,24.9230247 38,25.0798607 38,25.341254 C37.9915127,28.460548 37.9915127,31.579842 38,34.7078491 C38,34.9605293 37.9236146,35.0999391 37.7114329,35.2219227 C35.0803794,36.7728565 32.449326,38.3325035 29.8182726,39.8921505 C29.5806291,40.0315603 29.4108837,40.0402734 29.1647529,39.8921505 C26.5846231,38.3586429 24.0044933,36.8251352 21.4158762,35.3090538 C21.1103345,35.1260784 21,34.9256769 21,34.5597262 C21.0424363,33.0349316 21.0254618,31.5101371 21.0254618,29.9853426 C21.0254618,28.4431218 21.0339491,26.9096141 21.0169745,25.3673934 C21.0169745,25.0798607 21.0848727,24.9055985 21.347978,24.7487624 C23.9705442,23.2065417 26.5846231,21.6556078 29.1987019,20.0959608 C29.4023964,19.9739773 29.5636545,19.9652641 29.7758362,20.0872477 Z M107.442621,17.0800641 C104.070278,13.8163624 98.3279517,13.7913851 94.8706635,17.0800641 C92.9084188,18.9450365 91.8805763,21.2845777 91.4813317,23.9071951 C91.4218698,24.2818548 91.651223,24.2319001 91.8805763,24.2319001 L91.8805763,24.2319001 L100.969762,24.2319001 C104.002322,24.2319001 107.026387,24.2235744 110.058947,24.2402259 C110.49217,24.2402259 110.568621,24.0986878 110.500665,23.7490055 C110.415719,23.299414 110.356257,22.8498224 110.254322,22.4002308 C109.795616,20.3853946 108.954654,18.5453995 107.442621,17.0800641 Z M10.4955561,1 C15.751236,1 20.0176115,5.27521771 20,10.5220758 C19.9822792,15.7866001 15.742403,20.0088193 10.4602238,20 C5.213377,20 1,15.777767 1,10.5132427 C1,5.23105224 5.22221007,1 10.4955561,1 Z M30,2 C33.3362143,7.68363273 36.6464996,13.3078842 40,19 L20,19 L20,19 C23.3362143,13.3248503 26.6464996,7.69211577 30,2 Z M135.455097,0 C136.966581,0.189041096 138.089398,1.45479452 137.994391,3.12328767 C137.890746,4.84109589 136.64701,6 135.023244,6 C133.382203,6 132.138467,4.83287671 132.008912,3.14794521 C131.887993,1.57808219 133.01081,0.205479452 134.574117,0 L135.455097,0 L135.455097,0 Z" id="HElix-LOGO" fill="#506271" fill-rule="nonzero"></path>
    </g>
</svg>