<?xml version="1.0" encoding="UTF-8"?>
<svg width="173px" height="30px" viewBox="0 0 173 30" version="1.1" xmlns="http://www.w3.org/2000/svg" xmlns:xlink="http://www.w3.org/1999/xlink">
    <title>logo / portfolio / helix 02</title>
    <g id="logo-/-portfolio-/-helix-02" stroke="none" stroke-width="1" fill="none" fill-rule="evenodd">
        <path d="M29.5453087,0.000676295072 C29.8687829,-0.0102704472 30.1823473,0.112074516 30.4112119,0.338529966 C30.6400764,0.564985415 30.763723,0.875249173 30.7526598,1.1953184 L30.7526598,1.1953184 L30.7526598,29.2349816 C30.7528349,29.5518734 30.6256884,29.855836 30.3992282,30.0799124 C30.172768,30.3039888 29.8655718,30.4296238 29.5453087,30.4296238 L29.5453087,30.4296238 L1.20735124,30.4296238 C0.887088185,30.4296238 0.579891969,30.3039888 0.353431755,30.0799124 C0.12697154,29.855836 0,29.5518734 0,29.2349816 L0,29.2349816 L0,1.1953184 C0,0.878426531 0.12697154,0.57446396 0.353431755,0.350387537 C0.579891969,0.126311114 0.887088185,0.0005030354 1.20735124,0.000676295072 L1.20735124,0.000676295072 Z M5.5278938,3.36420415 C5.367806,3.36420415 5.21424983,3.42713967 5.10105065,3.53914729 C4.98785147,3.6511549 4.92438034,3.80309469 4.92438034,3.96149735 L4.92438034,3.96149735 L4.92438034,9.65113945 C4.9237055,9.87331097 5.04543945,10.0781928 5.24196827,10.1856447 L5.24196827,10.1856447 L9.18127678,12.448971 L5.24196827,14.7139289 C5.15285862,14.7707008 5.07706746,14.8456941 5.01969167,14.9338658 C4.8593064,15.2206092 4.95764908,15.5815421 5.24196827,15.7496552 L5.24196827,15.7496552 L9.18127678,18.0133079 L5.24196827,20.2763079 C5.0477401,20.3701586 4.92438034,20.5652855 4.92438034,20.7791605 L4.92438034,20.7791605 L4.92438034,26.5004552 C4.92438034,26.6588579 4.98785147,26.8107977 5.10105065,26.9228053 C5.21424983,27.0348129 5.367806,27.0977484 5.5278938,27.0977484 C5.64116293,27.1001433 5.75233461,27.0671314 5.8454789,27.0033079 L5.8454789,27.0033079 L15.37633,21.5336026 L24.9705002,27.0029816 C25.0517631,27.0664744 25.1529144,27.0998365 25.2564257,27.0972868 C25.4165135,27.0973735 25.5700697,27.0344866 25.6832689,26.922479 C25.796468,26.8104714 25.8600239,26.6585316 25.8599364,26.5001289 L25.8599364,26.5001289 L25.8599364,20.7794868 C25.8598152,20.5656119 25.7365794,20.3704849 25.5423512,20.2766342 L25.5423512,20.2766342 L21.6030427,18.0133079 L25.542681,15.7480237 C25.8270002,15.5799105 25.9253429,15.2189777 25.7649576,14.9322342 C25.7075818,14.8440625 25.6317907,14.7690692 25.542681,14.7122973 L25.542681,14.7122973 L21.6033725,12.448971 L25.542681,10.216971 C25.7333567,10.1036768 25.8529381,9.90241762 25.8602661,9.68246577 L25.8602661,9.68246577 L25.8599364,3.9624763 C25.8600239,3.80407363 25.796468,3.65213385 25.6832689,3.54012623 C25.5700697,3.42811862 25.4165135,3.36523177 25.2564257,3.3653184 C25.1431566,3.36278825 25.0319849,3.39580011 24.9388406,3.45962366 L24.9388406,3.45962366 L15.4093087,8.92834998 L5.8454789,3.45864472 C5.75233461,3.39482116 5.64116293,3.3618093 5.5278938,3.36420415 Z M134.125913,5.09072839 L137.549154,12.6892953 C137.64188,13.0021273 137.954809,13.2015755 138.285077,13.1583427 L140.748562,13.1583427 C141.075576,13.188136 141.38049,12.9937968 141.484485,12.6892953 L144.907394,5.09072839 C145.067464,4.74665214 145.19532,4.68432889 145.611104,4.68432889 L148.234658,4.68432889 C148.58668,4.68432889 148.778631,4.90310945 148.682655,5.21602408 L145.962461,14.2840563 C145.83446,14.5950295 145.83446,14.9423394 145.962461,15.2533126 L148.969586,25.0718206 C149.065561,25.4158968 148.936376,25.665839 148.553802,25.665839 L145.578559,25.665839 C145.24928,25.7048559 144.938909,25.5070384 144.842635,25.1967917 L141.419727,17.2859593 C141.327001,16.9731274 141.014071,16.7736791 140.683803,16.816912 L138.220319,16.816912 C137.895492,16.7955339 137.595387,16.9868087 137.484395,17.2859593 L134.0937,25.1971163 C134.00866,25.5154351 133.690082,25.7184838 133.357777,25.6661636 L130.382533,25.6661636 C130.062725,25.6661636 129.934536,25.3847352 130.03184,25.0721452 L133.038965,15.2536372 C133.166966,14.942664 133.166966,14.5953541 133.038965,14.2843809 L130.350652,5.21602408 C130.254676,4.87194783 130.446627,4.68432889 130.798649,4.68432889 L133.422203,4.68432889 C133.727533,4.62988917 134.027386,4.80305718 134.125913,5.09072839 Z M51.55585,4.67501912 C51.9367741,4.67501912 52.0956024,4.83159723 52.0956024,5.17561426 L52.4129293,12.6234693 C52.4129293,12.9678112 52.6033913,13.1240645 52.9526816,13.1240645 L61.0473188,13.1240645 C61.4282429,13.1240645 61.5870711,12.9674864 61.5870711,12.6234693 L61.904398,5.17561426 C61.904398,4.8000867 62.09486,4.67501912 62.4441503,4.67501912 L65.4915431,4.67501912 C65.6282962,4.667926 65.7616772,4.71838532 65.8585099,4.81384627 C65.9553427,4.90930721 66.0065272,5.04079856 65.9993321,5.17561426 L65.9993321,25.1731068 C66.0065272,25.3079224 65.9553427,25.4394138 65.8585099,25.5348747 C65.7616772,25.6303357 65.6282962,25.680795 65.4915431,25.6737019 L62.4441503,25.6737019 C62.0632262,25.6737019 61.904398,25.5171238 61.904398,25.1731068 L61.5870711,17.2870279 C61.5870711,16.9115003 61.396609,16.7864328 61.0473188,16.7864328 L52.9526816,16.7864328 C52.5717575,16.7864328 52.4129293,16.9430109 52.4129293,17.2870279 L52.0956024,25.1731068 C52.0956024,25.5486343 51.9051403,25.6737019 51.55585,25.6737019 L48.5084572,25.6737019 C48.3732697,25.6753763 48.2431224,25.623173 48.1475229,25.5289278 C48.0519233,25.4346826 47.9989698,25.3063791 48.0006683,25.1731068 L48.0006683,5.17561426 C47.9934732,5.04079856 48.0446577,4.90930721 48.1414904,4.81384627 C48.2383232,4.71838532 48.3717042,4.667926 48.5084572,4.67501912 L51.55585,4.67501912 Z M89.4592401,4.67502013 C89.5959957,4.66791613 89.7293792,4.71845285 89.8262138,4.81406021 C89.9230484,4.90966757 89.9742338,5.0413606 89.9670386,5.17638308 L89.9670386,10.0032621 C89.9670386,10.3793657 89.8082074,10.5046251 89.4592401,10.5046251 L87.3324837,10.5046251 C87.0181205,10.5243903 86.7303781,10.3306582 86.6342195,10.0344956 L86.1896899,8.81215912 C86.1126223,8.50243101 85.8116084,8.29976342 85.4914257,8.34202969 L77.0789739,8.34202969 C76.6980426,8.34202969 76.5711754,8.49884795 76.5711754,8.84339263 L76.5711754,13.0729308 C76.5711754,13.4490343 76.7300066,13.5742937 77.0789739,13.5742937 L84.8887239,13.5742937 C85.2696552,13.5742937 85.3965224,13.731112 85.3965224,14.0756566 L85.3965224,16.0502002 C85.3965224,16.4263038 85.2376912,16.5831221 84.8887239,16.6143556 L77.0789739,17.5233809 C76.6980426,17.5559158 76.5711754,17.7426662 76.5711754,18.0875362 L76.5711754,20.4069499 C76.5397671,20.8507567 76.7024148,21.2865883 77.0179668,21.6041744 C77.2984575,21.8864732 77.6758754,22.0513035 78.072349,22.0686495 L89.4915336,22.0681823 C89.8724648,22.0681823 89.9993321,22.2250006 89.9993321,22.5695452 L89.9993321,25.1723379 C90.0065273,25.3073604 89.9553419,25.4390534 89.8585073,25.5346608 C89.7616727,25.6302682 89.6282892,25.6808049 89.4915336,25.6737009 L76.7300066,25.6737009 C73.8730221,25.7052597 72.0000002,23.8563009 72.0000002,21.0039654 L72.0000002,5.17638308 C72.0000002,4.80027953 72.1588314,4.67502013 72.5077987,4.67502013 L89.4592401,4.67502013 Z M99.9040021,4.67436051 C100.272894,4.67436051 100.395752,4.83094352 100.395752,5.17497134 L100.395752,20.3843147 C100.366654,20.8326668 100.528953,21.2720053 100.841054,21.5897293 C101.153154,21.9074533 101.584716,22.0726773 102.025132,22.0430551 L108.480744,22.0430551 C108.880271,22.0430551 108.972494,21.9179836 109.034082,21.5424442 L109.618055,17.3192509 C109.679643,16.9437116 109.833136,16.8186401 110.171393,16.8186401 L112.507603,16.8186401 C112.876496,16.8186401 112.999353,16.9752231 112.999353,17.3192509 L112.999353,25.173091 C113.006321,25.307911 112.956753,25.4394064 112.862979,25.5348704 C112.769205,25.6303343 112.640037,25.6807952 112.507603,25.6737019 L100.549563,25.6737019 C97.8444608,25.6730521 96.0000002,23.826867 96.0000002,20.9788104 L96.0000002,5.17497134 C96.0000002,4.799432 96.1538116,4.67436051 96.49175,4.67436051 L99.9040021,4.67436051 Z M124.440082,4.67501912 C124.590676,4.667926 124.737557,4.71838532 124.84419,4.81384627 C124.950823,4.90930721 125.007188,5.04079856 124.999264,5.17561426 L124.999264,25.1731068 C125.007188,25.3079224 124.950823,25.4394138 124.84419,25.5348747 C124.737557,25.6303357 124.590676,25.680795 124.440082,25.6737019 L120.559918,25.6730522 C120.409457,25.6801295 120.262701,25.6297563 120.156093,25.5344419 C120.049485,25.4391274 119.993026,25.3078127 120.000736,25.1731068 L120.000736,5.17561426 C119.992813,5.04079856 120.049177,4.90930721 120.155811,4.81384627 C120.262444,4.71838532 120.409324,4.667926 120.559918,4.67501912 L124.440082,4.67501912 Z M20.2380534,18.7674237 L24.4939576,21.1880342 L24.4939576,25.2115079 L16.7423087,20.7791605 L20.2380534,18.7674237 Z M20.237064,13.2347395 L23.7634789,15.21515 L6.29036188,25.2105289 L6.29036188,21.1877079 L20.237064,13.2347395 Z M24.4939576,5.25044472 L24.4939576,9.24259208 L10.5165853,17.2262342 L7.02084061,15.21515 L24.4939576,5.25044472 Z M172.7952,4.98686051 C172.836838,4.98436668 172.877571,4.99943348 172.907068,5.02823959 C172.936565,5.05704571 172.951994,5.09682391 172.94944,5.13748551 L172.94944,6.01061051 C172.951994,6.0512721 172.936565,6.0910503 172.907068,6.11985642 C172.877571,6.14866254 172.836838,6.16372933 172.7952,6.16123551 L168.2016,6.16123551 C168.176117,6.1576215 168.150382,6.16596647 168.132173,6.18374822 C168.120034,6.19560272 168.11219,6.21072395 168.109406,6.22686127 L168.10912,9.02123551 C168.105419,9.04612165 168.113965,9.07125354 168.132173,9.08903529 C168.144312,9.10088979 168.159796,9.10855017 168.176321,9.1112691 L172.08576,9.11154801 C172.127398,9.10905418 172.168131,9.12412098 172.197628,9.15292709 C172.227125,9.18173321 172.242554,9.22151141 172.24,9.26217301 L172.24,10.135298 C172.242554,10.1759596 172.227125,10.2157378 172.197628,10.2445439 C172.168131,10.27335 172.127398,10.2884168 172.08576,10.285923 L168.2016,10.285923 C168.176117,10.282309 168.150382,10.290654 168.132173,10.3084357 C168.120034,10.3202902 168.11219,10.3354114 168.109406,10.3515488 L168.10912,13.1743605 C168.105419,13.1992466 168.113965,13.2243785 168.132173,13.2421603 C168.144312,13.2540148 168.159796,13.2616752 168.176321,13.2643941 L172.79488,13.264673 C172.836518,13.2621792 172.877251,13.277246 172.906748,13.3060521 C172.936245,13.3348582 172.951674,13.3746364 172.94912,13.415298 L172.94912,14.288423 C172.951674,14.3290846 172.936245,14.3688628 172.906748,14.3976689 C172.877251,14.426475 172.836518,14.4415418 172.79488,14.439048 L166.99968,14.439048 C166.958043,14.4415418 166.91731,14.426475 166.887812,14.3976689 C166.858315,14.3688628 166.842887,14.3290846 166.84544,14.288423 L166.84544,5.13748551 C166.842887,5.09682391 166.858315,5.05704571 166.887812,5.02823959 C166.91731,4.99943348 166.958043,4.98436668 166.99968,4.98686051 L172.7952,4.98686051 Z M160.95744,4.98686051 C162.74528,4.98686051 163.97856,6.07061051 163.97856,7.69623551 C164.019726,8.87688791 163.231014,9.93274231 162.0672,10.2549855 L164.13248,14.2287355 C164.161086,14.2623986 164.166621,14.3093883 164.146588,14.3485146 C164.126555,14.387641 164.08474,14.411511 164.04,14.4093605 L162.96128,14.4093605 C162.8688,14.4093605 162.80704,14.3781105 162.77632,14.2587355 L160.83424,10.4056105 L158.7072,10.4056105 C158.681717,10.4019965 158.655982,10.4103415 158.637773,10.4281232 C158.619565,10.445905 158.611019,10.4710369 158.61472,10.495923 L158.61472,14.2587355 C158.617274,14.2993971 158.601845,14.3391753 158.572348,14.3679814 C158.542851,14.3967875 158.502118,14.4118543 158.46048,14.4093605 L157.47392,14.4093605 C157.432283,14.4118543 157.39155,14.3967875 157.362052,14.3679814 C157.332555,14.3391753 157.317127,14.2993971 157.31968,14.2587355 L157.31968,5.13748551 C157.317127,5.09682391 157.332555,5.05704571 157.362052,5.02823959 C157.39155,4.99943348 157.432283,4.98436668 157.47392,4.98686051 L160.95744,4.98686051 Z M6.29036188,5.25044472 L14.0420108,9.68279208 L10.5155959,11.6632026 L6.29036188,9.24259208 L6.29036188,5.25044472 Z M160.98848,6.13092301 L158.73824,6.13092301 C158.712757,6.127309 158.687022,6.13565397 158.668813,6.15343572 C158.650605,6.17121747 158.642059,6.19634936 158.64576,6.22123551 L158.64576,9.17123551 C158.642059,9.19612165 158.650605,9.22125354 158.668813,9.23903529 C158.680952,9.25088979 158.696436,9.25855017 158.712961,9.2612691 L160.98848,9.26154801 C162.09792,9.26154801 162.77632,8.68967301 162.77632,7.69623551 C162.77632,6.70279801 162.09824,6.13092301 160.98848,6.13092301 Z" id="Helix-Re-LOGO" fill="#506271" fill-rule="nonzero"></path>
    </g>
</svg>