<?xml version="1.0" encoding="UTF-8"?>
<svg width="141px" height="82px" viewBox="0 0 141 82" version="1.1" xmlns="http://www.w3.org/2000/svg" xmlns:xlink="http://www.w3.org/1999/xlink">
    <title>logo / portfolio / human longevity</title>
    <g id="logo-/-portfolio-/-human-longevity" stroke="none" stroke-width="1" fill="none" fill-rule="evenodd">
        <path d="M26.7068609,42 C26.7592885,42.0550206 26.8117161,42.0550206 26.8641437,42.1100413 C28.2796896,43.7056396 29.7476631,45.301238 31.0583537,46.9518569 C34.0467284,50.7482806 35.3049914,55.0949106 34.937998,60.0467675 C34.5710046,64.8335626 32.421472,68.7400275 29.2233869,72.0412655 C27.1262819,74.1870702 24.871894,76.1678129 22.7223614,78.258597 C21.6738089,79.303989 20.7301116,80.5144429 19.7339867,81.6698762 C19.6291315,81.8349381 19.419421,81.8899587 19.2621381,82 C19.1572829,81.8349381 19,81.6148556 19,81.4497937 L19,76.0577717 L19,76.0577717 C19,73.3617607 19.0524276,70.6657497 19,67.9697387 C19,66.7042641 19.419421,65.7138927 20.3106906,64.8885832 C21.1495326,64.173315 21.935947,63.4030261 22.6699337,62.522696 C24.7670387,59.9367263 24.6097559,56.4704264 22.4602232,53.9944979 C21.4116707,52.784044 20.4155459,51.6286107 19.3669934,50.4181568 C21.8310917,47.5570839 24.2951901,44.7510316 26.7068609,42 Z M18.9768595,0.178090565 C21.0003287,3.01359215 23.7894349,5.03116058 26.3597876,7.32137339 C28.3285684,9.06629744 30.1879725,10.9202792 31.7192465,13.1014343 C36.6958869,20.2447171 35.9302499,29.4600973 29.9692191,35.785447 C24.5550719,41.5655079 19.2503013,47.4546265 13.8908424,53.3437452 C13.6174007,53.6163896 13.3439589,53.9435628 13.0705171,54.2162072 C10.9376712,56.50642 10.7189178,59.7781526 12.6330102,62.286481 C13.3986472,63.2680007 14.3283493,64.0859339 15.2580513,64.903867 C16.2971301,65.7763291 16.7346369,66.7578488 16.7346369,68.1210708 C16.6799486,72.428852 16.7346369,76.7911621 16.7346369,81.0989434 L16.7346369,81.6442321 L16.7346369,81.6442321 C16.6799486,81.9714054 16.2971301,82.134992 16.0783767,81.8623476 C13.1798938,77.9362685 9.0782671,75.3734113 5.79696574,71.9380921 C3.82818492,69.8659948 2.18753424,67.6303109 1.14845548,64.9583959 C0.601571916,63.4861162 0.218753424,61.9593077 0.054688356,60.4324992 C0.054688356,60.3234414 0,60.2689125 0,60.1598548 L0,56.9971799 L0,56.9971799 C0.218753424,55.8520735 0.382818492,54.6524382 0.710948629,53.5618607 C1.47658561,50.8899458 2.84379451,48.5452041 4.75788698,46.4731068 C10.5548527,40.1477571 16.3518185,33.8769363 22.0940958,27.5515866 C24.1722534,25.2613738 24.1722534,21.8260546 22.1487842,19.426784 C21.4378356,18.554322 20.5628219,17.7909177 19.6878082,17.0275134 C18.7034178,16.2095803 18.2659109,15.2280605 18.2659109,13.9193675 C18.3205993,9.55705733 18.2659109,5.19474721 18.2659109,0.88696596 C18.2659109,0.723379331 18.2112226,0.559792701 18.2659109,0.396206071 C18.3205993,0.232619442 18.429976,0.069032812 18.5393527,0.0145039354 C18.6487294,-0.0400249411 18.8674828,0.069032812 18.9768595,0.178090565 Z M71.232615,53.0160437 C72.0874867,53.6493347 72.2014696,54.2826257 71.5745637,55.0886323 C71.232615,55.6067795 70.8336748,55.6643514 70.3777432,55.2037761 C69.46588,54.2826257 68.3830424,53.9947661 67.1292305,54.2250537 C66.1033844,54.3977695 65.3624956,55.0310604 64.9635554,56.0097828 C64.1656751,57.9096557 64.1656751,59.8671005 64.906564,61.7094015 C65.8184272,63.9547059 68.4970253,64.472853 70.3777432,62.8608396 C70.6627005,62.630552 70.8336748,62.1124049 71.3465979,62.5729801 C72.0304953,63.2062711 72.2014696,63.839562 71.745538,64.4152811 C71.4605808,64.7031406 71.1756235,64.9910002 70.8336748,65.1637159 C67.3002049,67.2363045 63.0258461,65.2788597 62.2849573,61.2488263 C62.1139829,60.5003915 62.0569915,59.7519567 62,59.0035219 C62.0569915,57.6793681 62.2279658,56.3552143 62.7978803,55.1462042 C64.5076238,51.3464585 69.1239313,51.4616023 71.232615,53.0160437 Z M74.0526316,63 C74.5789474,63.047619 75,63.4761905 75,64.047619 C75,64.6190476 74.5263158,65 74,65 C73.4210526,65 73,64.5238095 73,63.952381 C73,63.3809524 73.4736842,63 74.0526316,63 Z M44.6190476,52 C45.5238095,52 45.952381,52.4460628 46,53.5612199 L46,64.2667276 L46,64.2667276 C46,64.9358219 45.952381,64.9915797 45.3809524,64.9915797 L44.5238095,64.9915797 L44.5238095,64.9915797 C44.1428571,65.0473376 44,64.8243062 44,64.3782433 C44.047619,62.4267185 44.047619,60.4194358 44.047619,58.4679109 L44.047619,52.6690942 L44.047619,52.6690942 C44.047619,52.0557579 44.0952381,52 44.6190476,52 Z M52.5568182,52.9123703 C54.1477273,55.4032385 55.7954545,57.8941066 57.4431818,60.3849748 C57.5568182,60.5510327 57.6704545,60.6617379 57.8409091,60.9938537 L57.8409091,52.801665 L57.8409091,52.801665 C57.8409091,52.1374335 57.8977273,52.0820809 58.5795455,52.0820809 C59.4318182,52.0820809 59.8863636,52.4695493 60,53.3551913 L60,64.204306 L60,64.204306 C60,64.9238901 59.9431818,64.8685375 59.2045455,64.9792428 C58.2386364,65.089948 57.7272727,64.7578323 57.2159091,63.9828955 C55.6818182,61.6027326 54.0909091,59.2225697 52.5,56.8977594 C52.5,56.6209962 52.3863636,56.4549384 52.2159091,56.2335279 L52.2159091,64.204306 C52.2159091,64.8294651 52.2159091,64.8662391 51.6474728,64.8684023 L50.5681818,64.8685375 L50.5681818,64.8685375 C50.1704545,64.8685375 50,64.7024796 50,64.3150113 L50,52.6356072 L50,52.6356072 C50,52.2481388 50.1704545,52.0820809 50.5681818,52.0267283 C51.4204545,51.916023 52.1022727,52.1374335 52.5568182,52.9123703 Z M75.7333333,52 C75.8,52 76,52.1666667 76,52.2777778 C76,52.3888889 75.8666667,52.5555556 75.7333333,52.5555556 C75.5333333,52.6111111 75.2666667,52.5555556 74.9333333,52.5555556 L74.9333333,55 L74.9333333,55 L74.1333333,55 L74.1333333,55 L74.1333333,52.6111111 L74.1333333,52.6111111 C73.7333333,52.6111111 73.4,52.5555556 73.0666667,52.5555556 C73.0666667,52.3888889 73.0666667,52.2222222 73,52 L75.7333333,52 L75.7333333,52 Z M77.0909091,52.7108345 C77.2,53.20137 77.3090909,53.6374015 77.4727273,54.2369448 C77.6363636,53.6374015 77.7454545,53.20137 77.8545455,52.7108345 C78.1272727,52.0022833 78.1272727,52.0022833 79,52.1112912 L79,54.7819842 L79,54.7819842 C79,54.8909921 78.7818182,55 78.6727273,55 C78.6181818,55 78.4,54.8364882 78.4,54.7274803 C78.4,54.1824409 78.4,53.6374015 78.2909091,53.0378582 C78.1818182,53.5283936 78.0727273,54.073433 77.9090909,54.5639685 C77.8545455,54.7274803 77.6909091,54.8909921 77.5272727,54.9454961 C77.2,55.0545039 77.1454545,54.7819842 77.0909091,54.5639685 C76.9818182,54.073433 76.8727273,53.5828976 76.6545455,53.0923621 L76.6545455,55 L76.6545455,55 L76.0545455,55 L76.0545455,55 C76.0545455,54.8364882 76,54.7274803 76,54.6184724 L76,52.1112912 L76,52.1112912 C76.8181818,51.8932754 76.9272727,51.9477794 77.0909091,52.7108345 Z M128.344584,35 C128.833349,35 128.996271,35.1681034 128.996271,35.6163793 C129.050579,36.4568966 128.507506,37.0172414 127.638589,37.0732759 L125.086146,37.0732759 L125.086146,37.0732759 L125.086146,47.2715517 L125.086146,47.2715517 C125.086146,48 125.086146,48 124.325844,48 L123.40262,48 L123.40262,48 C122.968161,48 122.805239,47.8318966 122.805239,47.4396552 L122.805239,37.0732759 L122.805239,37.0732759 L119.764031,37.0732759 L119.764031,37.0732759 C119.112343,37.0732759 119.058036,36.9612069 119.003729,36.3448276 C118.949421,35.5603448 119.492494,35 120.361411,35 L128.344584,35 L128.344584,35 Z M111.41464,35.0407971 C112.03031,35.0961783 112.08628,35.2623219 111.91837,35.816134 C111.35867,37.4775703 110.742999,39.0836254 110.127329,40.7450616 C109.343749,42.96031 108.504199,45.1755583 107.720619,47.3908067 C107.552709,47.8338564 107.328828,48 106.881068,48 C106.583163,47.9910675 106.344956,47.9922201 106.152355,47.9932333 L105.942224,47.9937278 C105.182049,47.9902031 105.342796,47.8892376 104.866148,46.5600886 C103.578837,43.0156912 102.347497,39.4159126 101.116157,35.8715152 C100.892277,35.2069407 100.948247,35.0961783 101.675857,35.0407971 C102.851227,34.9300347 103.410927,35.2623219 103.746748,36.3699461 C104.586298,38.9728629 105.425848,41.631161 106.265398,44.2340778 C106.321368,44.4002214 106.377338,44.5109838 106.489278,44.8432711 C107.272858,42.5172603 108.000469,40.302012 108.728079,38.1421448 C108.951959,37.4775703 109.175839,36.868377 109.399719,36.2038025 C109.735539,35.2069407 110.351209,34.8746535 111.41464,35.0407971 Z M100.093607,35 C100.651327,35 100.762871,35.112069 100.762871,35.7284483 C100.762871,36.512931 100.372467,36.9612069 99.5916597,37.0732759 C99.3127999,37.1293103 99.0339401,37.1293103 98.7550804,37.1293103 C97.5838693,37.0172414 96.4684301,37.0172414 95.2414471,37.0172414 L95.2414471,40.1551724 L95.2414471,40.1551724 L98.5877645,40.1551724 C99.3251937,40.1551724 99.366162,40.1551724 99.368438,40.8632419 L99.3685719,40.9956897 C99.3685719,41.145782 99.3698524,41.2785066 99.370424,41.3958619 L99.3700328,41.6106727 C99.3608103,42.3275169 99.2421475,42.2894986 98.2295176,42.2848376 L95.2414471,42.2844828 L95.2414471,42.2844828 L95.2414471,45.9267241 L95.2414471,45.9267241 L99.4801158,45.9267241 L99.4801158,45.9267241 C100.539783,45.9267241 101.097503,46.5991379 100.985959,47.5517241 C100.930187,47.8318966 100.818643,48 100.539783,48 L93.4567445,48 L93.4567445,48 C93.1221127,48 92.9547969,47.8318966 93.0105688,47.4956897 L93.0105688,35.6724138 L93.0105688,35.6724138 C93.0105688,35.0420259 93.0595871,35.0026266 93.5712159,35.0001642 L100.093607,35 L100.093607,35 Z M117,36.4472195 L117,47.4365992 L117,47.4365992 C117,47.8251126 116.853659,47.9916184 116.512195,47.9916184 L115.585366,47.9916184 L115.585366,47.9916184 C115.146341,48.0471203 115.04878,47.8251126 115.04878,47.3810973 C115.009756,45.7382405 115.001951,44.1664262 115.00039,42.6088204 L115,35.6701926 L115,35.6701926 C115,35.1706754 115.146341,35.0041696 115.585366,35.0041696 C116.463415,34.9486677 117,35.4481849 117,36.4472195 Z M140.136364,44 C140.545455,44 140.772727,44.2151261 140.909091,44.6991597 C140.909091,44.7529412 140.954545,44.8067227 140.954545,44.8067227 C141,45.1831933 141,45.5058824 141,45.8823529 C140.863636,46.2588235 140.772727,46.6890756 140.590909,47.0117647 C140.409091,47.3344538 140.181818,47.6033613 139.909091,47.8184874 C139.5,48.1411765 139.227273,48.0336134 139,47.4957983 C139.318182,47.0655462 139.636364,46.6890756 140.045455,46.1512605 C139.863636,45.989916 139.681818,45.9361345 139.590909,45.7747899 C139.272727,45.3983193 139.272727,44.9680672 139.409091,44.5378151 C139.545455,44.1613445 139.818182,44 140.136364,44 Z M68.4794005,35.8396405 C70.1069929,38.3340952 71.7345854,40.8839822 73.3621778,43.3784368 C73.4744255,43.5447338 73.5305494,43.6555985 73.7550449,43.8218954 L73.7550449,35.7842082 L73.7550449,35.7842082 C73.7550449,35.1744526 73.8672927,35.0635879 74.5407792,35.0635879 C75.3265135,35.0635879 75.8316284,35.4516142 75.9438761,36.2276668 C76,36.3939638 76,36.6156931 76,36.78199 L76,47.2032673 L76,47.2032673 C76,47.9238876 75.9438761,47.8684552 75.2142657,47.9793199 C74.2601598,48.0901845 73.7550449,47.7575906 73.24993,46.9261057 C71.7345854,44.5425157 70.1631168,42.1589257 68.5916483,39.830768 C68.519489,39.7594978 68.4679467,39.6984092 68.4149317,39.630048 L68.3003932,39.4784576 C68.2571958,39.4212475 68.2067988,39.3556338 68.1426573,39.2764447 L68.1426573,47.2586997 L68.1426573,47.2586997 C68.1426573,47.8684552 68.0865334,47.9238876 67.4691707,47.9238876 C65.8397679,47.9238876 65.997452,48.1315425 66.0093207,46.6377668 L66.0099499,35.7842082 L66.0099499,35.7842082 C66.0099499,35.2298849 66.1783216,35.0635879 66.6834365,35.0081556 C67.4691707,34.9527233 68.0304095,35.1744526 68.4794005,35.8396405 Z M59.1685117,34.0157428 C61.3942535,34.1322624 63.1314178,35.8800568 63.6742817,38.4434887 C63.8371408,39.2591261 63.8914272,40.0747635 64,41.1817 C63.8371408,42.1138571 63.7285681,43.2790534 63.3485634,44.3277301 C62.588554,46.7746423 60.6885305,48.0563582 58.2999295,47.9980984 C55.9113285,47.9398386 54.1741642,46.5998629 53.4684411,44.1529506 C52.8712909,42.0555973 52.8170045,39.8999841 53.4684411,37.8026308 C54.3370233,35.1226792 56.2913332,33.8409633 59.1685117,34.0157428 Z M87.2180561,34.5936705 C87.5420459,34.767699 87.8660357,34.9997371 88.1360272,35.2897846 C88.6220119,35.8118702 88.460017,36.9720603 87.8660357,37.3781269 C87.5420459,37.5521554 87.2720544,37.4941459 87.0020629,37.2040984 C86.4620799,36.5659938 85.7601019,36.2759462 84.9501274,36.2179367 C83.0061886,36.1019177 81.8722243,37.0300698 81.4402379,39.0604026 C81.1702463,40.5106403 81.1702463,41.960878 81.5482345,43.3531062 C82.1962141,45.6734865 84.6261376,46.7176576 86.6240748,45.4414484 C86.7860697,45.3254294 86.8940663,45.0933914 86.8940663,44.9773724 C86.9480646,44.2812583 86.8940663,43.5271347 86.8940663,42.8310206 C86.8940663,42.5409731 86.7860697,42.424954 86.5160782,42.424954 L84.8961291,42.424954 L84.8961291,42.424954 C84.518141,42.424954 84.4101444,42.2509255 84.4101444,41.9028685 C84.4623428,40.2766686 84.2117907,40.3850819 85.6095467,40.3941164 L88.460017,40.3946213 L88.460017,40.3946213 C88.8380051,40.3946213 89,40.5686498 89,40.9747163 L89,45.615477 L89,45.615477 C89,46.079553 88.8380051,46.4276101 88.5140153,46.7176576 C87.2180561,47.7038192 85.8141002,48.0518763 84.2481495,47.9938668 C81.3322413,47.8198382 79.5502973,45.963534 79.1183109,42.7150016 C78.9023177,41.0327259 78.956316,39.2924406 79.496299,37.6681744 C80.2522752,35.4638131 81.9802209,34.1295944 84.1401529,34.0135754 C85.2201189,33.9555659 86.2460866,34.0715849 87.2180561,34.5936705 Z M46.326888,35.5588985 L46.326888,44.8895055 L46.326888,44.8895055 L50.2244254,44.8895055 L50.2244254,44.8895055 C50.5152864,44.8895055 50.8061474,44.8895055 51.0970084,45.0005842 C51.7369026,45.2227415 52.2022802,46.1113708 51.9114192,46.7223034 C51.853247,46.833382 51.6205582,47 51.4460416,47 L44.5235498,47 L44.5235498,47 C44.1163444,47 44,46.7778427 44,46.4446067 L44,34.7258085 L44,34.7258085 C44,34.2259546 44.1745166,34.0593366 44.6980664,34.0037973 C45.745166,33.9482579 46.326888,34.5036512 46.326888,35.5588985 Z M132.737073,35.0768236 C133.402973,36.5741527 134.124365,37.9605686 134.95674,39.4578977 C135.567148,38.2933084 136.177556,37.1841757 136.787965,36.1304996 C137.009931,35.7423032 137.176406,35.4095634 137.398373,35.0213669 C137.897798,34.1895174 138.508206,33.9122342 139.451565,34.1340608 C140.061973,34.2449741 140.117465,34.4668006 139.840006,34.9659103 C138.674681,37.0732624 137.509356,39.1251579 136.399523,41.23251 C136.233048,41.5097932 136.177556,41.8979896 136.177556,42.1752728 C136.122065,43.4507754 136.177556,44.726278 136.177556,46.0572372 C136.177556,47 136.177556,47 135.178706,47 L134.457315,47 L134.457315,47 C134.013381,47 133.902398,46.8336301 133.902398,46.4454337 L133.902398,42.2307294 L133.902398,42.2307294 C133.902398,41.9534463 133.846906,41.6207064 133.680431,41.3434233 L130.184456,35.0213669 L130.184456,35.0213669 C129.851506,34.4668006 129.96249,34.2449741 130.572898,34.0786042 C131.62724,33.8567776 132.237648,34.0786042 132.737073,35.0768236 Z M58.5713614,36.2296157 C57.1599154,36.2296157 56.1827604,36.8704737 55.7484694,38.2104495 C55.4770374,39.0260869 55.3684646,39.9582439 55.2598919,40.6573617 C55.3684646,41.5312589 55.3684646,42.1721169 55.4770374,42.754715 C55.5313238,43.1042739 55.6398966,43.5120926 55.7484694,43.8616515 C56.2370468,45.2016273 57.2142018,45.9007451 58.4627886,45.9007451 C59.7656619,45.9007451 60.7428168,45.2016273 61.1771079,43.8616515 C61.7742582,41.9973375 61.8285446,40.1330234 61.2313943,38.2687093 C60.7971032,36.8704737 59.8742347,36.2296157 58.5713614,36.2296157 Z M15.715736,0.0108808649 C15.8723713,0.0656604801 15.9767948,0.284778941 15.9767948,0.449117787 C16.0290065,0.832575094 15.9767948,1.2160324 15.9767948,1.59948971 L15.9767948,14.089242 L15.9767948,14.089242 C15.9767948,15.2943935 15.6113125,16.1708674 14.7237128,16.9925616 C13.8883249,17.7594762 13.0007252,18.5811704 12.2697607,19.4576443 C10.2335025,21.9775066 10.337926,25.4286223 12.4786077,27.893705 C13.5228426,29.0988566 14.5670776,30.3040081 15.6635243,31.5639393 C13.2095722,34.3576996 10.75562,37.15146 8.35387962,40 C8.24945613,39.9452204 8.19724438,39.8904408 8.14503263,39.8356612 C6.73531545,38.1922727 5.27338651,36.6036639 3.86366933,34.9054958 C1.67077592,32.166515 0.417693981,28.9892973 0.0522117476,25.4286223 C0.0522117476,25.3190631 0,25.2095039 0,25.0999447 C0.104423495,24.0043523 0.104423495,22.9635397 0.104423495,21.922727 C0.313270486,20.8271347 0.469905729,19.6767627 0.730964467,18.5811704 C1.61856418,15.1848343 3.3937636,12.3910739 5.74329224,9.98077084 C7.30964467,8.33738238 8.98042059,6.80355316 10.6511965,5.21494431 C12.3219724,3.68111509 13.9927484,2.14728586 15.2980421,0.229999326 C15.4024656,0.120440095 15.6113125,-0.0438987504 15.715736,0.0108808649 Z M65.3625731,16 C66.3567251,16 67,16.4915966 67,17.4201681 L67,24.6848739 L67,24.6848739 C66.9415205,27.3067227 65.1871345,28.9453782 62.380117,29 C61.6783626,29 60.9766082,29 60.2748538,28.8361345 C58.3450292,28.4537815 57.0584795,26.9243697 57,24.9033613 L57,16.7647059 L57,16.7647059 C57,16.1638655 57.1169591,16.1092437 57.7017544,16.0546218 C58.754386,16.0546218 59.3391813,16.5462185 59.3391813,17.5294118 L59.3391813,23.4831933 L59.3391813,23.4831933 C59.3391813,23.8655462 59.3391813,24.2478992 59.3976608,24.6302521 C59.6315789,26.487395 60.6842105,27.2521008 62.6725146,26.9243697 C63.9005848,26.7605042 64.4853801,26.1596639 64.6023392,24.9579832 C64.6608187,24.2478992 64.6608187,23.4831933 64.6608187,22.7731092 L64.6608187,16.710084 L64.6608187,16.710084 C64.6608187,16.1092437 64.7777778,16.0546218 65.3625731,16 Z M90.7657813,16.7310856 C90.8749941,16.8974893 90.9296005,17.1193608 90.9842069,17.2857645 C92.2401546,20.8357093 93.4961024,24.3301862 94.8066565,27.8801311 C95.134295,28.878553 95.134295,28.9340209 94.096773,28.9340209 C94.0421666,28.9894888 93.9875602,28.9894888 93.8783473,28.9894888 L93.4762381,28.989735 C92.7237673,28.9850849 92.8455737,28.9074928 92.5131868,27.9910668 C92.2401546,27.3254522 92.021729,26.6598375 91.7486968,26.0496908 C91.6940904,25.8832871 91.4756647,25.7168834 91.3118455,25.7168834 L87.6532152,25.7168834 L87.6532152,25.7168834 C87.3255767,25.7168834 87.2163638,25.8278192 87.107151,26.1051586 C86.8341189,26.937177 86.5064803,27.7137274 86.2880546,28.5457457 C86.1788418,28.878553 85.9604161,29.0449567 85.6327776,28.9894888 L84.5952556,28.9894888 L84.5952556,28.9894888 C83.9945849,28.9894888 83.8853721,28.8230852 84.1037978,28.2684063 L86.3972675,21.7786634 L86.3972675,21.7786634 C86.9979381,20.1700947 87.5986088,18.5615259 88.144673,16.8974893 C88.3630987,16.2318746 88.7453436,16.065471 89.3460143,16.0100031 C89.9466849,15.9545352 90.4927491,16.1209388 90.7657813,16.7310856 Z M80.9203519,16.1629013 C81.0329104,16.2184426 81.1454689,16.4406081 81.1454689,16.6072322 C81.3143067,18.8844284 81.4831445,21.2171659 81.6519822,23.4943621 L81.9896578,28.3264613 L81.9896578,28.3264613 C82.045937,28.8263336 81.8770993,28.9929578 81.3705859,28.9929578 C79.6822082,28.9374164 79.851046,29.2151232 79.7384875,27.4933408 C79.625929,25.271686 79.4008119,23.0500312 79.2882534,20.8283764 C79.2882534,20.7172936 79.2882534,20.6617522 79.2319741,20.4395868 C79.1194156,20.7172936 79.0068571,20.8283764 78.9505779,20.9950005 C78.1626683,22.5501588 77.4310379,24.1608586 76.6994076,25.7160169 C76.5305698,26.0492651 76.3054527,26.2158893 75.9677772,26.2158893 L75.6436231,26.2152352 C74.5005544,26.2077136 74.4549908,26.1136931 73.8854447,24.9384377 C73.2100936,23.5499035 72.5910217,22.1613692 71.8031121,20.8283764 C71.7468329,21.7170383 71.6342744,22.5501588 71.5779951,23.4388207 C71.4654366,25.0495205 71.3528781,26.7157616 71.2403196,28.3264613 C71.2403196,28.7707923 71.0714818,29.0484991 70.5649685,28.9929578 L69.9510199,28.992351 C68.933536,28.9850702 68.9415283,28.8904198 69.0454285,27.6599649 C69.3268248,24.1608586 69.6082211,20.6617522 69.8333381,17.1626459 C69.8333381,16.8293977 69.7207796,16.3850667 70.1710137,16.1629013 C70.7900855,15.8851944 71.5779951,16.0518185 71.9719499,16.4406081 C72.1407877,16.6627736 72.3096255,16.9404804 72.422184,17.1626459 C73.3789314,19.1621352 74.3356787,21.2171659 75.2361469,23.2166553 C75.2924261,23.2721966 75.3487054,23.3832794 75.4612639,23.5499035 C76.3054527,21.6614969 77.1496416,19.9397144 77.9938305,18.1623906 C78.2189475,17.7180596 78.3877853,17.2737287 78.6129023,16.8849391 C79.0068571,16.1073599 80.1324423,15.7741117 80.9203519,16.1629013 Z M46.2988506,17.5113854 L46.2988506,20.6171506 L46.2988506,20.6171506 C46.4137931,20.838991 46.4137931,21.0053712 46.4137931,21.2272116 L51.7011494,21.2272116 L51.7011494,21.2272116 L51.7011494,16.679484 L51.7011494,16.679484 C51.7011494,16.2358032 51.8735632,16.124883 52.2758621,16.0694229 C53.3678161,16.0139628 54,16.5131037 54,17.5668455 L54,28.3815637 L54,28.3815637 C54,28.8252444 53.8275862,29.0470848 53.3678161,28.9916247 L52.2758621,28.9916247 L52.2758621,28.9916247 C51.816092,28.9916247 51.6436782,28.8252444 51.6436782,28.3815637 L51.6436782,23.3346952 L51.6436782,23.3346952 L46.3563218,23.3346952 L46.3563218,23.3346952 L46.3563218,28.3815637 L46.3563218,28.3815637 C46.3563218,28.8252444 46.183908,28.9916247 45.7241379,28.9916247 L44.7471264,28.9916247 L44.7471264,28.9916247 C44.1005747,28.9916247 44.0096534,28.9428805 44.0008138,28.3884149 L44,16.5685638 L44,16.5685638 C44,16.1803431 44.1724138,16.0694229 44.5172414,16.0139628 C45.6091954,15.9030427 46.2988506,16.4576436 46.2988506,17.5113854 Z M99.5195794,16.8398084 C101.173184,19.3347621 102.826788,21.8851591 104.480392,24.3801127 C104.565923,24.5048604 104.651454,24.629608 104.736986,24.7309655 L104.765,24.761 L104.765496,16.6734782 L104.765496,16.6734782 C104.765496,16.1744875 104.993579,16.0081572 105.449746,16.0081572 C106.4191,16.0081572 106.989309,16.507148 106.989309,17.5605728 L106.989309,28.4274819 L106.989309,28.4274819 C107.046329,28.8155858 106.875267,28.981916 106.476121,28.981916 L106.4191,28.981916 L106.4191,28.981916 C104.993579,29.0373594 104.993579,29.0373594 104.252309,27.8730477 C102.712746,25.5444244 101.116163,23.215801 99.5766003,20.8871776 C99.4625586,20.7208474 99.4055378,20.6099606 99.1774544,20.4436303 L99.1774544,28.1502648 L99.1774544,28.1502648 C99.1774544,28.8710292 99.1204336,28.9264726 98.4361836,28.9264726 C96.7825794,28.9264726 97.0106628,29.0373594 97.0106628,27.5403872 L97.0106628,16.8398084 L97.0106628,16.8398084 C97.0106628,16.1744875 97.1247044,16.0636007 97.8089544,16.0081572 C98.5502253,15.9527138 99.0634128,16.1744875 99.5195794,16.8398084 Z M89.4552271,19.2271406 C88.9091629,20.7802414 88.4177051,22.2224065 87.9262473,23.7200395 L90.9842069,23.7200395 L90.9842069,23.7200395 C90.4927491,22.2224065 90.0012913,20.7802414 89.4552271,19.2271406 Z" id="Human-Longevity-LOGO" fill="#506271" fill-rule="nonzero"></path>
    </g>
</svg>