<?xml version="1.0" encoding="UTF-8"?>
<svg width="150px" height="43px" viewBox="0 0 150 43" version="1.1" xmlns="http://www.w3.org/2000/svg" xmlns:xlink="http://www.w3.org/1999/xlink">
    <title>logo / portfolio / kiwi</title>
    <g id="logo-/-portfolio-/-kiwi" stroke="none" stroke-width="1" fill="none" fill-rule="evenodd">
        <path d="M25.9831461,0 L40.5898876,6.0237069 C34.1292135,14.1788793 29.494382,21.7780172 28.0430712,24.1411638 C28.0430712,24.1411638 32.15925,29.5670108 36.2191956,34.8666754 L36.6698573,35.4547256 C36.8948605,35.7482091 37.1192131,36.0406684 37.3421998,36.3311516 L37.7861399,36.9092011 C39.6265354,39.3044118 41.3389513,41.518319 42.5093633,43 L23.8764045,43 L16.1048689,30.3965517 L16.1048689,43 L0.187265918,43 C0.221402934,41.5471668 0.249317056,38.2281399 0.255126943,33.703093 L0.255903428,32.9156798 C0.255995766,32.7825163 0.256069319,32.6483991 0.256123717,32.5133436 L0.256086094,31.2729253 C0.252956497,24.3861314 0.201166465,15.3573567 0.0571375929,5.99811791 L0.0390374391,4.85056021 L0.0390374391,4.85056021 L0.0199975014,3.70043834 C0.0134922493,3.31671914 0.00682740325,2.93269576 0,2.54849138 L17.3689139,1.80711207 L16.5262172,18.7661638 C16.5262172,18.7661638 21.8164794,10.5646552 25.9831461,0 Z M62.7340824,3.3825431 L62.0318352,42.9536638 L45.1310861,42.9536638 L45.6460674,3.56788793 L62.7340824,3.3825431 Z M84.5973783,0.834051724 L88.3895131,27.7553879 L94.1011236,8.7112069 L103.604869,8.94288793 L110.205993,24.5118534 L112.546816,1.29741379 L127.294007,3.3825431 L123.127341,42.9536638 L105.243446,42.9536638 L98.8764045,27.3383621 L94.428839,42.9536638 L73.7359551,42.9536638 L68.6797753,2.50215517 L84.5973783,0.834051724 Z M149.344569,3.56788793 L150,42.9536638 L133.052434,42.9536638 L132.256554,3.56788793 L149.344569,3.56788793 Z" id="Shape" fill="#506271" fill-rule="nonzero"></path>
    </g>
</svg>