<?xml version="1.0" encoding="UTF-8"?>
<svg width="147px" height="84px" viewBox="0 0 147 84" version="1.1" xmlns="http://www.w3.org/2000/svg" xmlns:xlink="http://www.w3.org/1999/xlink">
    <title>logo / portfolio / launchDarkly</title>
    <g id="logo-/-portfolio-/-launchDarkly" stroke="none" stroke-width="1" fill="none" fill-rule="evenodd">
        <path d="M135.566667,66.9262552 L135.587083,66.9662552 C136.362917,68.6662552 137.2,70.4462552 138.077917,72.3462552 C138.97625,74.2662552 139.915417,76.2462552 140.772917,78.1462552 C140.915833,77.8062552 141.05875,77.4662552 141.18125,77.1462552 C141.4875,76.3862552 141.79375,75.6662552 142.059167,74.9662552 C142.610417,73.5662552 143.243333,71.9262552 143.855833,70.3262552 C144.305,69.1462552 144.754167,67.9862552 145.1625,66.9662552 L145.182917,66.9262552 L146.812,66.926 L146.040417,68.8262552 C145.46875,70.2262552 144.897083,71.6062552 144.325417,73.0062552 L143.75375,74.4062552 L143.75375,74.4062552 C143.059583,76.0862552 142.345,77.8062552 141.61,79.5062552 C141.201667,80.4662552 140.670833,81.5662552 139.997083,82.5262552 C139.22125,83.6462552 137.975833,83.9062552 136.995833,83.9062552 C136.465,83.9062552 136.015833,83.8262552 135.770833,83.7862552 C135.464583,83.7262552 135.17875,83.6062552 134.8725,83.4862552 C134.729583,83.4262552 134.586667,83.3662552 134.423333,83.3062552 L134.341667,83.2862552 L134.362083,83.2062552 C134.505,82.8662552 134.8725,82.1262552 134.892917,82.0862552 L134.93375,82.0262552 L135.015417,82.0662552 C135.015417,82.0662552 135.444167,82.3062552 135.709583,82.3862552 C137.792083,82.9862552 138.649583,82.3262552 139.629583,80.7262552 C140.242083,79.7262552 139.83375,78.9662552 139.405,78.1462552 C139.323333,77.9862552 139.22125,77.8062552 139.139583,77.6262552 C138.016667,75.2062552 136.8325,72.7462552 135.689167,70.3662552 L134.157917,67.1662552 L134.157917,67.1662552 C134.1375,67.1262552 134.1375,67.0662552 134.157917,67.0262552 L134.157917,66.9262552 L135.566667,66.9262552 Z M58.5958333,66.4462552 C59.4125,66.4462552 60.1883333,66.5862552 60.94375,66.8862552 C61.6991667,67.1862552 62.3116667,67.6062552 62.7608333,68.1262552 L62.1891667,69.3862552 C61.5766667,68.8462552 60.9845833,68.4462552 60.4129167,68.2062552 C59.84125,67.9662552 59.2491667,67.8462552 58.6366667,67.8462552 C57.3504167,67.8462552 56.3295833,68.3262552 55.5741667,69.2662552 C54.81875,70.2062552 54.45125,71.5062552 54.45125,73.1462552 C54.45125,74.7862552 54.81875,76.0462552 55.5741667,76.9662552 C56.3091667,77.8662552 57.33,78.3262552 58.61625,78.3262552 C59.22875,78.3262552 59.8208333,78.2062552 60.3925,77.9662552 C60.9641667,77.7262552 61.55625,77.3262552 62.1891667,76.8062552 L62.7608333,78.0462552 C62.2708333,78.5662552 61.6379167,78.9862552 60.8825,79.3062552 C60.1270833,79.6062552 59.3308333,79.7662552 58.5345833,79.7662552 C57.39125,79.7462552 56.3908333,79.4662552 55.5333333,78.9262552 C54.6758333,78.3862552 54.0225,77.6062552 53.5529167,76.6062552 C53.0833333,75.6062552 52.85875,74.4462552 52.85875,73.1462552 C52.85875,71.8262552 53.10375,70.6662552 53.5733333,69.6462552 C54.0429167,68.6262552 54.7166667,67.8462552 55.5741667,67.2862552 C56.4316667,66.7262552 57.4525,66.4462552 58.5958333,66.4462552 Z M27.4604167,66.7662552 L27.4604167,74.6862552 C27.4604167,75.9262552 27.7054167,76.8462552 28.175,77.4462552 C28.6445833,78.0262552 29.3795833,78.3262552 30.4004167,78.3262552 C31.5641667,78.3262552 32.4829167,77.9262552 33.1975,77.1462552 C33.8916667,76.3662552 34.2591667,75.3262552 34.2591667,74.0262552 L34.2591667,66.7662552 L35.7495833,66.7662552 L35.7495833,79.5662552 L34.2591667,79.5662552 L34.2591667,77.2662552 C33.87125,78.0662552 33.3404167,78.6862552 32.6258333,79.1062552 C31.9316667,79.5262552 31.115,79.7462552 30.2370833,79.7462552 C28.8079167,79.7462552 27.74625,79.3262552 27.0316667,78.4862552 C26.3170833,77.6462552 25.9495833,76.4062552 25.9495833,74.7862552 L25.9495833,66.7662552 L27.4604167,66.7662552 Z M17.7216667,66.4062552 C19.17125,66.4462552 20.2533333,66.8662552 20.9679167,67.6662552 C21.6825,68.4662552 22.05,69.7062552 22.05,71.3262552 L22.05,79.5462552 L20.5595833,79.5462552 L20.5595833,77.2462552 C20.2125,78.0462552 19.7020833,78.6462552 19.04875,79.0862552 C18.3954167,79.5262552 17.6195833,79.7262552 16.7620833,79.7262552 C15.98625,79.7262552 15.2716667,79.5662552 14.6183333,79.2262552 C13.965,78.8862552 13.4545833,78.4262552 13.0870833,77.8262552 C12.7195833,77.2262552 12.5358333,76.5662552 12.5358333,75.8462552 C12.5358333,74.9062552 12.7604167,74.1662552 13.23,73.6262552 C13.6995833,73.1062552 14.455,72.7262552 15.5370833,72.4862552 C16.6191667,72.2662552 18.1095833,72.1462552 20.02875,72.1462552 L20.5595833,72.1462552 L20.5595833,71.1662552 C20.5595833,70.0062552 20.335,69.1662552 19.8858333,68.6262552 C19.4366667,68.0862552 18.7425,67.8262552 17.7829167,67.8262552 C17.0479167,67.8262552 16.35375,67.9262552 15.68,68.1462552 C15.00625,68.3662552 14.3120833,68.7262552 13.6179167,69.2062552 L13.04625,67.9662552 C13.65875,67.4862552 14.39375,67.1062552 15.2308333,66.8262552 C16.0679167,66.5462552 16.905,66.4062552 17.7216667,66.4062552 Z M102.246667,66.4062552 C103.69625,66.4462552 104.778333,66.8662552 105.492917,67.6662552 C106.2075,68.4662552 106.575,69.7062552 106.575,71.3262552 L106.575,79.5462552 L105.084583,79.5462552 L105.084583,77.2462552 C104.7375,78.0462552 104.227083,78.6462552 103.57375,79.0862552 C102.920417,79.5262552 102.144583,79.7262552 101.287083,79.7262552 C100.51125,79.7262552 99.7966667,79.5662552 99.1433333,79.2262552 C98.49,78.8862552 97.9795833,78.4262552 97.6120833,77.8262552 C97.2445833,77.2262552 97.0608333,76.5662552 97.0608333,75.8462552 C97.0608333,74.9062552 97.2854167,74.1662552 97.755,73.6262552 C98.2245833,73.1062552 98.98,72.7262552 100.062083,72.4862552 C101.144167,72.2662552 102.634583,72.1462552 104.55375,72.1462552 L105.084583,72.1462552 L105.084583,71.1662552 C105.084583,70.0062552 104.86,69.1662552 104.410833,68.6262552 C103.961667,68.0862552 103.2675,67.8262552 102.307917,67.8262552 C101.572917,67.8262552 100.87875,67.9262552 100.205,68.1462552 C99.53125,68.3662552 98.8370833,68.7262552 98.1429167,69.2062552 L97.57125,67.9662552 C98.18375,67.4862552 98.91875,67.1062552 99.7558333,66.8262552 C100.592917,66.5462552 101.43,66.4062552 102.246667,66.4062552 Z M120.437917,60.9462552 L120.437917,72.6462552 L126.42,66.7462552 L128.38,66.7462552 C127.665417,67.4462552 126.420613,68.6656552 125.121786,69.9379752 L124.563227,70.4851352 C124.1905,70.8502552 123.818917,71.2142552 123.459583,71.5662552 L129.502917,79.5662552 L127.869583,79.5662552 L122.479583,72.5662552 C121.499583,73.5462552 120.703333,74.3062552 120.437917,74.5662552 L120.437917,79.5462552 L118.927083,79.5462552 L118.927083,60.9462552 L120.437917,60.9462552 Z M45.3658333,66.4462552 C48.2445833,66.4462552 49.6941667,68.1062552 49.6941667,71.4062552 L49.6941667,79.5462552 L48.1833333,79.5462552 L48.1833333,71.5062552 C48.1833333,70.2462552 47.9383333,69.3262552 47.46875,68.7462552 C46.97875,68.1662552 46.2233333,67.8662552 45.1820833,67.8662552 C43.9979167,67.8662552 43.0383333,68.2462552 42.32375,69.0262552 C41.6091667,69.8062552 41.2416667,70.8462552 41.2416667,72.1462552 L41.2416667,79.5662552 L39.7308333,79.5662552 L39.7308333,66.7662552 L41.22125,66.7662552 L41.22125,68.9462552 C41.6091667,68.1462552 42.1604167,67.5262552 42.875,67.0862552 C43.5895833,66.6462552 44.4266667,66.4462552 45.3658333,66.4462552 Z M132.463333,60.9662552 L132.463333,79.5662552 L130.9525,79.5662552 L130.9525,60.9662552 L132.463333,60.9662552 Z M66.94625,60.9662552 L66.94625,68.9062552 C67.3341667,68.1062552 67.8854167,67.5062552 68.6,67.0862552 C69.3145833,66.6662552 70.1516667,66.4462552 71.0704167,66.4462552 C73.9491667,66.4462552 75.39875,68.1062552 75.39875,71.4062552 L75.39875,79.5462552 L73.8879167,79.5462552 L73.8879167,71.5062552 C73.8879167,70.2462552 73.6429167,69.3262552 73.1733333,68.7462552 C72.6833333,68.1662552 71.9279167,67.8662552 70.8866667,67.8662552 C69.7025,67.8662552 68.7429167,68.2462552 68.0283333,69.0262552 C67.31375,69.8062552 66.94625,70.8462552 66.94625,72.1462552 L66.94625,79.5662552 L65.4354167,79.5662552 L65.4354167,60.9662552 L66.94625,60.9662552 Z M1.53125,60.9662552 L1.53125,78.1462552 L10.5554167,78.1462552 L10.5554167,79.5662552 L0,79.5662552 L0,60.9662552 L1.53125,60.9662552 Z M85.2395833,60.9662552 C88.01625,60.9662552 90.16,61.7662552 91.6708333,63.3862552 C93.1816667,64.9862552 93.9370833,67.2862552 93.9370833,70.2462552 C93.9370833,73.2262552 93.1816667,75.5062552 91.6708333,77.1262552 C90.16,78.7462552 88.01625,79.5462552 85.26,79.5462552 L79.625,79.5462552 L79.625,60.9662552 L85.2395833,60.9662552 Z M116.722083,66.4062552 L116.824167,67.8462552 L115.7625,67.9462552 C114.455833,68.0862552 113.516667,68.5262552 112.924583,69.2862552 C112.3325,70.0462552 112.046667,70.9662552 112.046667,72.0462552 L112.046667,79.5262552 L110.535833,79.5262552 L110.535833,66.7262552 L112.02625,66.7262552 L112.02625,68.9662552 C112.39375,68.1662552 112.904167,67.5862552 113.577917,67.1862552 C114.251667,66.7862552 115.08875,66.5462552 116.06875,66.4662552 L116.722083,66.4062552 Z M105.084583,73.3462552 L104.615,73.3462552 C103.0225,73.3462552 101.817917,73.4262552 100.960417,73.5662552 C100.123333,73.7062552 99.53125,73.9462552 99.1841667,74.2862552 C98.8370833,74.6262552 98.6533333,75.1262552 98.6533333,75.7862552 C98.6533333,76.5262552 98.91875,77.1262552 99.4495833,77.6262552 C99.9804167,78.1062552 100.63375,78.3462552 101.409583,78.3462552 C102.491667,78.3462552 103.369583,77.9662552 104.06375,77.1862552 C104.757917,76.4062552 105.084583,75.4262552 105.084583,74.2262552 L105.084583,73.3462552 Z M20.5595833,73.3462552 L20.09,73.3462552 C18.4975,73.3462552 17.2929167,73.4262552 16.4354167,73.5662552 C15.5983333,73.7062552 15.00625,73.9462552 14.6591667,74.2862552 C14.3120833,74.6262552 14.1283333,75.1262552 14.1283333,75.7862552 C14.1283333,76.5262552 14.39375,77.1262552 14.9245833,77.6262552 C15.4554167,78.1062552 16.10875,78.3462552 16.8845833,78.3462552 C17.9666667,78.3462552 18.8445833,77.9662552 19.53875,77.1862552 C20.2329167,76.4062552 20.5595833,75.4262552 20.5595833,74.2262552 L20.5595833,73.3462552 Z M85.1783333,62.4062552 L81.15625,62.4062552 L81.15625,78.1462552 L85.1783333,78.1462552 C87.5466667,78.1462552 89.3229167,77.4862552 90.5275,76.1662552 C91.7320833,74.8462552 92.3241667,72.8862552 92.3241667,70.2662552 C92.3241667,65.0262552 89.9354167,62.4062552 85.1783333,62.4062552 Z M98.7256989,23.1204125 C100.666344,32.678465 96.2689247,45.5735961 84.1502151,51.7945698 C72.6508602,57.7065549 59.314086,54.348877 52.2947312,46.6859556 C54.6276344,45.4500006 57.001828,44.1934462 59.4792473,42.8750942 C67.3863441,48.8694762 76.2224731,50.3526223 85.4508602,45.7383901 C94.637957,41.1447571 98.7463441,33.2346447 98.7256989,23.1204125 Z M57.7244086,34.0586148 C59.4173118,34.079214 61.0689247,36.3039331 60.594086,37.9106747 C59.7889247,40.7327721 57.7244086,42.4425099 55.2469892,43.7196635 C51.8405376,45.4705998 48.1244086,46.1709743 44.3669892,46.6241579 C43.314086,46.7477534 42.3024731,46.8095511 40.9811828,46.9331466 C41.1463441,46.4593639 41.1669892,46.0885773 41.3527957,45.8619856 C44.4908602,42.0717234 47.8147312,38.4668545 52.1089247,35.8919481 C53.8224731,34.8619856 55.6392473,34.0380155 57.7244086,34.0586148 Z M76.7386022,30.8863301 C78.1424731,35.6653564 75.2727957,42.7514987 71.0405376,44.8732215 C71.2056989,41.3919481 70.317957,38.1578657 69.0173118,35.0061803 C71.5773118,33.6260305 74.1373118,32.26648 76.7386022,30.8863301 Z M53.0998925,36.0361429 C51.5721505,37.2926972 50.2095699,38.7346447 48.7850538,40.1147946 C48.557957,40.3413863 48.3927957,40.6503751 48.1863441,40.8975661 C49.1566667,40.3207871 49.961828,39.6410118 50.8495699,39.0436335 C51.7166667,38.4668545 52.6456989,37.9930717 53.5334409,37.4574912 L53.7398925,37.6634837 L53.7398925,37.6634837 C53.3889247,38.672847 53.037957,39.661611 52.6869892,40.6709743 L52.8521505,40.7945698 L52.8521505,40.7945698 C54.9166667,39.3114238 56.9605376,37.7870792 59.1902151,36.1185399 C58.5295699,35.7271541 58.1786022,35.4593639 57.7863441,35.3151691 C56.114086,34.7589893 54.4624731,34.9237833 53.0998925,36.0361429 Z M68.2327957,37.0867047 C69.2031183,39.167229 69.037957,39.496817 66.4986022,40.7121728 C66.7050538,39.661611 66.8082796,38.6522477 67.1386022,37.7252815 C67.241828,37.4162927 67.8611828,37.2926972 68.2327957,37.0867047 Z M78.1424731,0.873221529 C69.0998925,0.00805298923 61.5024731,2.83015037 55.9076344,10.0398882 C50.2921505,17.2908245 49.5695699,25.3451316 52.7076344,33.7702253 C50.5811828,35.2739706 48.557957,36.7159182 46.514086,38.1578657 C43.0250538,31.3395137 42.9011828,19.9687271 49.6108602,11.0492515 C57.1256989,1.05861479 69.2444086,-1.61928783 78.1424731,0.873221529 Z M101.657312,3.81891441 C102.68957,3.98370842 103.763118,4.16910168 104.816022,4.35449494 C103.597957,12.5117983 88.114086,28.5174163 78.3489247,31.7308994 C78.2456989,31.1953189 78.1631183,30.6803376 78.0598925,30.1447571 C77.7708602,28.6410118 77.5437634,28.6204125 76.2844086,29.3413863 C73.6624731,30.8451316 71.0198925,32.26648 68.3153763,33.6466298 C67.4895699,34.0586148 67.0147312,34.3882028 67.5927957,35.3151691 C67.6753763,35.4593639 67.6753763,35.6447571 67.757957,35.9125474 C66.5192473,36.1803376 65.3424731,36.4481279 64.0831183,36.7365174 C63.6495699,34.8001878 62.761828,33.255244 61.1102151,32.1428844 C61.4405376,31.5661054 61.7295699,31.0305249 62.0598925,30.5361429 C67.2005376,22.6466298 73.2495699,15.5810867 80.8676344,9.97809044 C85.4921505,6.57921404 90.6534409,4.47809044 96.4134409,3.94250992 C96.5373118,4.00430767 96.6405376,4.10730393 96.7231183,4.21030018 C95.3605376,5.73464475 94.0392473,7.27958857 92.6147312,8.76273464 C91.4792473,9.93689194 91.3553763,10.6166672 92.3463441,11.749626 C93.4405376,13.0061803 94.7205376,13.1915736 95.8353763,12.2646073 C98.4986022,10.0810867 99.7373118,8.28895187 101.657312,3.81891441 Z M60.9244086,33.9350193 C61.8534409,34.244008 62.1011828,34.9855811 62.3695699,35.6447571 C62.4521505,35.8095511 62.2663441,36.0979406 62.1631183,36.5099256 C61.6469892,35.6447571 61.2547312,35.0267796 60.8831183,34.3882028 C60.8624731,34.326405 60.9037634,34.244008 60.9244086,33.9350193 Z M67.757957,20.4425099 C66.0237634,22.667229 64.3927957,24.7683526 62.6998925,26.9724725 C60.841828,24.1709743 58.3437634,22.1934462 55.3295699,20.6073039 C59.5411828,19.1035586 63.5669892,18.8357683 67.757957,20.4425099 Z M78.3902151,21.3282777 C77.0895699,21.3282777 75.9747312,22.4612365 75.954086,23.7589893 C75.954086,25.0567421 77.0689247,26.2103002 78.3695699,26.2308994 C79.7115054,26.2514987 80.8882796,25.0567421 80.8676344,23.7383901 C80.8469892,22.4406373 79.6908602,21.3076785 78.3902151,21.3282777 Z M83.8611828,17.2290268 C82.4986022,17.249626 81.3424731,18.4443826 81.4044086,19.7627346 C81.4456989,21.0604874 82.601828,22.172847 83.9024731,22.1316485 C85.2031183,22.1110492 86.2973118,20.9574912 86.2973118,19.6597384 C86.2766667,18.3619856 85.1411828,17.2084275 83.8611828,17.2290268 Z M89.0637634,13.2121728 C87.6598925,13.2121728 86.6069892,14.2833339 86.6276344,15.684083 C86.6482796,17.0436335 87.721828,18.0735961 89.0844086,18.0529968 C90.4263441,18.0323976 91.4792473,16.9612365 91.4792473,15.6222852 C91.4792473,14.2833339 90.4056989,13.2121728 89.0637634,13.2121728 Z" id="Launch-Darkly-LOGO" fill="#506271" fill-rule="nonzero"></path>
    </g>
</svg>