<?xml version="1.0" encoding="UTF-8"?>
<svg width="163px" height="31px" viewBox="0 0 163 31" version="1.1" xmlns="http://www.w3.org/2000/svg" xmlns:xlink="http://www.w3.org/1999/xlink">
    <title>logo / portfolio / livongo</title>
    <g id="logo-/-portfolio-/-livongo" stroke="none" stroke-width="1" fill="none" fill-rule="evenodd">
        <path d="M126.260657,5.31335841 C128.559198,5.19623198 130.746615,6.31426498 132.004878,8.24934619 L132.004878,8.24934619 L132.004878,5.72907349 L136.118982,5.72907349 L136.118982,21.0195939 C136.118982,27.099427 133.143372,30.9967559 126.674655,30.9967559 C123.669694,31.0678131 120.753785,29.9692297 118.53701,27.9308572 L118.53701,27.9308572 L120.878685,24.8259851 C122.404042,26.3468398 124.47348,27.1892812 126.622906,27.1643825 C130.620573,27.1643825 131.914316,24.7870119 131.914316,21.4612912 L131.914316,21.4612912 L131.914316,20.2791014 C130.566529,21.9020095 128.544594,22.8043747 126.441782,22.7214275 C124.269548,22.7878828 122.160086,21.9846102 120.57796,20.4885134 C118.995833,18.9924166 118.070798,16.9261967 118.006575,14.7448944 L118.006575,14.7448944 L118.006575,14.1213217 C118.006575,9.21068732 121.085684,5.31335841 126.260657,5.31335841 Z M87.8752916,5.3393406 C92.6546547,5.11898164 96.7080221,8.82866014 96.9314952,13.6276601 L96.9314952,13.6276601 L96.9314952,14.160295 C96.9314952,19.1826441 92.8768948,23.2540625 87.8752916,23.2540625 C82.8736885,23.2540625 78.819088,19.1826441 78.819088,14.160295 C78.7540761,9.37793521 82.5440263,5.43883428 87.3060445,5.3393406 L87.3060445,5.3393406 Z M147.943796,5.3393406 C152.718343,5.11886342 156.769633,8.82082904 157,13.614669 L157,13.614669 L157,14.160295 C157,19.1826441 152.9454,23.2540625 147.943796,23.2540625 C142.942193,23.2540625 138.887593,19.1826441 138.887593,14.160295 C138.856504,11.8517805 139.740061,9.62543682 141.343849,7.97114122 C142.947638,6.31684561 145.140252,5.37014226 147.439236,5.3393406 L147.439236,5.3393406 Z M0,1 L5.73459716,6.72495554 L5.73459716,17.2620036 L16.2654028,17.2620036 L22,23 L0,23 L0,1 Z M78.3921527,5.72907349 L71.8199364,22.5785255 L67.3565217,22.5785255 L60.5255567,5.79402898 L65.0924708,5.79402898 L69.5558855,17.4860157 L69.6205726,17.4860157 L74.1098621,5.72907349 L78.3921527,5.72907349 Z M103.775398,8.41823044 C104.655874,6.37196747 106.737962,5.11753303 108.950371,5.30036731 C113.439661,5.30036731 115.043902,8.48318592 115.043902,11.9128354 L115.043902,11.9128354 L115.043902,22.5785255 L110.968611,22.5785255 L110.968303,13.9407965 C110.959757,12.0726015 110.753203,9.14573184 107.902439,9.14573184 C104.978579,9.14573184 104.021209,11.1723429 104.021209,13.4068114 L104.021209,13.4068114 L104.021209,22.5005789 L99.8941676,22.5005789 L99.8941676,5.72907349 L103.775398,5.72907349 Z M39.38579,0 L39.38579,18.5253034 L50.7319194,18.5253034 L50.7319194,22.51357 L35,22.51357 L35,0 L39.38579,0 Z M57.8863203,5.72907349 L57.8863203,22.51357 L53.7075292,22.51357 L53.7075292,5.72907349 L57.8863203,5.72907349 Z M88.0693531,8.96385649 C85.3577697,8.82394819 83.0466474,10.9178205 82.9073171,13.6406512 C82.894386,13.8092858 82.894386,13.9786693 82.9073171,14.1473039 C82.8052969,16.8264979 84.8838499,19.0822743 87.5518558,19.1878493 L87.5518558,19.1878493 L87.8106045,19.1878493 C89.0905146,19.2121951 90.3276118,18.7248752 91.2496326,17.8331401 C92.1716533,16.941405 92.7030348,15.7183356 92.7268293,14.4331081 L92.7268293,14.4331081 L92.7268293,14.1473039 C92.8661596,11.4244733 90.7809365,9.10376478 88.0693531,8.96385649 Z M150.727124,9.72504833 C149.253105,8.76598753 147.381517,8.66942006 145.817367,9.47172195 C144.253218,10.2740238 143.234139,11.8533063 143.144008,13.614669 C143.131077,13.7833037 143.131077,13.9526871 143.144008,14.1213217 C143.049048,16.7858143 145.110155,19.0293909 147.762672,19.148876 L147.762672,19.148876 L148.008484,19.148876 C149.288394,19.1732218 150.525491,18.6859019 151.447512,17.7941668 C152.369532,16.9024317 152.900914,15.6793623 152.924708,14.3941348 L152.924708,14.3941348 L152.963521,14.1213217 C153.053652,12.3599591 152.201142,10.6841091 150.727124,9.72504833 Z M127.15334,9.09376745 C124.56878,8.99072839 122.382662,10.9947765 122.250053,13.5886868 C122.237113,13.7529842 122.237113,13.9180511 122.250053,14.0823485 L122.250053,14.0823485 L122.256114,14.3386155 C122.315734,15.5305881 122.811912,16.6621378 123.654304,17.512571 C124.556866,18.4237494 125.782932,18.9375777 127.062778,18.9410185 L127.062778,18.9410185 L127.276331,18.9472987 C129.756927,18.9645556 131.843028,17.0344012 132.004878,14.5240457 L132.004878,14.5240457 L132.04369,14.5240457 C132.05663,14.3510748 132.05663,14.1773728 132.04369,14.0044019 C132.17677,11.4537584 130.247341,9.2676402 127.70965,9.09376745 L127.70965,9.09376745 Z M22,0 L22,16 L6,0 L22,0 Z M158.833605,4.23790084 C159.574182,3.92069972 160.411062,3.92069972 161.151638,4.23790084 C161.51035,4.39506722 161.83895,4.61429657 162.122542,4.88564976 C162.400031,5.1552634 162.619042,5.47984853 162.765766,5.83894062 C163.078078,6.57678919 163.078078,7.41098913 162.765766,8.1488377 C162.453332,8.88387021 161.864099,9.46406271 161.127366,9.76209916 C160.386789,10.0793003 159.549909,10.0793003 158.809333,9.76209916 C158.103661,9.44307226 157.544245,8.86661891 157.24375,8.1488377 C157.090589,7.8065359 157.008013,7.4364892 157.001024,7.06110839 C156.989682,6.64052501 157.072648,6.22277828 157.24375,5.83894062 C157.547358,5.11775038 158.117453,4.54364458 158.833605,4.23790084 Z M161.006003,4.83676305 C160.397419,4.57522568 159.709187,4.57522568 159.100604,4.83676305 C158.514376,5.08457811 158.048104,5.55413048 157.80202,6.14448256 C157.666303,6.43256983 157.584041,6.74322085 157.559294,7.06110839 L157.559294,7.06110839 L157.566002,7.25734432 C157.58584,7.51803629 157.649066,7.77400119 157.753475,8.01439925 C157.988908,8.62319604 158.456559,9.11174218 159.052059,9.37100547 C159.660642,9.63254284 160.348874,9.63254284 160.957457,9.37100547 C161.543685,9.12319041 162.009957,8.65363804 162.256041,8.06328596 C162.531348,7.45710553 162.548883,6.76399443 162.304586,6.14448256 C162.182659,5.85213469 162.005412,5.58646957 161.782726,5.36229519 C161.557894,5.14077866 161.294633,4.96265591 161.006003,4.83676305 Z M160.144325,5.32563016 C160.469833,5.30336949 160.792559,5.39870171 161.054548,5.59450707 C161.263979,5.79244752 161.371387,6.07637889 161.345819,6.36447276 C161.380972,6.84207309 161.030397,7.26029136 160.55696,7.30554194 L160.55696,7.30554194 L160.532687,7.30554194 L161.4065,8.75992159 L160.75114,8.75992159 L159.938008,7.35442865 L159.488965,7.35442865 L159.488965,8.75992159 L158.857878,8.75992159 L158.857878,5.32563016 Z M160.484142,5.99782243 L159.488965,5.99782243 L159.488965,6.81667483 L160.484142,6.81667483 C160.558376,6.78206069 160.624539,6.7320894 160.678323,6.6700147 C160.762562,6.5051077 160.762562,6.30938957 160.678323,6.14448256 C160.627761,6.07901191 160.560712,6.02837117 160.484142,5.99782243 L160.484142,5.99782243 Z M57.8863203,0 L57.8863203,3.37768505 L53.7075292,3.37768505 L53.7075292,0 L57.8863203,0 Z" id="Livongo-LOGO" fill="#506271" fill-rule="nonzero"></path>
    </g>
</svg>