<?xml version="1.0" encoding="UTF-8"?>
<svg width="151px" height="33px" viewBox="0 0 151 33" version="1.1" xmlns="http://www.w3.org/2000/svg" xmlns:xlink="http://www.w3.org/1999/xlink">
    <title>logo / portfolio / loftium</title>
    <g id="logo-/-portfolio-/-loftium" stroke="none" stroke-width="1" fill="none" fill-rule="evenodd">
        <polygon id="Path" fill="#506271" fill-rule="nonzero" points="0 33 0 5.51745169 6.53436055 2 6.53436055 27.1968599 18 27.1968599 18 33"></polygon>
        <path d="M31.9773546,33 C28.8938068,33 26.3084577,32.0053191 24.1760165,29.9612217 C22.0454623,27.9208991 21,25.2426218 21,21.9792382 C21,18.7101922 22.0454623,16.0791009 24.1760165,14.0387783 C26.3084577,11.9965683 28.8938068,11 31.9773546,11 C35.0627895,11 37.6481386,11.9965683 39.7786927,14.0387783 C41.911134,16.0791009 43,18.7101922 43,21.9792382 C43,25.2426218 41.9130211,27.9190117 39.7786927,29.9612217 C37.6481386,32.0053191 35.0627895,33 31.9773546,33 Z M36.7876137,21.9792382 C36.7876137,19.2103638 34.6551724,17.1662663 31.9792417,17.1662663 C29.303311,17.1662663 27.2180477,19.2103638 27.2180477,21.9792382 C27.2180477,24.8802334 29.303311,26.8299588 31.9792417,26.8299588 C34.6985761,26.8299588 36.7876137,24.8802334 36.7876137,21.9792382 Z" id="Shape" fill="#506271" fill-rule="nonzero"></path>
        <path d="M71.5007396,11.6258872 L71.5007396,3.43158867 L65.1635646,3.43158867 L65.1635646,11.6258872 L55.4715272,11.6258872 L55.4715272,10.1614634 C55.4715272,7.46113451 56.5738938,6.08621386 58.730864,6.08621386 L61.0750647,6.08621386 L61.0750647,0 L58.730864,0 C52.5331567,0 49.0426476,3.61630792 49.0426476,10.1614634 L49.0426476,11.6258872 L45,11.6258872 L45,16.6590109 L49.0426476,16.6590109 L49.0426476,33 L55.4715272,33 L55.4715272,16.6590109 L65.1635646,16.6590109 L65.1635646,33 L71.5007396,33 L71.5007396,16.6590109 L76,16.6590109 L76,11.6258872 L71.5007396,11.6258872 Z" id="Path" fill="#506271" fill-rule="nonzero"></path>
        <path d="M87,3.70771539 C87,5.76628773 85.2327607,7.46113451 83.0474232,7.46113451 C80.8136947,7.46113451 79,5.76628773 79,3.70771539 C79,1.64533441 80.8136947,0 83.0454875,0 C85.2327607,0 87,1.64533441 87,3.70771539 Z M86.2567143,11.6258872 L86.2567143,33 L79.8361965,33 L79.8361965,11.6258872 L86.2567143,11.6258872 Z" id="Shape" fill="#506271" fill-rule="nonzero"></path>
        <path d="M105.752221,11 L112,11 L112,32.5375491 L105.752221,32.5375491 L105.752221,29.588225 C104.675082,31.6625382 102.429173,33 100.316036,33 C95.4184198,33 92,29.7724379 92,23.8680331 L92,11 L98.2496494,11 L98.2496494,22.4845181 C98.2496494,25.5700829 100.136512,26.7732229 101.980365,26.7732229 C104.138382,26.7732229 105.754091,25.38587 105.754091,22.3904928 L105.754091,11 L105.752221,11 Z" id="Path" fill="#506271" fill-rule="nonzero"></path>
        <path d="M137.682794,21.6114261 L137.682794,33 L131.407365,33 L131.407365,21.3792412 C131.364164,18.7964239 129.874666,17.2267771 127.932495,17.2267771 C125.80625,17.2267771 124.27355,18.5181858 124.27355,21.6114261 L124.27355,33 L118,33 L118,11.4624509 L124.27355,11.4624509 L124.27355,14.5979067 C125.222096,12.3854339 127.432865,11.0460532 129.782628,11.0460532 C133.124139,11.0460532 135.379987,12.2914086 136.552052,14.8281727 C138.088508,12.2914086 140.209118,11 142.874438,11 C147.975924,11 151,14.3657218 151,20.7767117 L151,32.9980811 L144.769651,32.9980811 L144.769651,21.5174008 C144.769651,18.7964239 143.280153,17.2267771 141.294781,17.2267771 C139.129091,17.2267771 137.682794,18.6563454 137.682794,21.6114261 Z" id="Path" fill="#506271" fill-rule="nonzero"></path>
    </g>
</svg>